<mxfile host="app.diagrams.net" modified="2022-06-15T04:07:09.123Z" agent="5.0 (Macintosh; Intel Mac OS X 10_15_7) AppleWebKit/537.36 (KHTML, like Gecko) Chrome/102.0.0.0 Safari/537.36" etag="iClOi5hUcdxmK-_hU_iF" version="19.0.0" type="github" pages="3">
  <diagram id="6a731a19-8d31-9384-78a2-239565b7b9f0" name="Page-1">
    <mxGraphModel dx="1426" dy="826" grid="0" gridSize="10" guides="1" tooltips="1" connect="1" arrows="1" fold="1" page="0" pageScale="1" pageWidth="1169" pageHeight="827" background="none" math="0" shadow="0">
      <root>
        <mxCell id="0" />
        <mxCell id="1" parent="0" />
        <mxCell id="AaEPliW05S_F7qjuPCK2-2166" value="" style="rounded=1;whiteSpace=wrap;html=1;dashed=1;strokeColor=none;strokeWidth=2;fillColor=#E6E6E6;fontFamily=Verdana;fontSize=12;fontColor=#00BEF2" parent="1" vertex="1">
          <mxGeometry x="963.44" y="870" width="150.65" height="650" as="geometry" />
        </mxCell>
        <mxCell id="AaEPliW05S_F7qjuPCK2-2165" value="" style="rounded=1;whiteSpace=wrap;html=1;dashed=1;strokeColor=none;strokeWidth=2;fillColor=#E6E6E6;fontFamily=Verdana;fontSize=12;fontColor=#00BEF2" parent="1" vertex="1">
          <mxGeometry x="755.28" y="870" width="150.65" height="650" as="geometry" />
        </mxCell>
        <mxCell id="AaEPliW05S_F7qjuPCK2-2164" value="" style="rounded=1;whiteSpace=wrap;html=1;dashed=1;strokeColor=none;strokeWidth=2;fillColor=#E6E6E6;fontFamily=Verdana;fontSize=12;fontColor=#00BEF2" parent="1" vertex="1">
          <mxGeometry x="547.11" y="870" width="150.65" height="650" as="geometry" />
        </mxCell>
        <mxCell id="AaEPliW05S_F7qjuPCK2-2163" value="" style="rounded=1;whiteSpace=wrap;html=1;dashed=1;strokeColor=none;strokeWidth=2;fillColor=#E6E6E6;fontFamily=Verdana;fontSize=12;fontColor=#00BEF2" parent="1" vertex="1">
          <mxGeometry x="338.94" y="870" width="150.65" height="650" as="geometry" />
        </mxCell>
        <mxCell id="-Y_GU5dcR2tTb0Er7WQB-2088" value="" style="rounded=1;whiteSpace=wrap;html=1;dashed=1;strokeColor=none;strokeWidth=2;fillColor=#FFFFFF;fontFamily=Helvetica;fontSize=14;fontColor=#FFB366;opacity=75;verticalAlign=middle;fontStyle=1;arcSize=25;shadow=0;glass=0;sketch=0;" parent="1" vertex="1">
          <mxGeometry x="350.3513835956918" y="879.6949704142013" width="127.82104391052195" height="94.97041420118343" as="geometry" />
        </mxCell>
        <mxCell id="-Y_GU5dcR2tTb0Er7WQB-2089" value="" style="rounded=1;whiteSpace=wrap;html=1;dashed=1;strokeColor=none;strokeWidth=2;fillColor=#FFFFFF;fontFamily=Helvetica;fontSize=14;fontColor=#FFB366;opacity=75;verticalAlign=middle;fontStyle=1;arcSize=25;shadow=0;glass=0;sketch=0;" parent="1" vertex="1">
          <mxGeometry x="558.5213835956918" y="879.6949704142013" width="127.82104391052195" height="94.97041420118343" as="geometry" />
        </mxCell>
        <mxCell id="-Y_GU5dcR2tTb0Er7WQB-2090" value="" style="rounded=1;whiteSpace=wrap;html=1;dashed=1;strokeColor=none;strokeWidth=2;fillColor=#FFFFFF;fontFamily=Helvetica;fontSize=14;fontColor=#FFB366;opacity=75;verticalAlign=middle;fontStyle=1;arcSize=25;shadow=0;glass=0;sketch=0;" parent="1" vertex="1">
          <mxGeometry x="766.6913835956917" y="879.6949704142013" width="127.82104391052195" height="94.97041420118343" as="geometry" />
        </mxCell>
        <mxCell id="-Y_GU5dcR2tTb0Er7WQB-2091" value="" style="rounded=1;whiteSpace=wrap;html=1;dashed=1;strokeColor=none;strokeWidth=2;fillColor=#FFFFFF;fontFamily=Helvetica;fontSize=14;fontColor=#FFB366;opacity=75;verticalAlign=middle;fontStyle=1;arcSize=25;shadow=0;glass=0;sketch=0;" parent="1" vertex="1">
          <mxGeometry x="974.8513835956917" y="879.6949704142013" width="127.82104391052195" height="94.97041420118343" as="geometry" />
        </mxCell>
        <mxCell id="AaEPliW05S_F7qjuPCK2-2162" value="" style="rounded=1;whiteSpace=wrap;html=1;dashed=1;strokeColor=none;strokeWidth=2;fillColor=#E6E6E6;fontFamily=Verdana;fontSize=12;fontColor=#00BEF2" parent="1" vertex="1">
          <mxGeometry x="130.78" y="870" width="150.65" height="650" as="geometry" />
        </mxCell>
        <mxCell id="-Y_GU5dcR2tTb0Er7WQB-2086" value="" style="rounded=1;whiteSpace=wrap;html=1;dashed=1;strokeColor=none;strokeWidth=2;fillColor=#FFFFFF;fontFamily=Helvetica;fontSize=14;fontColor=#FFB366;opacity=75;verticalAlign=middle;fontStyle=1;arcSize=25;shadow=0;glass=0;sketch=0;" parent="1" vertex="1">
          <mxGeometry x="142.1913835956918" y="879.6949704142013" width="127.82104391052195" height="94.97041420118343" as="geometry" />
        </mxCell>
        <mxCell id="2019" value="" style="rounded=1;whiteSpace=wrap;html=1;dashed=1;strokeColor=none;strokeWidth=2;fillColor=#E6E6E6;fontFamily=Verdana;fontSize=12;fontColor=#00BEF2" parent="1" vertex="1">
          <mxGeometry x="40" y="120" width="165" height="670" as="geometry" />
        </mxCell>
        <mxCell id="2020" value="" style="rounded=1;whiteSpace=wrap;html=1;dashed=1;strokeColor=none;strokeWidth=2;fillColor=#E6E6E6;fontFamily=Verdana;fontSize=12;fontColor=#00BEF2" parent="1" vertex="1">
          <mxGeometry x="220" y="120" width="165" height="670" as="geometry" />
        </mxCell>
        <mxCell id="2021" value="" style="rounded=1;whiteSpace=wrap;html=1;dashed=1;strokeColor=none;strokeWidth=2;fillColor=#E6E6E6;fontFamily=Verdana;fontSize=12;fontColor=#00BEF2" parent="1" vertex="1">
          <mxGeometry x="400" y="120" width="165" height="670" as="geometry" />
        </mxCell>
        <mxCell id="2022" value="" style="rounded=1;whiteSpace=wrap;html=1;dashed=1;strokeColor=none;strokeWidth=2;fillColor=#E6E6E6;fontFamily=Verdana;fontSize=12;fontColor=#00BEF2" parent="1" vertex="1">
          <mxGeometry x="580" y="120" width="165" height="670" as="geometry" />
        </mxCell>
        <mxCell id="2023" value="" style="rounded=1;whiteSpace=wrap;html=1;dashed=1;strokeColor=none;strokeWidth=2;fillColor=#E6E6E6;fontFamily=Verdana;fontSize=12;fontColor=#00BEF2" parent="1" vertex="1">
          <mxGeometry x="760" y="120" width="165" height="670" as="geometry" />
        </mxCell>
        <mxCell id="2024" value="" style="rounded=1;whiteSpace=wrap;html=1;dashed=1;strokeColor=none;strokeWidth=2;fillColor=#E6E6E6;fontFamily=Verdana;fontSize=12;fontColor=#00BEF2" parent="1" vertex="1">
          <mxGeometry x="940" y="120" width="165" height="670" as="geometry" />
        </mxCell>
        <mxCell id="2025" value="Event" style="whiteSpace=wrap;html=1;dashed=1;strokeColor=none;strokeWidth=2;fillColor=#3399FF;fontFamily=Helvetica;fontSize=18;fontColor=#FFFFFF;fontStyle=1" parent="1" vertex="1">
          <mxGeometry x="40" y="120" width="165" height="60" as="geometry" />
        </mxCell>
        <mxCell id="2026" value="Compute" style="whiteSpace=wrap;html=1;dashed=1;strokeColor=none;strokeWidth=2;fillColor=#3399FF;fontFamily=Helvetica;fontSize=18;fontColor=#FFFFFF;fontStyle=1" parent="1" vertex="1">
          <mxGeometry x="220" y="120" width="165" height="60" as="geometry" />
        </mxCell>
        <mxCell id="2027" value="Data&lt;div&gt;Services&lt;/div&gt;" style="whiteSpace=wrap;html=1;dashed=1;strokeColor=none;strokeWidth=2;fillColor=#3399FF;fontFamily=Helvetica;fontSize=18;fontColor=#FFFFFF;fontStyle=1" parent="1" vertex="1">
          <mxGeometry x="400" y="120" width="165" height="60" as="geometry" />
        </mxCell>
        <mxCell id="2028" value="Data&lt;div&gt;Storage&lt;/div&gt;" style="whiteSpace=wrap;html=1;dashed=1;strokeColor=none;strokeWidth=2;fillColor=#3399FF;fontFamily=Helvetica;fontSize=18;fontColor=#FFFFFF;fontStyle=1" parent="1" vertex="1">
          <mxGeometry x="580" y="120" width="165" height="60" as="geometry" />
        </mxCell>
        <mxCell id="2029" value="App&lt;div&gt;Services&lt;/div&gt;" style="whiteSpace=wrap;html=1;dashed=1;strokeColor=none;strokeWidth=2;fillColor=#3399FF;fontFamily=Helvetica;fontSize=18;fontColor=#FFFFFF;fontStyle=1" parent="1" vertex="1">
          <mxGeometry x="760" y="120" width="165" height="60" as="geometry" />
        </mxCell>
        <mxCell id="2030" value="&amp;nbsp; &amp;nbsp;Presentation" style="whiteSpace=wrap;html=1;dashed=1;strokeColor=none;strokeWidth=2;fillColor=#3399FF;fontFamily=Helvetica;fontSize=18;fontColor=#FFFFFF;fontStyle=1" parent="1" vertex="1">
          <mxGeometry x="940" y="120" width="165" height="60" as="geometry" />
        </mxCell>
        <mxCell id="2031" value="" style="shape=mxgraph.arrows.two_way_arrow_horizontal;html=1;verticalLabelPosition=bottom;verticalAlign=top;strokeWidth=2;strokeColor=none;dashed=1;fillColor=#FFFFFF;fontFamily=Verdana;fontSize=12;fontColor=#00BEF2" parent="1" vertex="1">
          <mxGeometry x="180" y="131" width="67" height="39" as="geometry" />
        </mxCell>
        <mxCell id="2032" value="" style="shape=mxgraph.arrows.two_way_arrow_horizontal;html=1;verticalLabelPosition=bottom;verticalAlign=top;strokeWidth=2;strokeColor=none;dashed=1;fillColor=#FFFFFF;fontFamily=Verdana;fontSize=12;fontColor=#00BEF2" parent="1" vertex="1">
          <mxGeometry x="360" y="131" width="67" height="39" as="geometry" />
        </mxCell>
        <mxCell id="2033" value="" style="shape=mxgraph.arrows.two_way_arrow_horizontal;html=1;verticalLabelPosition=bottom;verticalAlign=top;strokeWidth=2;strokeColor=none;dashed=1;fillColor=#FFFFFF;fontFamily=Verdana;fontSize=12;fontColor=#00BEF2" parent="1" vertex="1">
          <mxGeometry x="540" y="131" width="67" height="39" as="geometry" />
        </mxCell>
        <mxCell id="2034" value="" style="shape=mxgraph.arrows.two_way_arrow_horizontal;html=1;verticalLabelPosition=bottom;verticalAlign=top;strokeWidth=2;strokeColor=none;dashed=1;fillColor=#FFFFFF;fontFamily=Verdana;fontSize=12;fontColor=#00BEF2" parent="1" vertex="1">
          <mxGeometry x="720" y="131" width="67" height="39" as="geometry" />
        </mxCell>
        <mxCell id="2035" value="" style="shape=mxgraph.arrows.two_way_arrow_horizontal;html=1;verticalLabelPosition=bottom;verticalAlign=top;strokeWidth=2;strokeColor=none;dashed=1;fillColor=#FFFFFF;fontFamily=Verdana;fontSize=12;fontColor=#00BEF2" parent="1" vertex="1">
          <mxGeometry x="900" y="131" width="67" height="39" as="geometry" />
        </mxCell>
        <mxCell id="2036" value="" style="verticalLabelPosition=bottom;html=1;verticalAlign=top;strokeColor=none;fillColor=#003366;shape=mxgraph.azure.cloud_service;dashed=1;fontFamily=Helvetica;fontSize=18;fontColor=#FFFFFF;opacity=25" parent="1" vertex="1">
          <mxGeometry x="90" y="180" width="970" height="600" as="geometry" />
        </mxCell>
        <mxCell id="2037" value="" style="verticalLabelPosition=bottom;html=1;verticalAlign=top;strokeColor=none;fillColor=#3399FF;shape=mxgraph.azure.tablet;dashed=1;fontFamily=Helvetica;fontSize=14;fontColor=#004C99" parent="1" vertex="1">
          <mxGeometry x="66" y="401" width="50" height="37.5" as="geometry" />
        </mxCell>
        <mxCell id="2038" value="" style="verticalLabelPosition=bottom;html=1;verticalAlign=top;strokeColor=none;fillColor=#3399FF;shape=mxgraph.azure.mobile;dashed=1;fontFamily=Helvetica;fontSize=14;fontColor=#004C99" parent="1" vertex="1">
          <mxGeometry x="146" y="395" width="35" height="50" as="geometry" />
        </mxCell>
        <mxCell id="2039" value="Devices" style="verticalLabelPosition=bottom;html=1;verticalAlign=top;strokeColor=none;fillColor=#3399FF;shape=mxgraph.azure.laptop;dashed=1;fontFamily=Helvetica;fontSize=14;fontColor=#004C99" parent="1" vertex="1">
          <mxGeometry x="96" y="451" width="50" height="30" as="geometry" />
        </mxCell>
        <mxCell id="2040" value="Applications" style="verticalLabelPosition=bottom;html=1;verticalAlign=top;strokeColor=none;fillColor=#3399FF;shape=mxgraph.azure.mobile_services;dashed=1;fontFamily=Helvetica;fontSize=14;fontColor=#004C99" parent="1" vertex="1">
          <mxGeometry x="107" y="250" width="32.5" height="50" as="geometry" />
        </mxCell>
        <mxCell id="2045" value="Azure Website" style="verticalLabelPosition=bottom;html=1;verticalAlign=top;strokeColor=none;fillColor=#3399FF;shape=mxgraph.azure.azure_website;dashed=1;fontSize=14;fontColor=#004C99" parent="1" vertex="1">
          <mxGeometry x="278" y="258" width="50" height="50" as="geometry" />
        </mxCell>
        <mxCell id="2046" value="Mobile Services" style="verticalLabelPosition=bottom;html=1;verticalAlign=top;strokeColor=none;fillColor=#3399FF;shape=mxgraph.azure.mobile_services;dashed=1;fontSize=14;fontColor=#004C99" parent="1" vertex="1">
          <mxGeometry x="287" y="661" width="32.5" height="50" as="geometry" />
        </mxCell>
        <mxCell id="2047" value="Windows Azure Management Portal" style="text;html=1;strokeColor=none;fillColor=none;align=center;verticalAlign=middle;whiteSpace=wrap;overflow=hidden;dashed=1;fontSize=36;fontColor=#FFFFFF;fontFamily=Helvetica;fontStyle=1" parent="1" vertex="1">
          <mxGeometry x="40" y="50" width="1060" height="50" as="geometry" />
        </mxCell>
        <mxCell id="2048" value="Business&amp;nbsp;&lt;div&gt;Analytics&lt;/div&gt;" style="rounded=1;whiteSpace=wrap;html=1;dashed=1;strokeColor=none;strokeWidth=2;fillColor=#FFFFFF;fontFamily=Helvetica;fontSize=14;fontColor=#FFB366;opacity=75;verticalAlign=top;fontStyle=1" parent="1" vertex="1">
          <mxGeometry x="410" y="190" width="140" height="260" as="geometry" />
        </mxCell>
        <mxCell id="2049" value="Data&lt;div&gt;Management&lt;/div&gt;" style="rounded=1;whiteSpace=wrap;html=1;dashed=1;strokeColor=none;strokeWidth=2;fillColor=#FFFFFF;fontFamily=Helvetica;fontSize=14;fontColor=#FFB366;opacity=75;verticalAlign=top;fontStyle=1" parent="1" vertex="1">
          <mxGeometry x="413" y="460" width="140" height="320" as="geometry" />
        </mxCell>
        <mxCell id="2050" value="SQL Reporting" style="verticalLabelPosition=bottom;html=1;verticalAlign=top;strokeColor=none;fillColor=#3399FF;shape=mxgraph.azure.sql_reporting;dashed=1;fontSize=14;fontColor=#004C99" parent="1" vertex="1">
          <mxGeometry x="460" y="258" width="40" height="50" as="geometry" />
        </mxCell>
        <mxCell id="2051" value="HDInsight" style="verticalLabelPosition=bottom;html=1;verticalAlign=top;strokeColor=none;fillColor=#3399FF;shape=mxgraph.azure.hdinsight;dashed=1;fontSize=14;fontColor=#004C99" parent="1" vertex="1">
          <mxGeometry x="458" y="355" width="50" height="50" as="geometry" />
        </mxCell>
        <mxCell id="2052" value="SQL Database" style="verticalLabelPosition=bottom;html=1;verticalAlign=top;strokeColor=none;fillColor=#3399FF;shape=mxgraph.azure.sql_database;dashed=1;fontFamily=Helvetica;fontSize=14;fontColor=#004C99" parent="1" vertex="1">
          <mxGeometry x="464" y="600" width="37.5" height="50" as="geometry" />
        </mxCell>
        <mxCell id="2053" value="Tables" style="verticalLabelPosition=bottom;html=1;verticalAlign=top;strokeColor=none;fillColor=#3399FF;shape=mxgraph.azure.storage_table;dashed=1;fontFamily=Helvetica;fontSize=14;fontColor=#004C99" parent="1" vertex="1">
          <mxGeometry x="458" y="689" width="50" height="45" as="geometry" />
        </mxCell>
        <mxCell id="2054" value="Blobs" style="verticalLabelPosition=bottom;html=1;verticalAlign=top;strokeColor=none;fillColor=#3399FF;shape=mxgraph.azure.storage_blob;dashed=1;fontFamily=Helvetica;fontSize=14;fontColor=#004C99" parent="1" vertex="1">
          <mxGeometry x="457" y="523" width="50" height="45" as="geometry" />
        </mxCell>
        <mxCell id="2055" value="Storage Management" style="rounded=1;whiteSpace=wrap;html=1;dashed=1;strokeColor=none;strokeWidth=2;fillColor=#FFFFFF;fontFamily=Helvetica;fontSize=14;fontColor=#FFB366;opacity=75;verticalAlign=top;fontStyle=1" parent="1" vertex="1">
          <mxGeometry x="594" y="240" width="140" height="280" as="geometry" />
        </mxCell>
        <mxCell id="2056" value="Storage Servers" style="verticalLabelPosition=bottom;html=1;verticalAlign=top;strokeColor=none;fillColor=#3399FF;shape=mxgraph.azure.server_rack;dashed=1;fontFamily=Helvetica;fontSize=14;fontColor=#004C99" parent="1" vertex="1">
          <mxGeometry x="639" y="316" width="50" height="50" as="geometry" />
        </mxCell>
        <mxCell id="2057" value="Database" style="verticalLabelPosition=bottom;html=1;verticalAlign=top;strokeColor=none;fillColor=#3399FF;shape=mxgraph.azure.database;dashed=1;fontFamily=Helvetica;fontSize=14;fontColor=#004C99" parent="1" vertex="1">
          <mxGeometry x="644" y="414" width="37.5" height="50" as="geometry" />
        </mxCell>
        <mxCell id="2058" value="Physical&lt;div&gt;Data Storage&lt;/div&gt;" style="verticalLabelPosition=bottom;html=1;verticalAlign=top;strokeColor=none;fillColor=#3399FF;shape=mxgraph.azure.vhd;dashed=1;fontFamily=Helvetica;fontSize=14;fontColor=#004C99" parent="1" vertex="1">
          <mxGeometry x="643" y="590" width="40" height="50" as="geometry" />
        </mxCell>
        <mxCell id="2059" value="Identity" style="rounded=1;whiteSpace=wrap;html=1;dashed=1;strokeColor=none;strokeWidth=2;fillColor=#FFFFFF;fontFamily=Helvetica;fontSize=14;fontColor=#FFB366;opacity=75;verticalAlign=top;fontStyle=1" parent="1" vertex="1">
          <mxGeometry x="773" y="196" width="140" height="134" as="geometry" />
        </mxCell>
        <mxCell id="2060" value="Windows Azure&amp;nbsp;&lt;div&gt;Active Directorry&lt;/div&gt;" style="verticalLabelPosition=bottom;html=1;verticalAlign=top;strokeColor=none;fillColor=#3399FF;shape=mxgraph.azure.azure_active_directory;dashed=1;fontFamily=Helvetica;fontSize=14;fontColor=#004C99" parent="1" vertex="1">
          <mxGeometry x="819" y="225" width="47.5" height="50" as="geometry" />
        </mxCell>
        <mxCell id="2061" value="Performance" style="rounded=1;whiteSpace=wrap;html=1;dashed=1;strokeColor=none;strokeWidth=2;fillColor=#FFFFFF;fontFamily=Helvetica;fontSize=14;fontColor=#FFB366;opacity=75;verticalAlign=top;fontStyle=1" parent="1" vertex="1">
          <mxGeometry x="774" y="341" width="140" height="199" as="geometry" />
        </mxCell>
        <mxCell id="2062" value="Caching" style="verticalLabelPosition=bottom;html=1;verticalAlign=top;strokeColor=none;fillColor=#3399FF;shape=mxgraph.azure.azure_cache;dashed=1;fontFamily=Helvetica;fontSize=14;fontColor=#004C99" parent="1" vertex="1">
          <mxGeometry x="821" y="376" width="45" height="50" as="geometry" />
        </mxCell>
        <mxCell id="2063" value="Content&amp;nbsp;&lt;div&gt;Delivery Network&lt;/div&gt;" style="verticalLabelPosition=bottom;html=1;verticalAlign=top;strokeColor=none;fillColor=#3399FF;shape=mxgraph.azure.content_delivery_network;dashed=1;fontFamily=Helvetica;fontSize=14;fontColor=#004C99" parent="1" vertex="1">
          <mxGeometry x="819" y="455" width="50" height="32.5" as="geometry" />
        </mxCell>
        <mxCell id="2064" value="Messaging" style="rounded=1;whiteSpace=wrap;html=1;dashed=1;strokeColor=none;strokeWidth=2;fillColor=#FFFFFF;fontFamily=Helvetica;fontSize=14;fontColor=#FFB366;opacity=75;verticalAlign=top;fontStyle=1" parent="1" vertex="1">
          <mxGeometry x="773" y="550" width="140" height="229" as="geometry" />
        </mxCell>
        <mxCell id="2065" value="Queues" style="verticalLabelPosition=bottom;html=1;verticalAlign=top;strokeColor=none;fillColor=#3399FF;shape=mxgraph.azure.queue_generic;dashed=1;fontFamily=Helvetica;fontSize=14;fontColor=#004C99" parent="1" vertex="1">
          <mxGeometry x="820" y="576" width="50" height="15" as="geometry" />
        </mxCell>
        <mxCell id="2066" value="Service Bus" style="verticalLabelPosition=bottom;html=1;verticalAlign=top;strokeColor=none;fillColor=#3399FF;shape=mxgraph.azure.service_bus;dashed=1;fontFamily=Helvetica;fontSize=14;fontColor=#004C99" parent="1" vertex="1">
          <mxGeometry x="824" y="624" width="45" height="50" as="geometry" />
        </mxCell>
        <mxCell id="2067" value="Media Services" style="verticalLabelPosition=bottom;html=1;verticalAlign=top;strokeColor=none;fillColor=#3399FF;shape=mxgraph.azure.media_service;dashed=1;fontFamily=Helvetica;fontSize=14;fontColor=#004C99" parent="1" vertex="1">
          <mxGeometry x="821" y="703" width="45" height="50" as="geometry" />
        </mxCell>
        <mxCell id="2068" value="Cloud&lt;div&gt;Services&lt;/div&gt;" style="rounded=1;whiteSpace=wrap;html=1;dashed=1;strokeColor=none;strokeWidth=2;fillColor=#FFFFFF;fontFamily=Helvetica;fontSize=14;fontColor=#FFB366;opacity=75;verticalAlign=top;fontStyle=1" parent="1" vertex="1">
          <mxGeometry x="233" y="397" width="140" height="223" as="geometry" />
        </mxCell>
        <mxCell id="2069" value="Cloud" style="verticalLabelPosition=bottom;html=1;verticalAlign=top;strokeColor=none;fillColor=#3399FF;shape=mxgraph.azure.cloud;dashed=1;fontSize=14;fontColor=#004C99" parent="1" vertex="1">
          <mxGeometry x="278" y="449" width="50" height="32.5" as="geometry" />
        </mxCell>
        <mxCell id="2070" value="Virtual Machine" style="verticalLabelPosition=bottom;html=1;verticalAlign=top;strokeColor=none;fillColor=#3399FF;shape=mxgraph.azure.virtual_machine;dashed=1;fontSize=14;fontColor=#004C99" parent="1" vertex="1">
          <mxGeometry x="278" y="536" width="50" height="40" as="geometry" />
        </mxCell>
        <mxCell id="2071" value="Web Dashboards" style="verticalLabelPosition=bottom;html=1;verticalAlign=top;strokeColor=none;fillColor=#3399FF;shape=mxgraph.azure.laptop;dashed=1;fontFamily=Helvetica;fontSize=14;fontColor=#004C99" parent="1" vertex="1">
          <mxGeometry x="998" y="301" width="50" height="30" as="geometry" />
        </mxCell>
        <mxCell id="2072" value="Certificates" style="verticalLabelPosition=bottom;html=1;verticalAlign=top;strokeColor=none;fillColor=#3399FF;shape=mxgraph.azure.certificate;dashed=1;fontFamily=Helvetica;fontSize=14;fontColor=#004C99" parent="1" vertex="1">
          <mxGeometry x="998" y="399" width="50" height="40" as="geometry" />
        </mxCell>
        <mxCell id="2073" value="Enterprise&lt;div&gt;Services&lt;/div&gt;" style="verticalLabelPosition=bottom;html=1;verticalAlign=top;strokeColor=none;fillColor=#3399FF;shape=mxgraph.azure.enterprise;dashed=1;fontFamily=Helvetica;fontSize=14;fontColor=#004C99" parent="1" vertex="1">
          <mxGeometry x="1008" y="518" width="30" height="50" as="geometry" />
        </mxCell>
        <mxCell id="2074" value="Seminars" style="verticalLabelPosition=bottom;html=1;verticalAlign=top;strokeColor=none;fillColor=#3399FF;shape=mxgraph.azure.user;dashed=1;fontFamily=Helvetica;fontSize=14;fontColor=#004C99" parent="1" vertex="1">
          <mxGeometry x="1001" y="630" width="47.5" height="50" as="geometry" />
        </mxCell>
        <mxCell id="2075" value="" style="arrow;html=1;endArrow=block;endFill=1;strokeColor=none;strokeWidth=4;fontFamily=Helvetica;fontSize=36;fontColor=#FFB366;fillColor=#FFB366;" parent="1" edge="1">
          <mxGeometry width="100" height="100" relative="1" as="geometry">
            <mxPoint x="167" y="283" as="sourcePoint" />
            <mxPoint x="247" y="283" as="targetPoint" />
          </mxGeometry>
        </mxCell>
        <mxCell id="2076" value="" style="arrow;html=1;endArrow=block;endFill=1;strokeColor=none;strokeWidth=4;fontFamily=Helvetica;fontSize=36;fontColor=#FFB366;fillColor=#FFB366;opacity=100" parent="1" edge="1">
          <mxGeometry width="100" height="100" relative="1" as="geometry">
            <mxPoint x="347" y="283" as="sourcePoint" />
            <mxPoint x="427" y="283" as="targetPoint" />
          </mxGeometry>
        </mxCell>
        <mxCell id="2077" value="" style="arrow;html=1;endArrow=block;endFill=1;strokeColor=none;strokeWidth=4;fontFamily=Helvetica;fontSize=36;fontColor=#FFB366;fillColor=#FFB366;" parent="1" edge="1">
          <mxGeometry width="100" height="100" relative="1" as="geometry">
            <mxPoint x="527" y="360" as="sourcePoint" />
            <mxPoint x="607" y="360" as="targetPoint" />
          </mxGeometry>
        </mxCell>
        <mxCell id="2078" value="" style="arrow;html=1;endArrow=block;endFill=1;strokeColor=none;strokeWidth=4;fontFamily=Helvetica;fontSize=36;fontColor=#FFB366;fillColor=#FFB366;" parent="1" edge="1">
          <mxGeometry width="100" height="100" relative="1" as="geometry">
            <mxPoint x="714" y="426" as="sourcePoint" />
            <mxPoint x="794" y="426" as="targetPoint" />
          </mxGeometry>
        </mxCell>
        <mxCell id="2079" value="" style="arrow;html=1;endArrow=block;endFill=1;strokeColor=none;strokeWidth=4;fontFamily=Helvetica;fontSize=36;fontColor=#FFB366;fillColor=#FFB366;" parent="1" edge="1">
          <mxGeometry width="100" height="100" relative="1" as="geometry">
            <mxPoint x="714" y="270" as="sourcePoint" />
            <mxPoint x="794" y="270" as="targetPoint" />
          </mxGeometry>
        </mxCell>
        <mxCell id="2080" value="" style="arrow;html=1;endArrow=block;endFill=1;strokeColor=none;strokeWidth=4;fontFamily=Helvetica;fontSize=36;fontColor=#FFB366;fillColor=#FFB366;" parent="1" edge="1">
          <mxGeometry width="100" height="100" relative="1" as="geometry">
            <mxPoint x="887" y="438" as="sourcePoint" />
            <mxPoint x="967" y="438" as="targetPoint" />
          </mxGeometry>
        </mxCell>
        <mxCell id="2081" value="" style="arrow;html=1;endArrow=block;endFill=1;strokeColor=none;strokeWidth=4;fontFamily=Helvetica;fontSize=36;fontColor=#FFB366;fillColor=#FFB366;" parent="1" edge="1">
          <mxGeometry width="100" height="100" relative="1" as="geometry">
            <mxPoint x="894" y="664" as="sourcePoint" />
            <mxPoint x="974" y="664" as="targetPoint" />
          </mxGeometry>
        </mxCell>
        <mxCell id="2082" value="" style="arrow;html=1;endArrow=block;endFill=1;strokeColor=none;strokeWidth=4;fontFamily=Helvetica;fontSize=36;fontColor=#FFB366;fillColor=#FFB366;" parent="1" edge="1">
          <mxGeometry width="100" height="100" relative="1" as="geometry">
            <mxPoint x="707" y="639" as="sourcePoint" />
            <mxPoint x="787" y="639" as="targetPoint" />
          </mxGeometry>
        </mxCell>
        <mxCell id="2083" value="" style="arrow;html=1;endArrow=block;endFill=1;strokeColor=none;strokeWidth=4;fontFamily=Helvetica;fontSize=36;fontColor=#FFB366;fillColor=#FFB366;" parent="1" edge="1">
          <mxGeometry width="100" height="100" relative="1" as="geometry">
            <mxPoint x="534" y="624" as="sourcePoint" />
            <mxPoint x="614" y="624" as="targetPoint" />
          </mxGeometry>
        </mxCell>
        <mxCell id="2084" value="" style="arrow;html=1;endArrow=block;endFill=1;strokeColor=none;strokeWidth=4;fontFamily=Helvetica;fontSize=36;fontColor=#FFB366;fillColor=#FFB366;" parent="1" edge="1">
          <mxGeometry width="100" height="100" relative="1" as="geometry">
            <mxPoint x="347" y="536" as="sourcePoint" />
            <mxPoint x="427" y="536" as="targetPoint" />
          </mxGeometry>
        </mxCell>
        <mxCell id="2085" value="" style="arrow;html=1;endArrow=block;endFill=1;strokeColor=none;strokeWidth=4;fontFamily=Helvetica;fontSize=36;fontColor=#FFB366;fillColor=#FFB366;" parent="1" edge="1">
          <mxGeometry width="100" height="100" relative="1" as="geometry">
            <mxPoint x="174" y="688" as="sourcePoint" />
            <mxPoint x="254" y="688" as="targetPoint" />
          </mxGeometry>
        </mxCell>
        <mxCell id="AaEPliW05S_F7qjuPCK2-2153" value="Social" style="verticalLabelPosition=bottom;html=1;verticalAlign=top;strokeColor=none;fillColor=#3399FF;shape=mxgraph.azure.user;dashed=1;fontSize=14;fontColor=#004C99" parent="1" vertex="1">
          <mxGeometry x="102" y="690" width="47.5" height="50" as="geometry" />
        </mxCell>
        <mxCell id="AaEPliW05S_F7qjuPCK2-2196" value="" style="rounded=1;whiteSpace=wrap;html=1;strokeColor=#7EA6E0;strokeWidth=1;fillColor=#dae8fc;fontFamily=Verdana;fontSize=12;opacity=50;" parent="1" vertex="1">
          <mxGeometry x="34" y="1383.0414201183432" width="1097.4349627174815" height="113.96449704142012" as="geometry" />
        </mxCell>
        <mxCell id="AaEPliW05S_F7qjuPCK2-2192" value="" style="rounded=1;whiteSpace=wrap;html=1;strokeColor=#7EA6E0;strokeWidth=1;fillColor=#dae8fc;fontFamily=Verdana;fontSize=12;opacity=50;" parent="1" vertex="1">
          <mxGeometry x="34" y="1183.603550295858" width="1097.4349627174815" height="180.44378698224855" as="geometry" />
        </mxCell>
        <mxCell id="AaEPliW05S_F7qjuPCK2-2190" value="" style="rounded=1;whiteSpace=wrap;html=1;strokeColor=#7EA6E0;strokeWidth=1;fillColor=#dae8fc;fontFamily=Verdana;fontSize=12;opacity=50;" parent="1" vertex="1">
          <mxGeometry x="34" y="984.1656804733727" width="1102" height="180.44378698224855" as="geometry" />
        </mxCell>
        <mxCell id="2041" value="Developer" style="verticalLabelPosition=bottom;html=1;verticalAlign=top;strokeColor=none;fillColor=#3399FF;shape=mxgraph.azure.user;dashed=1;fontSize=14;fontColor=#004C99;shadow=0;" parent="1" vertex="1">
          <mxGeometry x="184.41797845898924" y="893.9437869822485" width="43.36785418392709" height="47.485207100591715" as="geometry" />
        </mxCell>
        <mxCell id="AaEPliW05S_F7qjuPCK2-2158" value="CI Pool" style="verticalLabelPosition=bottom;html=1;verticalAlign=top;strokeColor=none;fillColor=#3399FF;shape=mxgraph.azure.virtual_machine;dashed=1;fontSize=14;fontColor=#004C99" parent="1" vertex="1">
          <mxGeometry x="599.6081193040598" y="898.6923076923077" width="45.65037282518641" height="37.98816568047338" as="geometry" />
        </mxCell>
        <mxCell id="AaEPliW05S_F7qjuPCK2-2159" value="" style="shape=image;verticalLabelPosition=bottom;labelBackgroundColor=default;verticalAlign=top;aspect=fixed;imageAspect=0;image=data:image/png,iVBORw0KGgoAAAANSUhEUgAAAQ4AAABWCAYAAAA+G3iLAAAACXBIWXMAABYlAAAWJQFJUiTwAAAHDUlEQVR4nO3dPVbjPBSHcc17ZhFDOSyBHE5CtkFHz0dFirCMpAhVBno6tmGSwwlLoGUZ8xaMZoxzZevaki07z6+aCSE2ifW3LF8p3378PPltAEDhv653AED/EBwA1AgOAGoEBwA1ggOAGsEBQI3gAKBGcABQIzgAqH2v80t3s5vQ+9E7i9W6610AOqMOjulkZOazyxj70hvZZtf1LgCd4lIFgBrBAUCN4ACgRnAAUCM4AKgRHADUCA4AagQHADWCA4AawQFAjeAAoEZwAFAjOBI2nYy63gVAVGtaPeJ6fnoQQyM/K/dl+7b/8+2r+FwgNIIjMXezG2dPI/+49Jy5kZc7WK4ejTF+a4jY153fXpuX7ZvJtq+EEPb0IjikM+3Z+MQYM7zuvP27QrLrp1QFx3QyMs9PD1/+PzeX5vziivDAF0kHx3L16HXGu5vdHPziQiFMx6fi4/Pba5NtrlreG6QsyeDQnuEWq7VZrNbmbnZjzsYng+uFhODzfsbo7WCYkgqObLMzy/tftbvFtive5x7Iy/bNOTCaHxDND4Tan1sf7/vvnzSY6rttoCiZ4Mg2O3N+EaY7bAOkr+Ehedm+eS+QnG12BACiSqKOY7l6DBYa1mK1/ns3oU+KPYkU+PRWcFiSCI5YXzWwWK25G/CHTyClGFpIU+eXKrF7Bcv7X2Y6eah+YuI0jVoaq2gzQKeTkZnfXv/dh+XqUTw5TCcjMx2fOk8cxdexin9LVTGc9DuSYuGd9Ds+2/LdXn67xpha23ZtX7sPWtGCwycQ2iguyjY773Aayh2ZbPv6pRis7V5XvhbEmM+xpuJnnR/Ans/kWpHp+FT8PIqPaYvhpKCSCu98tl22LWP+DWq7wtFV8Of7WNX2JZqCQJdowZHSN5357kvxgO+Cq5FPx6feAWDD0t5eXd7/kl8zd0Yve+1ioNYJovz+S3e9pFqRGIPbUojFNJ2MzHQyMmfjE3Ecr4sBfN+CwDKdX6rAT/4A8/nAfZ6Tvwwo62l9HvxyqLrO4C6ueTiuW9BNeoCa3y/20trS1ztgBEeCXAdTvmuvbbCSEAfsfHap6tG5tul7OWlrfaTHJcUyetdzNb05SX78ocsyAGn/YgQTwdFT89ll4wAJcbaTGrz0umWNKdvsvAd/X7Zv0S4zjo5HzS/J/szvacpOt9h7/fGp+F6WVVvHKIgkOBKkuROUDxBjdNetvpWi9oCUKlebNuIQPaeQYoWSphYm2+yc70m22SVR2EhwJMgObmoOkDqXMXaOjw2PbLMTy9WbTANwaTq9YMhCF9zFGL9JogAM+xartTk6Hpnzi6vPbquigc1nl+bjfWfuZjdez882u1YbsK0Urtqmb81EmeI2Uguqrqpym74PBEfibLf1/OLKHB2PVCGiDZCyfQjBzkdK6dIktK6Cqe3tcqnSM/lGZwOh6pKm7doFSWpjGRJb12LFqBINIYVbuARHj9mGaNciMcYdIm0uxiOWvAeaB5O/taopy676uXTnQVslWmZo84AIjoEItZRArLNZnbNy1aCepiy7SleLGHVVeNYUYxyJsQVLH++fdzienx5UYxQ+BUrYl9L7E7p3UqdnVoUeR0KkKkc716HrMYpD5dPoig1dmtE7NNGCw2fCmGZVqybsWqRVUv6wCY1mqmapSpcMdVelm9/W2sXaujg2ogWHTyO0z4kZHn1afzTEAeBcs7Rm9zfG2EQTri+lSuFuR5mQ+5LC2rCdX6rEvlXYl9CAn9BLTKKeJAZHY62D0bTwKRWaUG06sBZjkDClM79G3fdCOy/F57GmQr9mEsFhzOeS/iG7X89PD73sbcRqZH1svH3c575oeoJJJjiMMepbjxJ7Z6Lra0D0S59Cqtjou7iV3PkYR5F2pSvLtbDtUBQDta1vpk+qvqHlxl26hkjJYGzXa762IbngMObfB3Y2Pin9xvT8N6sPJTCkEXNby5GnuWuhHSPJv7bUeKrW4ojVUIp1Lr6rfjfZH2cJfw+rPUNKMjgs22Ck9B5KULShaa9hb2Hh3OdRd3q8r2IJvOvfrv2TuCbcxSq3r/r725i0FvoWblJjHD6ks++Q9G0ylOsb7lM2n10mewz59I721hipccywHsfAxFhpSzNWFHLtjVS1uXCRz/uf75H49s7sUpG+67OEHhNL+lLlUEnLBpZ9e1noqsn89qsqNV3bseumaoPL9TpFMb5lTdqW76TBJp9BflzJt/dgl330lV+OMsSA97cfP09+a35Bmoh1aOrOYUB9VV8ahXZxqYJeIDTSQnAAUCM4AKgRHADUCA4AagQHADWCA4AawQFAjeAAoEZwAFAjOACoERwA1AgOAGq1ptXbtQAOVd8W2wFCU0+rBwAuVQCoERwA1AgOAGoEBwA1ggOAGsEBQI3gAKBGcABQIzgAqP0PD40R3zWE+RUAAAAASUVORK5CYII=;" parent="1" vertex="1">
          <mxGeometry x="773.0012676056339" y="908.9223076923076" width="114.65547638773819" height="36.520298260149126" as="geometry" />
        </mxCell>
        <mxCell id="AaEPliW05S_F7qjuPCK2-2160" value="" style="shape=image;verticalLabelPosition=bottom;labelBackgroundColor=default;verticalAlign=top;aspect=fixed;imageAspect=0;image=data:image/png,iVBORw0KGgoAAAANSUhEUgAAArQAAAD8CAYAAACGqjfyAAAACXBIWXMAABYlAAAWJQFJUiTwAAAgAElEQVR4nO3daWBV1fU28IcQMpJ5uENCUGbCGKZSFWcRQWRQwdYJqbWDf1vbKlKlWmm1itSq1Q5Otba+VqpIQUGxVkHUimJE0AAyJnfMTELmkPt+oCDDnZKz99nnnPv8vkmSfZaQwLrrrr1Wr0AgEAARERERkUnFqQ6AiIiIiEgLJrREREREZGpMaImIiIjI1JjQEhEREZGpMaElIiIiIlNjQktEREREpsaEloiIiIhMjQktEREREZkaE1oiIiIiMjUmtERERERkakxoiYiIiMjUmNASERERkakxoSUiIiIiU2NCS0RERESmxoSWiIiIiEyNCS0RERERmRoTWiIiIiIyNSa0RERERGRqTGiJiIiIyNTiVQcgw3OrPsa2XT7VYZjeqCF2LJg9sVtfs3TpUvz973+XFNGpJk2apOvziIiIyHgsl9CWlnmwYm2p6jBi2ldffaXrs6677jpMnTpVt2cSERGRsViu5eDva7aoDoF0ds8996gOgYiIiBSyVEL73KqPUbbbqzoM0tl///tfPProo6rDICIiIkUsk9Cy1SC2Pfjgg2hqalIdBhERESlgmYSWrQaxzev14vbbb1cdBhERESlgiYS2tMzDVgPCH//4R3z00UeqwyAiIiKdWSKhZXWWjvrFL36hOgQiIiLSmekTWlZn6XhvvfUW/vKXv6gOg4iIiHRk+oSW1Vk62X333ac6BCIiItKRqRNajumiYPbs2YPFixerDoOIiIh0YuqElmO6KJRly5Zh586dqsMgIiIiHZg2of3ZsjWqQyADCwQCuPPOO1WHQURERDowZULLi2AUjZUrV2LlypWqwyAiIiLJTJnQ8iIYRWvp0qWqQyAiIiLJTJfQsjpL3bF161bcf//9qsMgIiIiieJVB9BdrM5Sdy1fvhwLFy6E3W5XHQoRkSU99fJm7NjjF3LWfbdOQ1JiHyFnGd3dv1+PpuY24efOumgUzh53mvBzjcx0Ce2oIXaMGsLExKgSEhLwq1/9SnUYp3j66aexZMkS1WEQEVnSR58dgKeyTvM5SYkJMZPMvrhuKz7Ztl/4uYkJfTCxuED4uUZnuoR2weyJqkOgMDj/lYgo9viq64Wc48zPEHKO0dU3tuKfkkaPzjhvJJKTYuNFwfFM10NLRERExuGtakRXV0DIWY68dCHnGN2fXvovWtvahZ/bp0885l8yWvi5ZsCEloiIiHqswi+mOgsABQ7rV2jL9lZi4+ZdUs6++KxhSEtJlHK20TGhJSIioh5z+QQmtHnWT2gf+etGKef27h2HeZeMkXK2GTChJSIioh7zVDYIO6vQbu2E9vWNO1DhrZVy9vmThyI3M1XK2WbAhJaIiIh6zO0Tl9D2d2YKO8tomlvb8fzKzVLOTugTj2tnjZNytlkwoSUiIqIe81SKaTlIS0lCSlKCkLOM6LlVW9DY3Crl7MsvGRvT1VmACS0RERH1UFdXAFW1jULOstus227grmzA2ne3Szk7OyMV375krJSzzYQJLREREfVIhf+gsLMcFr4Q9sjz7wkbbXaym751Jnr3ZjpnusUKRERaPLfqY9UhkEXNPK8YORmx9bZvhVfghANbmrCzjOTVt7fji11uKWePGOyMuRW3oTChJaKY4atuxApJ23mILp8aewPtXZXiKrQFFmw52LrTh6de+kDa+WdNGIDSMo+080WJi+sFW05f2HPlvWhhQktEMWO/V/uueaJgstJTY3KgvccnLqHtZ88SdpYRVNc34f4/vSX1GX9+cZPU80WLj++NfvZsTC4pwuwLRgr9mWHTBRHFjHKPuLdHiY5X6LBWMhYtt8AKbT+LVWjveexNNDa1qA7DUDo7D2OfqwovrtmC7y5ZgR37qoSdzYSWiGKGS2C/H9Hxiiw8PzUcn6CENiMtBUmJ1nnT+IGn38U+V7XqMAyt4VAL7n50HeoaxCT9TGiJKGZUCFzRSXS8/s5s1SHorrWtE3UNzULOcuSnCznHCF59ezs2bt6lOgxTONTcir+sFHNRlwktEcUMj8ARQ0TH618Qey0H5QL7Zwts1qhwb9st9xKYFf37gx1CzmFCS0QxobG5jf1sJM3AGExoXX5xlyytUKGtrm/Cr5+QewnMqtyV2tcnM6Elopiwz8UJByRHVnoqUpKtu7I1FJfAdzyc+ea+EHb4cBd+8QgvgfVUR8dhzWdYpwObiCiMAxzZRZLE7IQDr/aq2lFFJp5w0Nbeibt/vx4HPLwE1lO9e/fWfAYTWiKKCS6B/X5Ex+sfoxMOPAJHdhXazfl72Nzajjseeh17KsSNn4pFyUlMaImIolLhYYWW5CiKwQkHAOD2i5kakp2RioQ+5uuAPNjYitsfeg0uX63qUEwvJ1P7ymilCe3Plq1R+XiisH67aKbqEEggUf/4Ep1sQGHstRw0NLWhta1dyFlOE044qK5vwh0PvQZvFd/50SotJQm9BJyjLKF9btXHKNvtVfV4ooieW/UxFsyeqDoMEqC9owtVtY2qwyCLGlAYexXaAwKXlDjyzDXhwFvViNuXrUbtwSbVoViCU1C7iZKEtrTMgxVrS1U8mihqR79HmdSaXzkXKpAk2RmpSErsozoM3bkF/kwVmOhC2O6KWix5+HU0cJqBMIP75wo5R0nTyt/XbFHxWKJu4wsvazjgYY8bydHPEXvVWQBw+cRNODBLQvvl3kosXr6Gyaxgk8eeJuQc3Su0pWUethqQqbD1wPy48pZkKYrBhQoA4KkU9zPVz278hHbLFy7c+8Sb6OzUPi81nBnnjURqsvqKf4X3ID4s3Sv9OTmZfTFuuFPIWbontKzOktmsWFvKhNbkXB4mtCRHkYFHdpV761FT3yzl7P1uce96+Goaux1nXFwcsjISkZshf6nFxi378MCf5W8A+8G3p2DmucOlPyca/upGXRLa2ReOEnaWrgktq7NkVqzSmptb4EYjouOdXmDcloM/v/RflH5ZrjqMiH752DpNX5/QJx7Zmak4vTAHl55bjBJBFb/2jsN4+pXNeO0/24ScF853559hmGT2YGMr7tVhhW9Wegoun2rShPau372m5+OIhOEFMXNzC3x7lOh4pxm4QusVuPjAyNo7OuGrOghf1ZG3yS86czh+cv0UTWdu2+3Hw8++A3+1uF7hUK6eNRFzLhgp/TnR2Oeuw5JH1qJOhwkO3541Qeh5uiW0z636WK9HEREdU9/YisH981WHoVztwSap/zg787OQkZYk7XwjSuubhJQkuW93a+Grjo2E9mRvvV+GrIykHhUg2jsO45mVH2PN259LiOxUV04vwdUzSnR5ViSbt1fggT+/LWy+cDiTx56OGVOGCT1Tl4SWY7rIClilNafMtCT89g4uyXhu1cdS/x6++eozhb3VS9q5/LE9d3nF2lJccvZw2LL7Rv0123b78Ntn3kFljT6/d3OnluAGg/x78urb2/HUSx/o8qz+zlws+s55ws/VZWwXL4KRVfCFGZmVyDFLwTht5hqOb3WuSq56fr90f1Sf19beicdf+ACLH1qjWzK74PLJuPEK9clsIBDAYy9s0i2ZdeZn4cHbZyApUXw9VXpCy4tgZDVsnyEz8lXJTWi7Uwkj+TyV8ns/jW7nnqqIn7N1pw833f1PrN2wHYFAQIeogIVXTMa8i0fr8qxwWlo7cOfv3sAbG77U5XmF9mwsXzQT6amJUs6XntCyOktWwyotmZHMnfPO/NicxWpkHk72wMFD4RcgvPTGVvz8t6t1XYt907fOxBVT1SezVXVN+PH9/8LWHRW6PG/4IAceufMyZKbL67OX2kPL6ixZFcd4kZk0NLWhpVXeRQ97Xpq0s6lnPH5WaDsiLEFY+64+lcmjkpMS8N7mvXhvc/D5rudOHoSZ58gf3bVjXxV++fs30BAh4Rdl8tjTcfcPL5L+HKkJLauzZFW8IEZm4pK8Kc2Rz/5Zo5FZkTeLw4e7Qn7MV92oa2UWAFpa21G2J3SRr2yPF25/A74/7xvSYnj3k31Y9qT8GbNHXXxWMX583Vm6PEtaQvvcqo9ZnSVL27bLpzoEoqi4JFfrnExoDUeP+alG1zcldK/mli/dOkYSvdX/3gq3rx53fe98JCWKW4Hb3nEYT674CGs3bBd2ZiTfmjke184cr9vzpPTQckwXxYKy3V5eECNTkL1YghVaY3GxfxbAkTnBoZQaNKEFgC3bD+CWX6+Cr1pMBXnX/mp8755/6pbM9urVC7cuOE/XZBaQWKGdN90Yg4KJiGKdR/LIrkJeCjMUV4xsCIskIy055Me27TBuQgsAbn8dbl76Cu646QJMGtmvx+f8dfUneOm1TwVGFtmd35+KM0v66/pMQFJCWzLcyQHbREQGIXtkV6GNl8KMhBMOjrDlpAb99d0VtWhsbtU5mu5raW3HLx9bh6tnTez2NjF3ZQMeePI/2FNeKSm6U6WnpeDeW6Zh6Gm5uj3zeLqtviUiIjVcEi8I5WUzmTUaNyccAADsecFbYT790qVzJNq88K+PccBVizu+ez56x/WK+Pmvvr0df125Ge0dnTpEd8Sgonws/dE0qWO5ImFCS0RkYQcbW9EmdWRXhrSzqWc4susIR27wF1tbd3h0jkS7TVv2wF97CL/+8TSkhbjsVnOwCQ889S6+2KVvO8WUCYOx6MZzo0q2ZWJCS0RkYW7J/ZTOEFUwUkfryK6s9NSQ1c3mlnYc8NRoOh8Axo/sj4FF2af8eiDQC5u3luOAp1rzM0J9b375ldgJTIkJfdDW3iH0zGC+2ufH9+95GYu/dwFGDbKf8LF3Pt6Lx/+2Ueq86WBunPdNzL1wlK7PDIUJLRGRhcl++5kTDoynskbbn/n0c0fg6kvHBv3Yxi378MCftc8xvfS8YnxjVPDLTjfMmYBfPPYmtmw/0OPzs9JTkdCn9ym//sUev7Dks78zB3fcdD7aO7pw96NrdVlUUHewCXcsW31sJFZjcxsee34T3v90j/RnHy8tJQl3/uAijBnq0PW54TChJSKyMNkD9jmD1lhEjOyy5fUN+TGvoAuGBRG+b3r31jZVNC8n+P/DJ1+IWfU6Z+pYfPeKScf++3c/n427HlkLn04LLV5cswWlX7rhr2pEXUOTLs88qr8zF/f+aCrys0N/n6ggZQ4tEREZg8sn9x/YAht7aI2kQkBCG66NxFspJqGN1Kri15g4h0q2Pi/T1m6Qk9kXDy667IRkFgAceWl45M7ZGHxavqbzu2PHHp/uyezUM4fj0btmGy6ZBVihJSKyNFEJSCiRKm2kL4+AFzDhkk0Rw/5zs9IQF+ECkdZlILYg35ftHV3Yta/nGx7PnTwUt3z7DCQnBd/glZ6aiIdun4nlz76LTVv0bQGQLTkpAT++/hycPf501aGExISWiMjC/DXy9tVnZQTvUyR1PBorm4lJCchMCz16ScRKXUd++Kr+wcZWdHYe1vaM3FMT2s92unG4K9D9s/Iy8H/XTIlqvn5Cn96483sX4B9v5OL5lR91+1lGNPi0fNz5/QthM2BV9nhMaImILKqxuQ2HJA6QtwdJGkgtrSO77NkRWgFEJLQhxmkdpTUpD/WM0i+7N64roU88rpoxDldND35BLpyrpo3BgMJsPPDnt9Hapu/kAZEuv6QE35kzUXUYUWFCS0RkURWS+2dtHNllON4qjW/V54VONr1VYqr9wdoBjucWkdAG+f/YWhb9fNazxg/ED751BrLSQ6/PjWTSyH54bMkcLHlknebJE3rLSEvB4psuxJih9sifbBBMaImILMot/UIYE1qjqdTYYuIIdyFMQP8sELnv2l91SPMz7CdVaBub27DfHXm27aihhbhh7kQMOz1PcwwAUGjLwON3z8XSJ97Cdp0XHvTU5LED8JMFU0IucDAqJrRERBblljxCKFgVjNSp8GmvAoYb2SVqSYczwnY5rc/Jzzn1+3LLl+GTyaEDbLjxyskYMdCm6dnB9E1OwAM/nY4nXvwA6zZ8Ifx8UVKSE3Hr9efgrHGnqQ6lR5jQEhFZlMcv70IYABTmZ0o9n7rHpXEyABBhwoGgloN+drl9urbcUxPmz0IktP2dObhm1gScWdJf0zMjiYvrhVuuPhMDinLwxN82Sn1WT4wd3g8/W3gOcjJSVIfSY0xoiYgsyid57W0hWw4MRcTIroIwEwh8AnpbM9JSkJgQPvWo1NjaYAuyVOHzHSdeCBs5pABXTBuNSSODbyuTZcaUYRhQkI2lT6zHwcZmXZ8dTFJiAr4zbzJmTBmmOhTNmNASEVmUiBvpoaSnJiMlOUHa+dR9IqYDhOtv9QvoobVH0aZSU6+th/bki21VdYfgqz6S7E+ZMBhXXjIGg/pla3qGFsMH5OPxu+fi1vtWaf5/1aJ4kAO3LzwXtghTJ8yCCS0RkQUdamlHo8SRXeFuw5MaWkd2Bes9PZ7WC2cAYI/QPytida/jpGd8sacSl10wGpdPHYW8rFTN52u1Y18lnnl5s9Jkdv6l43D9ZROUPV8GJrRERBbk8mnvpwwnWJ8iqeXVeAkwPyd0dfZQS7uQmcaO/PBJs1vAZjtH7oktB+dOGIBzJwzQfK5W+911eOrlj1D6RbnqULB+406MHOTA+OIC1aEIw4SWiMiCKrxy+2ed+cbeGhRruroCqK7TVkE9edTV8VyCRsA5wiTNAOAR0PcdbEuYSv7qRjy78hNs2rIbgUD3N5XJUNfQhF888jouOnM4fnDVZCQlBl/nayZMaImILEhrtS4SJyccGIqrsh5dPVjrejx7mP5ZYTNo7eEr+75qbW/DJyb0QWZ66NW9eqpraMFfX/0E698vUx1KSG+9X4ZPv6jAT244F+OiWO1rZExoiYgsyC15ZJcjwnB80pdLwAzacEsVRFROAaAgwnY5r8aWg7xs9b3dzS3teOH1z7DmP9vQ2XlYdTgR1dQfwpLfvYZp5xTj+/O+iYQ+vVWH1CMRE9rnVn2Mbbt8esRCAEYNsWPB7O7vTZ4zZw5WrVoFABg8eLDosEiAr776CgCwbNky3H777YqjIas7eqtbln429tAaidZEEAifbPoFzKBNTkpARlr46qn2GbTqEtq29k6sWP85Vv97G5qa25TF0VNvbPgSpV+4sOjG8zF8QL7qcLotbEJbWubBirWlesVCOJLQanU0cSJjWrZsGRYuXIicnBzVoZCF+QQkOKEkJPRBZoTEhPQlYitcuLnCIloObBH6ZwHtkxSiGQsmw6p3vsCLqz9FY1OLkueL4q9uwM8eWIUrLxmHG+aYawpCXLgP/n3NFr3iIIoZ1dXVWLRokeowyMKaJY/scnDCgeG4NbYcpKYkhp0r7BeQMEdKNusaWtDW3qHpGcGWKsgSALD+/V24fvGLePLF902fzB7vn+s+xY1L/oltu83zDn3IhLa0zIOy3V49YyGKGc8++yw2bNigOgyyqHLJI7tUVcEoNK/GHtf87NDV0yMTFLTPTHWE2UIGiFkMcfIMWlk2fbof37v7ZTzy13dRVSu3X10VT2Ud7li2Gvc/+Q7qG+S9QBYlZMsBq7NEci1ZsgTvvfee6jDIgkSNWAolUmJC+hIxsitc76mnSswCgHCXzgDtiyEAwCG5h3brTh+efOlD7HNVSX2OkWz65Cts2X4A375sPOZeMBK9evVSHVJQQSu0rM4Sybdp0yY88cQTqsMgC/JKXHkLAAVhei1Jf65K7RV5Z5hLfqIuGBZGuEjorRFwsU3S9+au/dX4+cPr8PPfrlaezKanpej+zJbWdjyz4kP88N6V2Lm/WvfnRyNoQsvqLJE+fvOb36C11fhv5ZC5uLxyE1pnhEob6atCwJ+3LTd076lL0MguZ4QtYd5KbVXmtNRkJCaInUa6dacXdz3yBn7ym5XYuqNC6NndlZ6WgpuvORsv/vYa3Dj/DCUxHPDU4Cf3r8Qf/vEh2to7lcQQyil/8s+t+pjVWSKduN1u3HbbbXj88cdVh0IWIntkV6GdCa2RiFiiURimjcQvqOUgPzv8ha1KjZMU8nPEtRu8X3oAL71eit3llcLO1GLO1LG4dmbJsY1ecy8YiZGDHLjvj+uV9PC+9p9t+ODTffjRdVMwaWQ/3Z8fzCkJLcd0EenriSeewPXXX4+JE7s/f5goGJ+AmaHh5GVx7a2RiOg9dYa56Kf1whkAFNiyIn6OEWbQvrZhB1a9tQ2eyjrNZ4lw8VnF+PbMEuRlpZ7ysSH9c/DHey7HQ89uwEdb9+keW239IfzysXWYPHYAbr76m8jJODVGPZ2Q0P5s2RpVcRDFtLvuugvr169XHQZZQHNLu9TxQdEkJqQvt4CZw+GSQb/GdbSRzj+q9mCTpmfYc3v2zkFrWyfWbdqBV97YqjkGUc4YNxAL5kxCoS3871tKcgLuufkivPr2djz10gc6RXei/362F6U7XLj2svGYe+EoJTEAxyW0vAhGpM5bb72FZ599FgsXLlQdCplcueQJB3b2zxqO1gqqLUIi6BXQwhJpVfIBr/aLbba87r1z0Njchpff3IbV72xHW2u75ueLMGXCYFw7a1zEC3Qnm3PBSIwc7MBv/vRv6S1HwbS1tuPpFR/ijY078dMbzsaw0/XfNHYsoeVFMCK17rvvPia0pJlHQD9lOOFuw5MaWkd22cMsyjjY2Ip2jcsOgMgJrYjJHAVRjpPzVzdixZuf4633d6Cz87Dm54pw1viBuGbWOBTZe/4OyOCiHPzp3ivwh//3Ada/XyYwuui5fLX46W9WYepZw/GdKyYhLSVRt2fHA6zOEhnB3r17cfvtt+Ohhx5SHQqZmNsvuUIb5jY86a9cQGXTHqYdwC1g2QEQzQxa7d+3kbaElXvr8f9eL8XGzcZZD3/BGcPwrelj4YyQ8EcroU9v3Hr9FIwb1Q+P/XUDmlvahJzbXes3leHDT/fh2jmTcOk5w3R5ZjzA6iyRUSxfvhwLFizAiBEjVIdCJuX2y70QVsAKraG4BCSC9jDjtERs7wKAwvzMsB8XcZGxIERS+NkOL15Z/zm2bD+g+RmiTJtSjKtmjI04+aGnzh53GooH5OGBJ/+DLxUVLBubW/GHFzbi7Q934kfXno3TC+T238dzTBeRsfz85z/H6tWrVYdBJuWX3D8X7du6pA+PgAkE4aqnXkEJbb8Io968GhPa3KxTk/KNn+7Hy2s/M8zorYQ+8Zh2djGunDYaORnylyPkZqZi+aKZeHHdVvzt1Y+kPy+UnXv9uPnef2LGeSNxw5wJSElKkPKceI7pIjKWNWvW4B//+Aeuuuoq1aGQCXkF3HgPJ1QVjNRw+7T/eYedQatxNiwA5GVHnnCg9Tm245LyNzbtxMtvfG6Y0VupKYmYfs4IXD51FNJTT+wpfeH1UnR0iF1QMHlM/xMuZX3rkjGYMKIQD/z530JmFvfU6+9sx3uf7MXCy7+BqWcMFn6+2JUaRCTE0qVLmdBSt7W2daDhkLyRXfk5TGaNRkRLgCPsDFrt59vzIlf1KzUuB8jom4RX1m/Dy29uxcHGZk1niZKWkoRLLxiByy8aFbQq2drWgRf+9bHw5w4oysOw00/8tcFFOXjmvvl47IVNeGPDl8KfGa2GxmY88tw7WLexDLdcfRYG9MsWdnb8vOklwg4j7cYMLejR140fPx7jx48XHA2ptHz5ctx2222qwyATOeCVW31xRJGYkL60juxKT01GclKfkB8XUaF1RJhBW3OwWfMkhQ8+3YMPPt2j6QxR0tNSMPei0Zh1fnHYVbz7Pdov9AUTbjX1j64+C5PH9Mfv/rJBaeK/c68P//erlzFtSjEWXjEJfZO1tyHEL5jN7URWsGTJEtUhEJFi7ko5/0AeFa6SR2poHdlli/BnWlsvYKlChDYVj+TNdnoptGfj8otH4+Izh0T1+W4B/c/BFET4M500sh+e+vU8PP7C+8onPrzx3pd4f8tezJ85DnMvGKnpLLYcEBFZhPSRXVyqYCgiRnbZckInP+U+MT2okUZSeSV/38pWMqIIsy4YgUkj+3Xr61x+8S9AI1Xcj+qbnIDFN56HqWcOxaN/3YAqjS0fWjQ2t+Lplz7Av97ahuvnfgPnTxrQo3OY0BIRWYSnkiO7YomIkV0OW+hk0y3o+6kgQquKT8BSBb31TUnC+d8cglnnj+jxOxdun/if17wwL1CCGTfciSeXXolnX/0Ea97+XHg83VFV24jlT/8bK9/Mw03zv4nRQ+zd+nomtEREFuGTfIO5IEzyQ/pzCVhz7Aiz9lbUyK5CW/gky1Olva1h7ZM3aT5Dbz4JLQfhlmSEkpgQjx/Mn4wfzJ8sPB49xakOgIiIxNA6yzOScJdNSH8iJhCEm0ErYtlBRloKkhLDvwWudXZyfjerkkbhlTAz2hbmBYrVMaElIrKAltYONEi8tZydkYqEPr2lnU/dJ2JkV7j+VjEjuyInm5VaZ9Dmmq8VpqGpDU3N4tfSRvP7bVVMaImILKBCwNvP4cRy5ceoPBovFcXF9UJeVmrIj4sY2RXp+6a94zDqGrS9ELPlyFkfK9MBARf6gonlSSRMaImILMAle2QX+2cNpasrgBqNI7XsuZlhP+4T8Ja4M0KC5RZQBTbjiy23T/8ZtFbHhJaIyAJEJAbhhOu1JP1VCJhwEG4Gbc3BZnR2Htb8jEjLODwiEto881VoZfW7s0JLRESm5pU8ssuZb74+RSuTPeFA1LKDSJMxfCL6gE34YssloUJr1stxojChJSKyAK0rUCMpYEJrKCKG8oer5oladhDp+0ZEpdJpwpYDj1/8OypmvBwnEufQEhFZgKiZoaFEmiVK+hIzgSDMyC4Byw4SkxKQkZYU9nO8Gp+TkNAHmenhn+GrbsRDz7yr6TmiHfBUiz/TVYOfPbhG+Lk9NWlMEeZPG6Pb85jQEhGZnOyRXempyUhJSpB2PnWfiN7TcO0AIpYdRFM59Wus0OZlRe6fLffVo2yPV9NzzKChqQUNe1pUh3HMmGKnrs9jywERkclVSHj78njhLg+RGiRbFw4AABTWSURBVB4BLSbhek+1LjsAops+4Kms0/SM/Cg2Y/mqtSfn1H32bH3/3mBCS0Rkci5B/Y6hxHpvnhHVahzZlZWeEnZRhogtYeFaGgCgqq5J+zOiSGhFzNOl7tN7nBoTWiIikxPRTxmOk/2zhrLfo62qCYSvbLZ3HMZBAS0s4baQAYBHwGQOWxQ3+5nQquHQeZwae2iJiEzOLXnCgTPCLFHSl4iRXX3i41Fa5gn6sapaMW/RH2ppC/kMAPh0h1vzM6JZ9VpVx5YDFfKzmdASEVE3SB/ZxS1hhuIS8Oe9fZcbd+3SnlCG8/zKj6SeDwD2aC6esUKruzyd+2cBthwQEZme7JFdBazQGopX8iVAMznNGX597+GuABoPyZsAQsGpWPLAhJaIyMRa2+SO7EpMSog455P0JfsFjFmkpiSGvdgGHOnTDQR0CoiOUTEZhQktEZGJufySV96acAuT1YkY2WUF+VG8re0VMH6Mui8/R9/+WQCIT0iIjWHZHR0dmDZtGtatW9ftr139bhme+scmCVFRNFJTkvCPh6/t1tfMv/V5NLe2SYpIH/k56XjmvvmqwyCDE9FPGU6k0UukP60ju6wiL5oJBzX8vVJB7xm0ABDf0dGh+0PN6HAX37MwG7P/mV116TjVIZAJuP31Us93sH/WUPa7tY/ssgpHFC+2/AI2nlH36T2DFmDLAZEhjRpaiIu+OVh1GGQCsvspHfmcQWskspdomIktNzXi5/ir2W+sgt4zaAEgzunUd9cuEUV29UxWZyk6HskJjjOfFVojkd1iYibRtMNUcgatEnrPoAWAuMWLF+v+UCIK7fwzhmL0ELvqMMgkZG8JK2CF1lA8ApYqWIWDM2gNScUMWgCIu+WWW3DGGWcoeTgRnSgurheuZe8sRam1rUPIitJQ4uN7K6m0UGgc2fW1/o7wM2gBSB1pR8HlK5qMEg8A9957Ly666CIlARDR1+ZdUgJbmB3rRMeTPbLLlsMJB0bDhPaIrPSUqD7vvp9cKjmS6HmrG/H43zYIP/fma8/GjCnDjv13e8dhdHUFAATQFQigKwAEAgEEAkBXVwCBQABdgS4E/vfrXQEg0PW/jweO/3ivY193+H9fFzh2VheOPCKAw8e+/sjHM9LUzK2OB4ALL7wQ1113HZ5//nklQRARkJuVhutmTVAdBpkIR3bFlvaOwxzZ9T/RjOwCgJLhxrkn1Fx6QMq5hfknVqojLZuwqmNTDh588EFkZkYu3xORHBzTRd0lfWRXPhNaI3Gxf/YYM7bCVEj6eS2081094LiE1m6347bbblMZC1HMGjbQjulThqoOg0zGXyV5S5iNCa2RuNhucIzDhNM3vH7xf36JSQnIyYg8viwWnDCH9q677sKYMWNUxUIUs66eOV51CGRCbsktB062HBgKV95+LT/XfBVal4QKrTPXfIm9LPEn/8Ldd9+Nyy+/XEUsRDHprAmDMb64QHUYZEI+ySO7Ck1YBbOy0wqyMG96iZSzfdVN2Lh5l5CzRgx2YsRgm5CzQhk92Di9sdHySXhBwragr52S0M6dOxdz5szBq6++qiIeophz7WWszlL3tXd0oa6hSdr5cXG9YOfEDUOZPKoIk0cVSTn7zfd3CUtoz/3GIMw4e1jkT4whza3tqGsQP0KswMYXnUcFXX17//336x0HUUyaO3Us+tn5Cpu6r9wn90JYXnYa4uJ6SX0GGYdX4IrYAlb2T1HuldMuwoT2a0ET2mHDhmHRokV6x0IUUzLSUnDdLFZnqWdcklfe2tmbF1O8AmcaF9hY2T9ZhVfWhAP+nB51SsvBUQ8++CBeeeUV7NmzR894iGLGVZeOi9l5gaSdjH684zmYlMQUX424Cm1eljEvbK1483M0t7QpefaXuyulnPvu5j3Y/Lmc+bbR6B3f2zDbLUMmtMCRqQcLFy7UKxaimDGwKB+zzitWHQaZmFvyhTA7t4TFFFEXDB15xqwYdnUF8PyrH/1vg5Z1vPafbUqfb8/LMEdCe8MNN6BvX2O+0tJTbmYKlvzwYtVhUDf8eME5qkMIK6FP0G4foqh5JVdo2ZsXO1paO9DY1CLkLLtB+2d91Y2WS2aNoNCepTqEY8ImtABw5ZVX6hGHoZ0xtr/qEKib+GdGVueTPGSfvXmxwyWw2u/INWZl38OlFFL0cxhnw2zEhJaIiIylveMwag/KG9kFAP0N9A8VySWyfSVY73VpmafH52WmJ+P0Au1VQBlLDQjoZ6AXvkxoiYhMxuWT226QnclWs1gicgPZyRXatvZO3PW713p83sghBVh22wytYcFTKXdNdKwyUoWWjXxERCbjkj3hgCtvY4q/SuTIrhMrdokJ8YiP7/k0l4bGVq0hAQC8ki9RxqoiJrRERNRTHtkzaJnQxhSRFdpgrSrpqUk9Pq++Ucx2LSa04qX3TUZaSqLqMI5hQktEZDIe2SO78jiDNpb4BW0Jy8pIDfrraRoS2oZDYqYveCrrhJxDX3MabBIKE1oiIpMRWVELhiO7Ykt13SEh59hDTDjo27fnCS0A1GtsO/BXs39WhkKbcdoNACa0RESmI3tkl9Ogw/FJvHKfuMqlLUSrita3pesbtVVpRY4lo68V2pnQEhGRBrJHdvWzsYc2VngEXgiz5wWfjpGhtULboK1C6xX4/0hf6+dkQktERD203yO3FzC9bzKSk/pIfQYZh8h+bEeIdcnpadoS2toGbS/gZPecx6oiVmiJiKinZM+g5YSD2CLy9r8zRGU/PVVby0Fdg7aWAw+XKkhRkG+svyuY0BIRmYhb8oUwO/tnY4rIhLYgxPdOmtaEtl5bywErtOIV2rNVh3AKJrRERCbi8cu+EMYtYbHEJ6i/ND6+NzLTg7cWpGluOdA2i9ZXzQqtaEYb2QVw9S0Rkal4JE84YIU2tohK9hxhvm80Xwo7qC2hXf2HGzV9vRZX/ezvaBC0HOKoSWNOxy9vvkjomVbACi0RkYn4JLccFHLCQczw1x5CV1dAyFnheq/TU5M1nV2vsYdWlfaOLuHJLAA4Dda7ahRMaImITKKrK4CaejFD8ENx5rNCGytEtq84wiS0GWkJms4+KCEp1MMBr5yJJOF+r2MZE1oiIpNw+eVWZ5OTEpCpsd+RzMMt8LKUPT/0umStixXqNPbQqiLy9/d4hQbsXzUCJrRERCZRIXtkV4jVpWRNIm//OyNUDdPTUjSdr3X9rQpuSePCQo1Hi3VMaImITMIleZ6mjQltTPFViXuB5MwLP2Rf68Ww2nrzVWlFTZA4XlxcL9iyOYkkGCa0REQmIXJmaDDsn40tohKuuLheEce9ZaRpuxhWLXndswweCRc47bnG2s5lJFLGdpWWeWQcS2RIJcOdqkOgGCF7J73DFroPkqzHWyPmBVJ2Rl/ExfUK+zlaK7RVdeZLaH0SRuzZ8vgzGoqUhPau370m41giQ1r75E2qQ6AY4a2U23IQatMTWU99YyvaWtuFnBXNuuTMDI0V2jq50z1Ea+/oQp2EqjJHdoUmpeVg3vQSGccSGQ6/10kvXV0B6f+oF/CyScwQ+XZ4NGOkMjVeCqupNVcPrawV1Q4mtCFJqdAumD0RK9aWyjiayDCGD3JgweyJqsOgGFEheWRXfHxv5GWlSn0GGYdb6AzayG+DZ2gcB1cdpOXg+/e8gnJvjaZzzebplz7A0y99oDqMiJbfMQvFA226PlPapTBWrsjqrpk5XnUIFENc0kd2sd0glngFTjiwR1E1zErX1nJQU39qQuutlvszQT1ny9W/11daQrtg9kQmtWRZwwc5eBmMdCXrLcyjoumDJOvwCLxg6Iyi9zorXePYrpP6UQ+1tKOjo1PTmSRH77heyMnQ1mLSE1LHdo0ZWiDzeCJlWJ0lvfmqZY/sYkIbS/wCv5/6RdF7fahF2wW0puY2tHccPvbfvmpzXRKLJXk5av4ukdJDe1TJcCfmTS9hPy1ZCquzpILbJzehDbe6lKxH1Ai4tJQkJCf1OeHXDrW044vdfpTt8WHH3irsPlCF5pY2zc/y1zShn/1IsiRjJBaJkZet5u8SqQktwAtiZD2/XTRTdQgUg0RudQqmkEsVYkZ7x2E0NIqZGpCfk4a9FbX4Yo8fZXsrsWtvJTyVdULOPll13aFjCa2/Wu5MZuo5W46aTWbSE1oArNKSZbAvXLyPtlXg3t+vUx1GzLv70bWqQzCFH159Ni49Z5jqMDQp94p7cbSnogr/96uXhZ0XTmXt120G/lq2HBhVXq6ahFaX1bccbURWwDFdcshYD0kkS5HD/KtHPZKr/bJUHzfpoLKGCa1ROXLUtBzoktACrGyR+fEimBzeSvbCkXlYYfmE26Q/c1XHXQSrqmHLgVHlWz2h5RgvMjNeBJNH1OUUItmSkxKUjCMSqbG5DTv3VqoOo0eObzmoYsuBYTkVXTDVpYf2KF4QI7NidVYeVmjJLMy0fCIAoMJXh93lNdhTXou9FTXY76rBQUGXwVQ4Omqsrb0Th5pbFUdDwfSO64WcTDUbB3VNaAFeECPzYXVWrspaJrRkDkad1dve0YXdFdXYXV6DveXV2OeqQbmnDm3tHapDE+poD63IpRAkVk5WX/RS9GzdE1pWaclsWJ2Vx197CJ2dhyN/IpEBFDjUV2ir65uwu6IGe8prsK+8BvvddfBV16OrK6A6NOk6OjpRc7AZPvbPGpaqGbSAgoQWYJWWzGPe9BJWZyXy+FmdJfPQc1ZvV1cA+9112F1Rg72uWuyrqMEBVw0amlp0i8GI/NWNXKpgYHmKLoQBihLaBbMnYtsuH8p2e1U8nihqHNMll4f/MJGJFNr1Gdm19A//xn8/26vLs8zGV9OEqtqmyJ9ISthy1fTPAooSWoBv45LxsTIrn5sVWjKRIp1aDpjMhuarboCPPbSGZYu1lgOAyQIRyV/nSiRKeloKUpISpD+nqo7jqMKpqj6Eb11agpnnFasOJai3P/oK//lgp/BzF3/vIqSlJAo/V7SBRTnKnq0soSUi8lay0kLmoNeEA5FraY2meJADdQeb4dXwQtZX04jBCpOmSN768CvhZ8bH98bZ408Xfq7VMKElImXclXWqQyCKSoFNn/7Zcq91fibSUpNRMqIfJo0uwjdH90NyUh88/NxGTQltZbWx25S8lfXCz7TlGHNcnNEwoSUiJeobWjmyi0yjQKcKrdtn7IQtkiJHDiaOLcKkUUUYNch2ysezNG5aM3pLhlfCvQB7HhPaaDChJSIlKiqt+9YqWY/Tps+FMJdffIVPpoSEPhg1xHmkCju2CLkRtkRlpGnrA+3sPAx/7SHYsvtqOkeG5tZ2KWPVHAZd6GE0TGiJSAmPnwktmUeRQ5+WAzP8XORm9cWk0adhwuhCTB5V1K2vzUzXPtbJ5a03ZEJb7pXzYsSZr25ygJkwoSUiJbT00RHprUiHGbTtHV2orjPeRcneveNQPMiJ8SMLMXlMPxTZs3p8VnZ6suZ4Kvz1GD+iUPM5olVIutDnyFO/oc4MmNASkRKeSmP3whEdlZedhrg4+RvqXT7jtBs487MwZrgTY4Y5MWlkIZIS+wg5NztDe0Jr1PnVbkkv0gvy9Xl3wOyY0BKREj720JJJOHRaeVuuqH+2Vy+gwJaNkYPtGDXMifHFBUhPlTPzNEtEQusz5t8dLgkV2ri4XnDmGa+9woiY0BKREv4a4721ShRMoV2fhLZCxwptRloKJo3uj5IRBRhfXKDb0H4RzzFqu5JPwirv3Ky+urw7YAVMaIlIicU3XaA6BKKoOPP0uZQjc2RXfHxvFA9yoKS4AJNGFeH0gp73wWqVlZGKuoNNPf56v0Fn0bolVNjt7J+NGhNaIlKC66+JTuQRXKHt78zB2OJClBQ7MWlkP6Fna5GZlqIpoQWAcl+dpstpotU1tKCtvUP4uU7OoI0aE1oiIiID0DqDNjuzL8YWF2Ds8AJMGtlPWh+sVulpSZrPqPA2GCqhlbWyOF+ndwesgAktERGRYvUNrWhta+/W19hzMzB0oA3DB9owZqgD/XWalauV1m1hwNHkv7/2YARxSVh5CwBOnS4kWgETWiIiIsUOeOvCfjyhTzwGFuVh2EAbigfaMGqI3bAV2EgyBVRoPQYb3SVr8kIhWw6ixoSWiIhIsfKT+mdtuekYcpoNwwbmoXigHYOLcixz2/2mK7+Bm678huowhJK14U2vCRtWwISWiIhIscT43ph7cQmKB+Zj5GDzVl9jladSfMU4Kz0FCX16Cz/XqpjQEhERKTb1zCGqQyANfNXie2jzc9lu0B1xqgMgIiIiMitfdSM6O7uEn2tn/2y3MKElIiIi6iGXpP5ZRz5HdnWHaVoOSss82LrTremMBbMndvtrfv3rX2t6JhlHSUkJZsyYoToMIiKyEFkrizmyq3tMk9CWDHdi6043Vqwt7fEZPUloH374YdTVhR+nQsZ37rnnYsmSJarDICIii5G1sriALQfd0isQCARUB9Ed0296ssdfu/bJm7r9NdnZ2UxoLeDtt9/G+eefrzoMIiIiksB0PbTzppeoDoFMZv78+UxmiYiILMx0CW1P2gYoti1dulR1CERERCSR6RJagFVait6tt96KIUM435GIiMjKTJnQLpg9kUktRWSz2XD//ferDoOIiIgkM2VCSxSNn/70p0hOTlYdBhEREUlm2oSWVVoKZ8SIEVi0aJHqMIiIiEgHpk1oAV4Qo9AWL16sOgQiIiLSiakTWoAXxOhU5513Hq655hrVYRAREZFOTJ/QskpLJ+NGMCIiothi+oQWYJWWvsYlCkRERLHHEgktL4jRUVyiQEREFHsskdACbD0gLlEgIiKKVZZJaAG2HsQyLlEgIiKKXZZKaFmljV1cokBERBS74lUHINq86SXYtssn/NzBgwcLP5O0++qrr7hEgYiIKMb1CgQCAdVBEBERERH1lKVaDoiIiIgo9jChJSIiIiJTY0JLRERERKbGhJaIiIiITI0JLRERERGZGhNaIiIiIjI1JrREREREZGpMaImIiIjI1JjQEhEREZGpMaElIiIiIlNjQktEREREpsaEloiIiIhMjQktEREREZkaE1oiIiIiMjUmtERERERkakxoiYiIiMjUmNASERERkakxoSUiIiIiU2NCS0RERESm9v8BfMwyhBMdPhMAAAAASUVORK5CYII=;" parent="1" vertex="1">
          <mxGeometry x="369.25303231151617" y="911.199349112426" width="87.74914664457332" height="31.955260977630488" as="geometry" />
        </mxCell>
        <mxCell id="AaEPliW05S_F7qjuPCK2-2161" value="Conan Repo" style="shape=image;verticalLabelPosition=bottom;labelBackgroundColor=none;verticalAlign=top;aspect=fixed;imageAspect=0;image=data:image/png,iVBORw0KGgoAAAANSUhEUgAAALoAAACyCAYAAAD1XdWcAAAACXBIWXMAABYlAAAWJQFJUiTwAAAUI0lEQVR4nO2d6W9bV3qHf9wXcRcpW/RC2ZIt0fGSzfYkGdlWgpkG7WAwRYtBUaAoUKBAgX7r8q1/Rv+O2vGS1M0gk2k6k9ixqDh2vEq2REkkRS1cRF7uZD+QV5Zly+Jy7r3n8r7Pl8EJBve+JB8dn/ve97xH12g0GiCIPkevdAAEIQckOqEJSHRCE5DohCYg0QlNQKITmoBEJzQBiU5oAhKd0AQkugxUa3WlQ9A8RqUD6GcWM0VE0wJy5SosRgNGPHaEPDbodEpHpj10VOvCllq9gWimgIW0gFL11ZncbNBjxNsUXk/GywaJzohSrY5oWsBCuoBafe+v1CQK77bBoCfhpYZE7xGhUkM03ZzBu8Go12HEa8eIx07CSwiJ3iWZYhWLGQHL2SKgA7D9W+xibNC1hHfbYDRQjoA1JHqHbAhlRDMFrOSKaBor0mAy1uuwNcObSHhmkOhtksyXEE0XsC6UZbmfXqdDyGvDiMcOMwnfMyT6HsSyJSxkBGSLFUXurwMQ8tox4rXBYjAoEkM/QKLvQjRdRDQjIF+uKh3KFqHWksZqpBm+U0j0beyVA+eFkMeOkNcOGwnfNiQ6gGIrBx5tMwfOC4c9doQ8dthNJPxeaFr0fLnWFDxTUDqUnjjktmHEa4fdRGv43dCk6JliFdG0gNhmsfkfGOTBeRgfdDezNANmEn4nmhJ9XSgjmhaQzJfBKu/N4/iAy4qQxw6nhWr2RDQh+kquhGhawEZBmRShUgSdVox4SXigz0WPZUuYTwvYLGlL8J0MO5szvNuqXeH7TvQGgMV0AQvpAoQKPzlwHtjvaM7wWhS+b0Sv1uqtHHgBZdrR80b2OSwY8djhsZmUDkU2VC96sfqiDryu7o8iO1oSXrWi51o58EUV5cBT2eazwkau1Nb/3+ewwOuSXsIhhxkh9wB89v4VXnWip4sVRNMFxMUcOMBNHlsktVnBxmYJG6LYmfbEfhM+twW+lvQ+pwVe5zYpGcUfGDBjxGOHz27uOV7eUI3oa60c+GpeLJPlJ2+dylawkWuKzULqdhHlHw06Oop3r7HfbkbIa4e/j4TnXvREKwee4iwHLi5DZmM5WeXejbFDDgBoSc+GwZbwgT4QnlvRl7NFLKQL3OXAU9kKN3LvxtghB1PhfTYTQl47hgYszK4pN1yJ3mgA0UwBUc5y4GqQ+3WwnuW9NhNGVCo8F6JXtuXAKxzlwNUq+E5Yz/Aea3OG3+9Qj/CKil6ovqgD5ykH3i+C74S18G5rc4ZXg/CKiJ4r1bCQFrCU5SsH3q+C74S18C5LU/hhJ7/Cyyp6ulDBQrqARL7IVd4bOmBuOYfZxVzbn6Uf2BKe0ffpbAkf5FB4WURfE8pYSAtYy29vFcFHHjyVreD2w/V2P0pX+NwvfvixNmdS8e2p1Ln5F7M7u+/XYTZixGvHAZdVkpi7QVLRE7kSFtIC0pzlwAHplyk+twVjQQezV/jiSymp/tU5Fx5kXm7gMBsR8thx0K288JKIvpQpYqHVLplHpJrFWcu9G3OxpuyspWe9dhcZMBkR8tpxSEHhmYlebzSavVDSAgrVGotLSsJcjP1afOyQQ7YCrJ2w/jxSyQ4AdlNzhj/skV/4nkWv1OpYyBSwkBJQ5bxVhJqk6JTvH6WYLcN8bgvOTniZXOt12IwGhFo94uWia9GFSh3RjIBoWgBHKfBdYSm5XEuUTmH9hyzFun07VqMBIU+z3Z7UdCz6ZqmKaLrAXQ58L27eSjC5jtSzXa+oTXYArWNvbAh57JIde9OR6N/MrkFo1LnIe3cyZvXjs847SzVObVZw+wG7h+1XlmgSxW/eEp79sTcd9TJ7spTDyloBJp3+5Ugb4HbMXHKJ42Ux9jpNWwVdLJhdzG1leqSIVxyXqzU8Wcvh6+freJYSmLYH7Lhp3w9zGVz/NoaiUN/xz8zOv0A+xuIun17wuS2veejk4/PtNh4NOpjLnnrpu5Qu/kqtjqdrOXw9v465jTwT4bvuTvmHe6v45u4a9PxmEpsvWRhkItp9m8kbrDNC7e51ZUW1Vsfseh6/f76G2fVcT+e19tSGNV+o4os7Ccwt5WDW89fRlcUPM3aIv+xKJ7CY1X1uC86FBxVLpdbqDcxtCLh5P4larbvZnUknm9nlHGaXczg/7sOgz8JN62UmyxYVlKC+iWb83T2j8JJGrRcbmEvksVmo4tOT+7q6BtOWTbceb8Cg12HqzBAMZonyRB3AYtmi9I/cK16XCT63paPvghfBUQGiKwLWNns/N4p5b7JavYHfzaxgyG3F2QkvquBjdu8Glg9zaoAXwXUVILFWwHKa3TOBZE34kpkibtyK49SICyNBx8tt4uTOM/cKZ3lyKT7/S+lTheI11IBkqoSFVfYvIyXvNnlvPot781lMvjUIh9Pc3DK3lUdtLW8kGzNCtnilGb9p2fJyPboyn9dQA1LpMmZXujt9ux1ka6v6zU/rMJsM+Pj0EBrGbR96C6nHvcJXnrzXz/9qQZr88ekbQC5bxaOY9Du7ZO0fXK7U8N/TcYSG7Dh11I2KxNVgnT6E7WQjW8FokGFACjC3QyIeKi51AEqbVfy0nJOtIFCRRtkLSQELSQHvH/NiOGCTrM3zWNCB272Inikhla0o/nDWC2KKlZcHzapQx9NYDoWKvG1NFO0If+dpCniawsdnhmCysn/hxOJHnY3lcNbFb7XimxBnczkqEPeiXmrgeSKPjKDMrjMujj746m4SXocZH5wYRE3H9t+ynpcvKp7VR4MO5ZdeFWAxKWA123suvBe4eW+fypXx+e04FmICLAzLCVjUqdx+uL6joInYC11Vh2SiiMhsWnHJAY5EF3m0mMXVb2PYzFZgNLTC6+EB3+tiU7J6++H6iwc7pRMoHI8NdWBjrYTppykspYrgBS6WLq/jTw/XYTDo8MmZIehM4huG7vK0o0EHk/4oYl37K31QOMubKzE21IF0uoKnK3nwCHcz+nZqtQb+J7KCe7MZmHQ7T0PubNphVWo7u5jDzVsJzMV2/qAcTasyjvUNHQqZKr5/nOZWcoDjGX07sfUCYusFvHPUjYP7B7pKR3pdJpwLDzLr5zK72Ny5pGSrCyXRNYBivoaHSzmuGsTuhipEF5l5lsHMswwunQrA5jCi3mE5sLheZ7l5uHmt5vXEZ4F+F79aqGM2loNQ5qfF916oSnSRr++twm414NLJAGo7VzR7IL4VlKK124trNv9X7Lno2yb99vp2r8vUVjaHlz+aRgl4nsgjLagvA6VK0QFAKNbw+Z0ERoMOvBVyoVRvf3YZDTaXG1K3iBav/fI92v8DE99mKo2uosPiqoCkittpq1Z0kblYc4f6+eM+DPmtba/fvS4Tzrq8krSo6xVeXtfPLzbfHzT0yjcJ7RXViy5y68kG8AT4xTv7oLfo2q6HlnIp0ylbgrtNitavr6zk8OX3T/F4aQ2TZ8bhV6BXImv6RnSRL2dW4Hdb8LMJHyrir9dGnn00OIC5WF4R4V/J3CiUFzfU9chkyvjPy98y/HR80HeiA8BapoTrt+I4FXLh6AEnirUa2skLN4V3yLKcefkw3NchX15cD0DI1vBgObNLLOqnL0UXubeQxb2FLCZPDMLlNrfd7VdK4XlZfwOtuvB8DY+Wctx3Qu6VvhZd5JsHzXKCX769H3Vj+z+oKDyLI9B5EhwAasUGZmM55Escd6BiiCZEB5rlBF9Mx3E4YMfbY56O0pFelwlel2mr5HUulmtbet4Eb5QbmE8ISOXVlwvvBc2ILhJdFRBdFfD+qAfB/QModXE6x/Y6b3G2B15tmMST4LoKsLwqIJFRvmRWCTQnusiduTQwl8bHZ4ZgsRm6rtcQZ3sAym9yeA26KrC6UUR0vf2S2SGvC8lUVsKo5Eezoot8dTcJ94AJP3/Lj6q4u0nmvLUUY0MNWE+V8SwpXQsJNcF1ma5cZPIV3Lgdx/xyHlaD/tW+MCoa6+tAPlXB94/TJPk2ND+jb+fx0iYeL23iwwk/Bn3mHeUEfNR/7zbWN3QotFpIEK9Cor+GPz1aAwD82bv7AT6eJXenAVSEGh4t51DpsqWyFiDR38DNSALDPhvOHvei1OCv9rpWbGAunkOuqI1ceC/QGn0P4hsFXP0uhpVkAVYjH19XowzMLwq4+zxDkrcJzeht8sPzDH54nsHFk344XWZUJOou9ib0FR1iawJiDNspawUSvUP+cH8NVrMBn5wOoNrh7qZu0Vd1SKaKiK6p62xXniDRu6BYruHGnQSO7nfg9FE3CvWaJHlxQx3YSJUxR2nCniHRe+BZIodniebupn0BK0rV1nKmx/pwfR3YzFbxWIZ2ylqBRGfA9t1NRou+VU7QeV5cBx2KmxX8tESCs4ZEZ8iXMysYdFnwYXgQZXT2sFoRaniynEOpSrlwKeAjX9ZHrGdLuHYrhuW4ALtx76fVerGBp/M53FvYJMklhGZ0ibgfzeJ+tLm7yeu1vFi/i5SBaJLN0YLE3pDoEvPNg3Xo9cCn7+xHzQjoK0Cc8dGCxN6Q6DJQrwOfTycwccCFdZrBFYHW6IQmINEJTUCiE5qARCc0AYlOaAISndAEJDqhCUh0QhOQ6IQmINEJTUCiE5qARCc0AYlOaAISndAEJDqhCUh0QhOQ6IQmINEJTUCiE5qARCc0AYlOaAISndAEJDqhCUh0QhOQ6IQmINEJTUCiE5qgI9FH/Hap4iAISelI9E9ODuFf/nwMo/sGpIqHICSh46XLQZ8d//yLUfz6nWEp4iEISeh6jX7prQD+7S+O4fiwg2U8BCEJPT2MBr02/NMnR/Gbd2l2J6TFYtTh01NDMBh2HnLWHkwOArhwIoDxoAtXZ2J4uLzJ4pIEscXbh124EA5gwNL9CcbMTrzY57HgH6eO4P8ereHydAwNOneK6JFhtxkXJwI4wiD5wfxol59P+DEedOHaTAz3F7OsL09ohKmwHz875mN2PUnOMAq4zPiHiyP49vE6Lk/HUK3T9E60x4lhBy6c8MM7YGZ6XUkP6/pgfBDHg05cj8Rwl2Z34g14BkyYmvBj4oBTkutLfirdoNOMv784gltPN3B5OobyzvM2Cc3z4ZgPk+FB6HXdZVTaQbbjF88f82E86MC1SBwzCxm5bktwzNGAHRfDAez3WCS/l6znjHoGzPi7yRAmgilcmY6hUK7JeXuCE+xmPS6F/TgT8sh2T0UO1D076sXxYQduzMRx53laiRAIhXgv5MZkOACbWd7CWcVOjnbbTfjbjw5jPOjElTtx5EtVpUIhZOCAx4KLYT9CAWUKAhU/Iv29I16MDztxfSaO23MppcMhGKPX6TAV9uPcmFfROBQXHQAcViP+5oNDmBh24sp0HNlCRemQCAacCjoweSIAt92kdCh8iC7y9ogH48NOXIvE8d3chtLhEF0y6DDjUtjPVWUrV6IDgM1iwG8/OIiJoANXIgmk82WlQyI6YPKYDz8P+5UO4xW4E13kdMiD40EXbkRi+ONTmt15Z2xoABfDAQy52b66ZwW3ogOA1aTHX50/iPGgE59F4ljfpNmdNxwWAy6F/Th12K10KG+Ea9FFTh5yYzzoxPVIHN88Xlc6HKLFuSMeTIb9MBv5byahCtEBwGTQ4y/PHsBE0InPpuNIZktKh9S3JFNvLsA77LPiYtiPg4Pq6QqhGtFFwgdcOD7sxI1IHF8/WlM6HE1h0usxdcKP947K9+qeFaoTHQAMeh1+/X4QE0EnrkTiSKSLSofU95w+6MSFcABOmyqVUafoIseDTvz7sBM3IjF89ZBmdynw2k347bkDGN2v7l4+qhYdAHQ64FfvBZubsyNxLKcKSofUN/zq7Bj+46/PKB0GE3SNRn9tY/58Jo7f/bSqdBivZeKASxUp0odzz/Gvv3kPZ47w9+KnW/pOdAB4tpLHZ5EYFtf5mt15F91lM2Iq7MeJgy6lQ2FOX4oucvNuAjfvJZUOYwueRf9g1IfJicGuGwTxTl+LDgDzyTyuRuKYXxOUDoVL0Uf8NlwM+xH02pQORVL6XnSRL39cwRc/rigaA0+iW416TIX9ePuI+nLi3aAZ0QEgupbH1UgCz5J5Re7Pi+jvtFq82Xto8aY2NCW6yFf3k7j+Q0L2+yot+rDbgkthP0aG1J0T7wZNig4ASxsCrkYSmE3kZLunkqJ/HPbjPMMWb2pDs6KLfP1gFVcjcVnupYTobwUduBAOwDOg/HY2JdG86AAQTxVxdSaGxzFpZ3c5RfcOmDAV9mM8KE2LN7VBom/jfx+s4oqEs7tcon805sNk2A8JO7ypDhJ9ByuZEq5GpDnQQGrRR1st3vbJ0OJNbZDou/DHR2u4PB1HneHXI5XoA+bmdrbTIb63sykJif4GVrNlXJ+J4R6jltdSiP7+SLPFm9XE/3Y2JSHR2+C7J+v4r+kYqrXeviqWoh/0NrezHaZDjtuCRG+TjVwZ1yMx/BDtfnZnIbpBp8PUCT/Ojirb4k1tkOgdcmt2A1em4yhVOm953avoJw84cCE8BLdd9ftlZIdE74K0UMH16RgiHR5o0K3ofqcZlyb8OMZRize1QaL3wJ1nKVy+0/6BBt2IfuH4ID6aGOwmPGIbJHqPZIUqrs/E2jrQoBPRj+1rtngLuPhs8aY2SHRGRJ6ncWU6hlxx9wMN2hHdaTXiUngQJw9RTpwlJDpD8sUars3Edj3QYC/Rzx/1YjI8CJOBcuKsIdEl4O58GpcjcWSFlw802E300KAVF8J+HPRRTlwqSHSJEMo13IjE8e3si5bXO0U3G3SYOhHAuxrZzqYkJLrE/BhN47PpBFL58kuinznkxIXwEBxW7WxnUxISXQZK1TquTcexIVRg1OtwacKPo/u0t51NSUh0Gfn9/VVMnQwoHYYmIdEJTUB5LEIT/D8qziI3/ns8rAAAAABJRU5ErkJggg==;fontSize=14;fontColor=#004C99;" parent="1" vertex="1">
          <mxGeometry x="1005.3760231980117" y="886.7267455621302" width="66.77736536868268" height="63.910521955260975" as="geometry" />
        </mxCell>
        <mxCell id="AaEPliW05S_F7qjuPCK2-2167" value="提交代码" style="rounded=1;whiteSpace=wrap;html=1;dashed=1;strokeColor=none;strokeWidth=2;fillColor=#FFFFFF;fontFamily=Helvetica;fontSize=14;fontColor=#FFB366;opacity=75;verticalAlign=top;fontStyle=1;shadow=0;glass=0;" parent="1" vertex="1">
          <mxGeometry x="142.1913835956918" y="1012.6568047337278" width="127.82104391052195" height="28.49112426035503" as="geometry" />
        </mxCell>
        <mxCell id="AaEPliW05S_F7qjuPCK2-2168" value="触发MR Check" style="rounded=1;whiteSpace=wrap;html=1;dashed=1;strokeColor=none;strokeWidth=2;fillColor=#FFFFFF;fontFamily=Helvetica;fontSize=14;fontColor=#FFB366;opacity=75;verticalAlign=middle;fontStyle=1;arcSize=25;" parent="1" vertex="1">
          <mxGeometry x="350.3570836785418" y="1012.6568047337278" width="127.82104391052195" height="28.49112426035503" as="geometry" />
        </mxCell>
        <mxCell id="AaEPliW05S_F7qjuPCK2-2157" value="" style="arrow;html=1;endArrow=block;endFill=1;strokeColor=none;strokeWidth=4;fontFamily=Helvetica;fontSize=36;fontColor=#FFB366;fillColor=#FFB366;entryX=0;entryY=0.5;entryDx=0;entryDy=0;exitX=1;exitY=0.5;exitDx=0;exitDy=0;" parent="1" source="AaEPliW05S_F7qjuPCK2-2167" target="AaEPliW05S_F7qjuPCK2-2168" edge="1">
          <mxGeometry width="100" height="100" relative="1" as="geometry">
            <mxPoint x="247.18724109362054" y="1026.4275147928995" as="sourcePoint" />
            <mxPoint x="320.22783761391884" y="1026.4275147928995" as="targetPoint" />
          </mxGeometry>
        </mxCell>
        <mxCell id="AaEPliW05S_F7qjuPCK2-2169" value="调度MR Check" style="rounded=1;whiteSpace=wrap;html=1;dashed=1;strokeColor=none;strokeWidth=2;fillColor=#FFFFFF;fontFamily=Helvetica;fontSize=14;fontColor=#FFB366;opacity=75;verticalAlign=middle;fontStyle=1;arcSize=25;" parent="1" vertex="1">
          <mxGeometry x="766.6884838442419" y="1003.1597633136095" width="127.82104391052195" height="94.97041420118343" as="geometry" />
        </mxCell>
        <mxCell id="AaEPliW05S_F7qjuPCK2-2170" value="" style="arrow;html=1;endArrow=block;endFill=1;strokeColor=none;strokeWidth=4;fontFamily=Helvetica;fontSize=36;fontColor=#FFB366;fillColor=#FFB366;entryX=0;entryY=0.25;entryDx=0;entryDy=0;exitX=1;exitY=0.5;exitDx=0;exitDy=0;" parent="1" source="AaEPliW05S_F7qjuPCK2-2168" target="AaEPliW05S_F7qjuPCK2-2169" edge="1">
          <mxGeometry width="100" height="100" relative="1" as="geometry">
            <mxPoint x="438" y="1027" as="sourcePoint" />
            <mxPoint x="488.11164871582446" y="1026.9023668639054" as="targetPoint" />
            <Array as="points">
              <mxPoint x="618.324772162386" y="1183.603550295858" />
            </Array>
          </mxGeometry>
        </mxCell>
        <mxCell id="AaEPliW05S_F7qjuPCK2-2171" value="执行MR Check" style="rounded=1;whiteSpace=wrap;html=1;dashed=1;strokeColor=none;strokeWidth=2;fillColor=#FFFFFF;fontFamily=Helvetica;fontSize=14;fontColor=#FFB366;opacity=75;verticalAlign=middle;fontStyle=1;arcSize=25;" parent="1" vertex="1">
          <mxGeometry x="558.5227837613919" y="1060.1420118343194" width="127.82104391052195" height="28.49112426035503" as="geometry" />
        </mxCell>
        <mxCell id="AaEPliW05S_F7qjuPCK2-2172" value="" style="arrow;html=1;endArrow=block;endFill=1;strokeColor=none;strokeWidth=4;fontFamily=Helvetica;fontSize=36;fontColor=#FFB366;fillColor=#FFB366;entryX=1;entryY=0.5;entryDx=0;entryDy=0;exitX=0;exitY=0.75;exitDx=0;exitDy=0;" parent="1" source="AaEPliW05S_F7qjuPCK2-2169" target="AaEPliW05S_F7qjuPCK2-2171" edge="1">
          <mxGeometry width="100" height="100" relative="1" as="geometry">
            <mxPoint x="589.5650372825186" y="1202.5976331360946" as="sourcePoint" />
            <mxPoint x="842.5228831814416" y="1203.0724852071007" as="targetPoint" />
          </mxGeometry>
        </mxCell>
        <mxCell id="AaEPliW05S_F7qjuPCK2-2173" value="发起代码评审" style="rounded=1;whiteSpace=wrap;html=1;dashed=1;strokeColor=none;strokeWidth=2;fillColor=#FFFFFF;fontFamily=Helvetica;fontSize=14;fontColor=#FFB366;opacity=75;verticalAlign=middle;fontStyle=1;arcSize=25;" parent="1" vertex="1">
          <mxGeometry x="350.3570836785418" y="1060.1420118343194" width="127.82104391052195" height="28.49112426035503" as="geometry" />
        </mxCell>
        <mxCell id="AaEPliW05S_F7qjuPCK2-2174" value="" style="arrow;html=1;endArrow=block;endFill=1;strokeColor=none;strokeWidth=4;fontFamily=Helvetica;fontSize=36;fontColor=#FFB366;fillColor=#FFB366;entryX=1;entryY=0.5;entryDx=0;entryDy=0;exitX=0;exitY=0.5;exitDx=0;exitDy=0;" parent="1" source="AaEPliW05S_F7qjuPCK2-2171" target="AaEPliW05S_F7qjuPCK2-2173" edge="1">
          <mxGeometry width="100" height="100" relative="1" as="geometry">
            <mxPoint x="498.2642916321458" y="1074.387573964497" as="sourcePoint" />
            <mxPoint x="425.2236951118476" y="1073.9127218934912" as="targetPoint" />
          </mxGeometry>
        </mxCell>
        <mxCell id="AaEPliW05S_F7qjuPCK2-2176" value="代码评审" style="rounded=1;whiteSpace=wrap;html=1;dashed=1;strokeColor=none;strokeWidth=2;fillColor=#FFFFFF;fontFamily=Helvetica;fontSize=14;fontColor=#FFB366;opacity=75;verticalAlign=middle;fontStyle=1;arcSize=25;shadow=0;glass=0;sketch=0;" parent="1" vertex="1">
          <mxGeometry x="142.1913835956918" y="1050.6449704142012" width="127.82104391052195" height="94.97041420118343" as="geometry" />
        </mxCell>
        <mxCell id="AaEPliW05S_F7qjuPCK2-2177" value="" style="arrow;html=1;endArrow=block;endFill=1;strokeColor=none;strokeWidth=4;fontFamily=Helvetica;fontSize=36;fontColor=#FFB366;fillColor=#FFB366;entryX=1;entryY=0.25;entryDx=0;entryDy=0;exitX=0;exitY=0.5;exitDx=0;exitDy=0;" parent="1" source="AaEPliW05S_F7qjuPCK2-2173" target="AaEPliW05S_F7qjuPCK2-2176" edge="1">
          <mxGeometry width="100" height="100" relative="1" as="geometry">
            <mxPoint x="306.5327257663629" y="1073.9127218934912" as="sourcePoint" />
            <mxPoint x="249.46975973487986" y="1073.9127218934912" as="targetPoint" />
          </mxGeometry>
        </mxCell>
        <mxCell id="AaEPliW05S_F7qjuPCK2-2178" value="合并代码" style="rounded=1;whiteSpace=wrap;html=1;dashed=1;strokeColor=none;strokeWidth=2;fillColor=#FFFFFF;fontFamily=Helvetica;fontSize=14;fontColor=#FFB366;opacity=75;verticalAlign=middle;fontStyle=1;arcSize=25;" parent="1" vertex="1">
          <mxGeometry x="350.3570836785418" y="1107.6272189349113" width="127.82104391052195" height="28.49112426035503" as="geometry" />
        </mxCell>
        <mxCell id="AaEPliW05S_F7qjuPCK2-2179" value="" style="arrow;html=1;endArrow=block;endFill=1;strokeColor=none;strokeWidth=4;fontFamily=Helvetica;fontSize=36;fontColor=#FFB366;fillColor=#FFB366;entryX=0;entryY=0.5;entryDx=0;entryDy=0;exitX=1;exitY=0.75;exitDx=0;exitDy=0;" parent="1" source="AaEPliW05S_F7qjuPCK2-2176" target="AaEPliW05S_F7qjuPCK2-2178" edge="1">
          <mxGeometry width="100" height="100" relative="1" as="geometry">
            <mxPoint x="283.25103562551783" y="1119.0236686390533" as="sourcePoint" />
            <mxPoint x="306.53272576636294" y="1121.8727810650887" as="targetPoint" />
          </mxGeometry>
        </mxCell>
        <mxCell id="AaEPliW05S_F7qjuPCK2-2180" value="提交代码标签" style="rounded=1;whiteSpace=wrap;html=1;dashed=1;strokeColor=none;strokeWidth=2;fillColor=#FFFFFF;fontFamily=Helvetica;fontSize=14;fontColor=#FFB366;opacity=75;verticalAlign=middle;fontStyle=1;arcSize=25;" parent="1" vertex="1">
          <mxGeometry x="142.1913835956918" y="1202.5976331360946" width="127.82104391052195" height="28.49112426035503" as="geometry" />
        </mxCell>
        <mxCell id="AaEPliW05S_F7qjuPCK2-2181" value="触发打包" style="rounded=1;whiteSpace=wrap;html=1;dashed=1;strokeColor=none;strokeWidth=2;fillColor=#FFFFFF;fontFamily=Helvetica;fontSize=14;fontColor=#FFB366;opacity=75;verticalAlign=middle;fontStyle=1;arcSize=25;" parent="1" vertex="1">
          <mxGeometry x="350.3570836785418" y="1202.5976331360946" width="127.82104391052195" height="28.49112426035503" as="geometry" />
        </mxCell>
        <mxCell id="AaEPliW05S_F7qjuPCK2-2182" value="调度打包" style="rounded=1;whiteSpace=wrap;html=1;dashed=1;strokeColor=none;strokeWidth=2;fillColor=#FFFFFF;fontFamily=Helvetica;fontSize=14;fontColor=#FFB366;opacity=75;verticalAlign=middle;fontStyle=1;arcSize=25;" parent="1" vertex="1">
          <mxGeometry x="766.6884838442419" y="1202.5976331360946" width="127.82104391052195" height="94.97041420118343" as="geometry" />
        </mxCell>
        <mxCell id="AaEPliW05S_F7qjuPCK2-2183" value="执行多版本构建/打包" style="rounded=1;whiteSpace=wrap;html=1;dashed=1;strokeColor=none;strokeWidth=2;fillColor=#FFFFFF;fontFamily=Helvetica;fontSize=14;fontColor=#FFB366;opacity=75;verticalAlign=middle;fontStyle=1;arcSize=25;" parent="1" vertex="1">
          <mxGeometry x="558.5227837613919" y="1250.0828402366865" width="127.82104391052195" height="94.97041420118343" as="geometry" />
        </mxCell>
        <mxCell id="AaEPliW05S_F7qjuPCK2-2184" value="多版本二进制包归档" style="rounded=1;whiteSpace=wrap;html=1;dashed=1;strokeColor=none;strokeWidth=2;fillColor=#FFFFFF;fontFamily=Helvetica;fontSize=14;fontColor=#FFB366;opacity=75;verticalAlign=middle;fontStyle=1;arcSize=25;" parent="1" vertex="1">
          <mxGeometry x="974.854183927092" y="1316.5621301775147" width="127.82104391052195" height="28.49112426035503" as="geometry" />
        </mxCell>
        <mxCell id="AaEPliW05S_F7qjuPCK2-2185" value="" style="arrow;html=1;endArrow=block;endFill=1;strokeColor=none;strokeWidth=4;fontFamily=Helvetica;fontSize=36;fontColor=#FFB366;fillColor=#FFB366;entryX=0;entryY=0.5;entryDx=0;entryDy=0;exitX=1;exitY=0.5;exitDx=0;exitDy=0;" parent="1" source="AaEPliW05S_F7qjuPCK2-2180" target="AaEPliW05S_F7qjuPCK2-2181" edge="1">
          <mxGeometry width="100" height="100" relative="1" as="geometry">
            <mxPoint x="250.89405136702564" y="1216.3683431952663" as="sourcePoint" />
            <mxPoint x="298.77216238608116" y="1216.8431952662722" as="targetPoint" />
          </mxGeometry>
        </mxCell>
        <mxCell id="AaEPliW05S_F7qjuPCK2-2186" value="" style="arrow;html=1;endArrow=block;endFill=1;strokeColor=none;strokeWidth=4;fontFamily=Helvetica;fontSize=36;fontColor=#FFB366;fillColor=#FFB366;entryX=0.022;entryY=0.146;entryDx=0;entryDy=0;exitX=1;exitY=0.5;exitDx=0;exitDy=0;entryPerimeter=0;" parent="1" source="AaEPliW05S_F7qjuPCK2-2181" target="AaEPliW05S_F7qjuPCK2-2182" edge="1">
          <mxGeometry width="100" height="100" relative="1" as="geometry">
            <mxPoint x="502" y="1219" as="sourcePoint" />
            <mxPoint x="683.1483015741508" y="1216.8431952662722" as="targetPoint" />
          </mxGeometry>
        </mxCell>
        <mxCell id="AaEPliW05S_F7qjuPCK2-2187" value="" style="arrow;html=1;endArrow=block;endFill=1;strokeColor=none;strokeWidth=4;fontFamily=Helvetica;fontSize=36;fontColor=#FFB366;fillColor=#FFB366;entryX=1;entryY=0.25;entryDx=0;entryDy=0;exitX=0;exitY=0.75;exitDx=0;exitDy=0;" parent="1" source="AaEPliW05S_F7qjuPCK2-2182" target="AaEPliW05S_F7qjuPCK2-2183" edge="1">
          <mxGeometry width="100" height="100" relative="1" as="geometry">
            <mxPoint x="759.2822866611433" y="1273.3239644970413" as="sourcePoint" />
            <mxPoint x="694.0022535211268" y="1273.3239644970413" as="targetPoint" />
          </mxGeometry>
        </mxCell>
        <mxCell id="AaEPliW05S_F7qjuPCK2-2188" value="" style="arrow;html=1;endArrow=block;endFill=1;strokeColor=none;strokeWidth=4;fontFamily=Helvetica;fontSize=36;fontColor=#FFB366;fillColor=#FFB366;entryX=0;entryY=0.5;entryDx=0;entryDy=0;exitX=0.978;exitY=0.847;exitDx=0;exitDy=0;exitPerimeter=0;" parent="1" source="AaEPliW05S_F7qjuPCK2-2183" target="AaEPliW05S_F7qjuPCK2-2184" edge="1">
          <mxGeometry width="100" height="100" relative="1" as="geometry">
            <mxPoint x="617.8682684341342" y="1330.3328402366865" as="sourcePoint" />
            <mxPoint x="870.8261143330571" y="1330.8076923076924" as="targetPoint" />
          </mxGeometry>
        </mxCell>
        <mxCell id="AaEPliW05S_F7qjuPCK2-2189" value="基于 profile 选择合适的二进制包构建完整发布包" style="rounded=1;whiteSpace=wrap;html=1;dashed=1;strokeColor=none;strokeWidth=2;fillColor=#FFFFFF;fontFamily=Helvetica;fontSize=14;fontColor=#FFB366;opacity=75;verticalAlign=middle;fontStyle=1;arcSize=25;" parent="1" vertex="1">
          <mxGeometry x="974.854183927092" y="1392.5384615384614" width="127.82104391052195" height="94.97041420118343" as="geometry" />
        </mxCell>
        <mxCell id="AaEPliW05S_F7qjuPCK2-2191" value="开发" style="whiteSpace=wrap;html=1;dashed=1;strokeColor=none;strokeWidth=2;fillColor=#3399FF;fontFamily=Helvetica;fontSize=18;fontColor=#FFFFFF;fontStyle=1;rounded=1;" parent="1" vertex="1">
          <mxGeometry x="34" y="984.17" width="90" height="180.44" as="geometry" />
        </mxCell>
        <mxCell id="AaEPliW05S_F7qjuPCK2-2193" value="包发布" style="whiteSpace=wrap;html=1;dashed=1;strokeColor=none;strokeWidth=2;fillColor=#3399FF;fontFamily=Helvetica;fontSize=18;fontColor=#FFFFFF;fontStyle=1;rounded=1;" parent="1" vertex="1">
          <mxGeometry x="34" y="1183.6" width="90" height="180.44" as="geometry" />
        </mxCell>
        <mxCell id="AaEPliW05S_F7qjuPCK2-2194" value="提供目标环境的profile" style="rounded=1;whiteSpace=wrap;html=1;dashed=1;strokeColor=none;strokeWidth=2;fillColor=#FFFFFF;fontFamily=Helvetica;fontSize=14;fontColor=#FFB366;opacity=75;verticalAlign=middle;fontStyle=1;arcSize=25;" parent="1" vertex="1">
          <mxGeometry x="142.1913835956918" y="1392.5384615384614" width="127.82104391052195" height="94.97041420118343" as="geometry" />
        </mxCell>
        <mxCell id="AaEPliW05S_F7qjuPCK2-2195" value="" style="arrow;html=1;endArrow=block;endFill=1;strokeColor=none;strokeWidth=4;fontFamily=Helvetica;fontSize=36;fontColor=#FFB366;fillColor=#FFB366;exitX=1;exitY=0.5;exitDx=0;exitDy=0;" parent="1" source="AaEPliW05S_F7qjuPCK2-2194" target="AaEPliW05S_F7qjuPCK2-2189" edge="1">
          <mxGeometry width="100" height="100" relative="1" as="geometry">
            <mxPoint x="306.9892294946148" y="1438.1242603550295" as="sourcePoint" />
            <mxPoint x="491.8732394366197" y="1440.4985207100592" as="targetPoint" />
          </mxGeometry>
        </mxCell>
        <mxCell id="AaEPliW05S_F7qjuPCK2-2197" value="正式发布" style="whiteSpace=wrap;html=1;dashed=1;strokeColor=none;strokeWidth=2;fillColor=#3399FF;fontFamily=Helvetica;fontSize=18;fontColor=#FFFFFF;fontStyle=1;rounded=1;" parent="1" vertex="1">
          <mxGeometry x="34" y="1383.04" width="90" height="113.96" as="geometry" />
        </mxCell>
      </root>
    </mxGraphModel>
  </diagram>
  <diagram id="HPJXsmdLudP8SGebZdml" name="Page-2">
    <mxGraphModel dx="1826" dy="1226" grid="0" gridSize="10" guides="1" tooltips="1" connect="1" arrows="1" fold="1" page="0" pageScale="1" pageWidth="850" pageHeight="1100" math="0" shadow="0">
      <root>
        <mxCell id="0" />
        <mxCell id="1" parent="0" />
        <mxCell id="GNxFSSs-TtCFd1PmESh9-11" value="AppB.profile:&lt;br&gt;&lt;br&gt;[settings]&lt;br&gt;arch=arm" style="rounded=1;whiteSpace=wrap;html=1;shadow=0;glass=0;labelBackgroundColor=none;sketch=0;fontFamily=Helvetica;fontSize=14;strokeColor=#9673a6;strokeWidth=1;fillColor=#e1d5e7;opacity=50;align=left;verticalAlign=top;spacingLeft=10;fontColor=#004C99;" parent="1" vertex="1">
          <mxGeometry x="520" y="360" width="124" height="80" as="geometry" />
        </mxCell>
        <mxCell id="GNxFSSs-TtCFd1PmESh9-9" value="AppA.profile:&lt;br&gt;&lt;br&gt;[settings]&lt;br&gt;arch=x86" style="rounded=1;whiteSpace=wrap;html=1;shadow=0;glass=0;labelBackgroundColor=none;sketch=0;fontFamily=Helvetica;fontSize=14;strokeColor=#6c8ebf;strokeWidth=1;fillColor=#dae8fc;opacity=50;align=left;verticalAlign=top;fontColor=#004C99;spacingLeft=10;" parent="1" vertex="1">
          <mxGeometry x="520" y="27.5" width="124" height="80" as="geometry" />
        </mxCell>
        <mxCell id="GNxFSSs-TtCFd1PmESh9-1" value="" style="shape=image;verticalLabelPosition=bottom;labelBackgroundColor=#ffffff;verticalAlign=top;aspect=fixed;imageAspect=0;image=data:image/svg+xml,PHN2ZyB4bWxuczpjYz0iaHR0cDovL2NyZWF0aXZlY29tbW9ucy5vcmcvbnMjIiB4bWxuczpkYz0iaHR0cDovL3B1cmwub3JnL2RjL2VsZW1lbnRzLzEuMS8iIHhtbG5zOmlua3NjYXBlPSJodHRwOi8vd3d3Lmlua3NjYXBlLm9yZy9uYW1lc3BhY2VzL2lua3NjYXBlIiB4bWxuczpyZGY9Imh0dHA6Ly93d3cudzMub3JnLzE5OTkvMDIvMjItcmRmLXN5bnRheC1ucyMiIHhtbG5zOnNvZGlwb2RpPSJodHRwOi8vc29kaXBvZGkuc291cmNlZm9yZ2UubmV0L0RURC9zb2RpcG9kaS0wLmR0ZCIgeG1sbnM6c3ZnPSJodHRwOi8vd3d3LnczLm9yZy8yMDAwL3N2ZyIgeG1sbnM9Imh0dHA6Ly93d3cudzMub3JnLzIwMDAvc3ZnIiB4bWxuczp4bGluaz0iaHR0cDovL3d3dy53My5vcmcvMTk5OS94bGluayIgdmVyc2lvbj0iMS4xIiBpZD0ic3ZnNTM5MTEiIGlua3NjYXBlOnZlcnNpb249IjAuOTIuMyAoMjQwNTU0NiwgMjAxOC0wMy0xMSkiIHNvZGlwb2RpOmRvY25hbWU9InR4dF8xLnN2ZyIgeD0iMHB4IiB5PSIwcHgiIHZpZXdCb3g9IjAgMCAzMS44OCAzNi40NCIgc3R5bGU9ImVuYWJsZS1iYWNrZ3JvdW5kOm5ldyAwIDAgMzEuODggMzYuNDQ7IiB4bWw6c3BhY2U9InByZXNlcnZlIj4mI3hhOzxzb2RpcG9kaTpuYW1lZHZpZXcgYm9yZGVyY29sb3I9IiM2NjY2NjYiIGJvcmRlcm9wYWNpdHk9IjEiIGZpdC1tYXJnaW4tYm90dG9tPSIwIiBmaXQtbWFyZ2luLWxlZnQ9IjAiIGZpdC1tYXJnaW4tcmlnaHQ9IjAiIGZpdC1tYXJnaW4tdG9wPSIwIiBncmlkdG9sZXJhbmNlPSIxMCIgZ3VpZGV0b2xlcmFuY2U9IjEwIiBpZD0ibmFtZWR2aWV3NTM5MTMiIGlua3NjYXBlOmN1cnJlbnQtbGF5ZXI9InN2ZzUzOTExIiBpbmtzY2FwZTpjeD0iMTguMjE4MTc2IiBpbmtzY2FwZTpjeT0iMjEuNjAxMzQ4IiBpbmtzY2FwZTpwYWdlb3BhY2l0eT0iMCIgaW5rc2NhcGU6cGFnZXNoYWRvdz0iMiIgaW5rc2NhcGU6d2luZG93LWhlaWdodD0iMTAxNyIgaW5rc2NhcGU6d2luZG93LW1heGltaXplZD0iMSIgaW5rc2NhcGU6d2luZG93LXdpZHRoPSIxOTIwIiBpbmtzY2FwZTp3aW5kb3cteD0iLTgiIGlua3NjYXBlOndpbmRvdy15PSItOCIgaW5rc2NhcGU6em9vbT0iMTUuMTY4OTU5IiBvYmplY3R0b2xlcmFuY2U9IjEwIiBwYWdlY29sb3I9IiNmZmZmZmYiIHNob3dncmlkPSJmYWxzZSI+JiN4YTsJPC9zb2RpcG9kaTpuYW1lZHZpZXc+JiN4YTs8ZyBpZD0iZzUzOTA5IiB0cmFuc2Zvcm09InRyYW5zbGF0ZSgtMTAuOTI4NjI5LC0xLjE5NDYzKSI+JiN4YTsJPHRpdGxlIGlkPSJ0aXRsZTUzODYxIj5QYWdlLTE8L3RpdGxlPiYjeGE7CTxnIGlkPSJncm91cDQwNzgtMSIgdHJhbnNmb3JtPSJ0cmFuc2xhdGUoMTAuOTI4NiwtNS4yMzUzNykiPiYjeGE7CQk8dGl0bGUgaWQ9InRpdGxlNTM4NjMiPlRYVCAjMTwvdGl0bGU+JiN4YTsJCTxnIGlkPSJzaGFwZTQwNzktMiIgdHJhbnNmb3JtPSJ0cmFuc2xhdGUoNC41NTQ1NikiPiYjeGE7CQkJPHRpdGxlIGlkPSJ0aXRsZTUzODY1Ij5TaGVldC40MDc5PC90aXRsZT4mI3hhOwkJCTxwYXRoIGlkPSJwYXRoNTM4NjciIGlua3NjYXBlOmNvbm5lY3Rvci1jdXJ2YXR1cmU9IjAiIHN0eWxlPSJmaWxsOiNFMkU1RTc7IiBkPSJNMi4yOCw2LjQzQzEuMDIsNi40MywwLDcuNDYsMCw4LjcxdjMxLjg4ICAgICBjMCwxLjI1LDEuMDIsMi4yOCwyLjI4LDIuMjhoMjIuNzdjMS4yNSwwLDIuMjgtMS4wMywyLjI4LTIuMjhWMTUuNTRsLTkuMTEtOS4xMUgyLjI4eiIvPiYjeGE7CQk8L2c+JiN4YTsJCTxnIGlkPSJzaGFwZTQwODAtNCIgdHJhbnNmb3JtPSJ0cmFuc2xhdGUoMjIuNzcyOCwtMjcuMzI3NCkiPiYjeGE7CQkJPHRpdGxlIGlkPSJ0aXRsZTUzODcwIj5TaGVldC40MDgwPC90aXRsZT4mI3hhOwkJCTxwYXRoIGlkPSJwYXRoNTM4NzIiIGlua3NjYXBlOmNvbm5lY3Rvci1jdXJ2YXR1cmU9IjAiIHN0eWxlPSJmaWxsOiNCMEI3QkQ7IiBkPSJNMi4yOCw0Mi44N2g2LjgzTDAsMzMuNzZ2Ni44MyAgICAgQzAsNDEuODQsMS4wMiw0Mi44NywyLjI4LDQyLjg3eiIvPiYjeGE7CQk8L2c+JiN4YTsJCTxnIGlkPSJzaGFwZTQwODEtNiIgdHJhbnNmb3JtPSJ0cmFuc2xhdGUoMjUuMDUwMSwtMjAuNDk1NSkiPiYjeGE7CQkJPHRpdGxlIGlkPSJ0aXRsZTUzODc1Ij5TaGVldC40MDgxPC90aXRsZT4mI3hhOwkJCTxwYXRoIGlkPSJwYXRoNTM4NzciIGlua3NjYXBlOmNvbm5lY3Rvci1jdXJ2YXR1cmU9IjAiIHN0eWxlPSJmaWxsOiNDQUQxRDg7IiBkPSJNNi44Myw0Mi44N0wwLDM2LjA0aDYuODNWNDIuODd6Ii8+JiN4YTsJCTwvZz4mI3hhOwkJPGcgaWQ9InNoYXBlNDA4Mi04IiB0cmFuc2Zvcm09InRyYW5zbGF0ZSgwLC01LjY5MzIpIj4mI3hhOwkJCTx0aXRsZSBpZD0idGl0bGU1Mzg4MCI+U2hlZXQuNDA4MjwvdGl0bGU+JiN4YTsJCQk8cGF0aCBpZD0icGF0aDUzODgyIiBpbmtzY2FwZTpjb25uZWN0b3ItY3VydmF0dXJlPSIwIiBzdHlsZT0iZmlsbDojOTVBNUE1OyIgZD0iTTI3LjMzLDQxLjczYzAsMC42Mi0wLjUyLDEuMTQtMS4xNCwxLjE0SDEuMTQgICAgIEMwLjUxLDQyLjg3LDAsNDIuMzUsMCw0MS43M1YzMC4zNGMwLTAuNjIsMC41MS0xLjE0LDEuMTQtMS4xNGgyNS4wNWMwLjYyLDAsMS4xNCwwLjUyLDEuMTQsMS4xNEwyNy4zMyw0MS43M3oiLz4mI3hhOwkJPC9nPiYjeGE7CQk8ZyBpZD0ic2hhcGU0MDgzLTEwIiB0cmFuc2Zvcm09InRyYW5zbGF0ZSg0LjU1NDU2LC00LjU1NDU2KSI+JiN4YTsJCQk8dGl0bGUgaWQ9InRpdGxlNTM4ODUiPlNoZWV0LjQwODM8L3RpdGxlPiYjeGE7CQkJPHBhdGggaWQ9InBhdGg1Mzg4NyIgaW5rc2NhcGU6Y29ubmVjdG9yLWN1cnZhdHVyZT0iMCIgc3R5bGU9ImZpbGw6I0NBRDFEODsiIGQ9Ik0yMS42Myw0MS43M0gwdjEuMTRoMjEuNjMgICAgIGMwLjYzLDAsMS4xNC0wLjUyLDEuMTQtMS4xNHYtMS4xNEMyMi43Nyw0MS4yMiwyMi4yNiw0MS43MywyMS42Myw0MS43M3oiLz4mI3hhOwkJPC9nPiYjeGE7CQk8ZyBpZD0iZ3JvdXA0MDg0LTEyIiB0cmFuc2Zvcm09InRyYW5zbGF0ZSg1LjA5NzIxLC05LjI0Njc0KSI+JiN4YTsJCQk8dGl0bGUgaWQ9InRpdGxlNTM4OTAiPlNoZWV0LjQwODQ8L3RpdGxlPiYjeGE7CQkJPGcgaWQ9InNoYXBlNDA4NS0xMyI+JiN4YTsJCQkJPHRpdGxlIGlkPSJ0aXRsZTUzODkyIj5TaGVldC40MDg1PC90aXRsZT4mI3hhOwkJCQk8cGF0aCBpZD0icGF0aDUzODk0IiBpbmtzY2FwZTpjb25uZWN0b3ItY3VydmF0dXJlPSIwIiBzdHlsZT0iZmlsbDojRkZGRkZGOyIgZD0iTTQuOTksMzYuMzF2MC43M0gzLjAzdjUuODNIMS45NnYtNS44M0gwdi0wLjczICAgICAgSDQuOTl6Ii8+JiN4YTsJCQk8L2c+JiN4YTsJCQk8ZyBpZD0ic2hhcGU0MDg2LTE1IiB0cmFuc2Zvcm09InRyYW5zbGF0ZSg2LjEwMzExKSI+JiN4YTsJCQkJPHRpdGxlIGlkPSJ0aXRsZTUzODk3Ij5TaGVldC40MDg2PC90aXRsZT4mI3hhOwkJCQk8cGF0aCBpZD0icGF0aDUzODk5IiBpbmtzY2FwZTpjb25uZWN0b3ItY3VydmF0dXJlPSIwIiBzdHlsZT0iZmlsbDojRkZGRkZGOyIgZD0iTTMuMTcsMzkuNjhsMS42NiwzLjE5SDMuNTlsLTEuMDQtMi40OEgyLjQ2ICAgICAgbC0xLjEyLDIuNDhIMC4xMWwxLjY2LTMuMTlMMCwzNi4zMWgxLjIybDEuMTUsMi42N2gwLjA5bDEuMjYtMi42N2gxLjIyTDMuMTcsMzkuNjh6Ii8+JiN4YTsJCQk8L2c+JiN4YTsJCQk8ZyBpZD0ic2hhcGU0MDg3LTE3IiB0cmFuc2Zvcm09InRyYW5zbGF0ZSgxMi4xNDI1KSI+JiN4YTsJCQkJPHRpdGxlIGlkPSJ0aXRsZTUzOTAyIj5TaGVldC40MDg3PC90aXRsZT4mI3hhOwkJCQk8cGF0aCBpZD0icGF0aDUzOTA0IiBpbmtzY2FwZTpjb25uZWN0b3ItY3VydmF0dXJlPSIwIiBzdHlsZT0iZmlsbDojRkZGRkZGOyIgZD0iTTQuOTksMzYuMzF2MC43M0gzLjAzdjUuODNIMS45NnYtNS44M0gwdi0wLjczICAgICAgSDQuOTl6Ii8+JiN4YTsJCQk8L2c+JiN4YTsJCTwvZz4mI3hhOwk8L2c+JiN4YTs8L2c+JiN4YTs8L3N2Zz4=;rounded=1;shadow=0;glass=0;sketch=0;fontFamily=Helvetica;fontSize=14;fontColor=#004C99;strokeColor=#D4E1F5;strokeWidth=1;fillColor=#666666;opacity=50;" parent="1" vertex="1">
          <mxGeometry x="599.78" y="52" width="40.89" height="46" as="geometry" />
        </mxCell>
        <mxCell id="MlBWoHOVhUiWt70bIAHT-72" value="&lt;font style=&quot;font-size: 20px;&quot; color=&quot;#004c99&quot;&gt;x86 Platform&lt;/font&gt;" style="rounded=1;whiteSpace=wrap;html=1;fontFamily=Helvetica;fontSize=14;strokeColor=#6c8ebf;strokeWidth=1;fillColor=#dae8fc;opacity=50;verticalAlign=top;shadow=0;" parent="1" vertex="1">
          <mxGeometry x="689" y="-57.5" width="341" height="312.5" as="geometry" />
        </mxCell>
        <mxCell id="MlBWoHOVhUiWt70bIAHT-78" value="" style="rounded=1;whiteSpace=wrap;html=1;fontFamily=Helvetica;fontSize=20;strokeWidth=1;opacity=50;strokeColor=#D4E1F5;shadow=0;glass=1;" parent="1" vertex="1">
          <mxGeometry x="793.37" y="-27.5" width="220" height="276" as="geometry" />
        </mxCell>
        <mxCell id="MlBWoHOVhUiWt70bIAHT-73" value="&lt;font style=&quot;font-size: 20px;&quot; color=&quot;#004c99&quot;&gt;ARM Platform&lt;/font&gt;" style="rounded=1;whiteSpace=wrap;html=1;fontFamily=Helvetica;fontSize=14;strokeColor=#9673a6;strokeWidth=1;fillColor=#e1d5e7;opacity=50;verticalAlign=top;shadow=0;" parent="1" vertex="1">
          <mxGeometry x="690" y="280" width="340" height="320" as="geometry" />
        </mxCell>
        <mxCell id="MlBWoHOVhUiWt70bIAHT-77" value="" style="rounded=1;whiteSpace=wrap;html=1;fontFamily=Helvetica;fontSize=20;strokeWidth=1;opacity=50;strokeColor=#D4E1F5;shadow=0;glass=1;sketch=0;" parent="1" vertex="1">
          <mxGeometry x="793.37" y="314.5" width="220" height="278" as="geometry" />
        </mxCell>
        <mxCell id="MlBWoHOVhUiWt70bIAHT-74" value="&lt;font color=&quot;#004c99&quot;&gt;&lt;span style=&quot;font-size: 20px;&quot;&gt;Software Architecture&lt;/span&gt;&lt;/font&gt;" style="rounded=1;whiteSpace=wrap;html=1;fontFamily=Helvetica;fontSize=14;strokeColor=#666666;strokeWidth=1;fillColor=#f5f5f5;opacity=50;verticalAlign=top;fontColor=#333333;glass=0;shadow=0;" parent="1" vertex="1">
          <mxGeometry x="-84" y="89.5" width="291" height="322.5" as="geometry" />
        </mxCell>
        <mxCell id="MlBWoHOVhUiWt70bIAHT-65" value="&lt;font style=&quot;font-size: 20px;&quot; color=&quot;#004c99&quot;&gt;Conan Repository&lt;/font&gt;" style="rounded=1;whiteSpace=wrap;html=1;fontFamily=Helvetica;fontSize=14;strokeColor=#82b366;strokeWidth=1;fillColor=#d5e8d4;opacity=50;verticalAlign=top;shadow=0;sketch=0;" parent="1" vertex="1">
          <mxGeometry x="260" y="-50" width="230" height="650" as="geometry" />
        </mxCell>
        <mxCell id="MlBWoHOVhUiWt70bIAHT-67" value="" style="rounded=1;whiteSpace=wrap;html=1;fontFamily=Helvetica;fontSize=20;strokeWidth=1;opacity=50;strokeColor=#D4E1F5;shadow=0;glass=1;" parent="1" vertex="1">
          <mxGeometry x="290" y="98" width="170" height="90" as="geometry" />
        </mxCell>
        <mxCell id="MlBWoHOVhUiWt70bIAHT-68" value="" style="rounded=1;whiteSpace=wrap;html=1;fontFamily=Helvetica;fontSize=20;strokeWidth=1;opacity=50;strokeColor=#D4E1F5;shadow=0;glass=1;" parent="1" vertex="1">
          <mxGeometry x="290" y="196" width="170" height="90" as="geometry" />
        </mxCell>
        <mxCell id="MlBWoHOVhUiWt70bIAHT-69" value="" style="rounded=1;whiteSpace=wrap;html=1;fontFamily=Helvetica;fontSize=20;strokeWidth=1;opacity=50;strokeColor=#D4E1F5;shadow=0;glass=1;" parent="1" vertex="1">
          <mxGeometry x="290" y="294" width="170" height="90" as="geometry" />
        </mxCell>
        <mxCell id="MlBWoHOVhUiWt70bIAHT-70" value="" style="rounded=1;whiteSpace=wrap;html=1;fontFamily=Helvetica;fontSize=20;strokeWidth=1;opacity=50;strokeColor=#D4E1F5;shadow=0;glass=1;" parent="1" vertex="1">
          <mxGeometry x="290" y="392" width="170" height="90" as="geometry" />
        </mxCell>
        <mxCell id="MlBWoHOVhUiWt70bIAHT-71" value="" style="rounded=1;whiteSpace=wrap;html=1;fontFamily=Helvetica;fontSize=20;strokeWidth=1;opacity=50;strokeColor=#D4E1F5;shadow=0;glass=1;" parent="1" vertex="1">
          <mxGeometry x="290" y="490" width="170" height="90" as="geometry" />
        </mxCell>
        <mxCell id="MlBWoHOVhUiWt70bIAHT-66" value="" style="rounded=1;whiteSpace=wrap;html=1;fontFamily=Helvetica;fontSize=20;strokeWidth=1;opacity=50;strokeColor=#D4E1F5;shadow=0;glass=1;" parent="1" vertex="1">
          <mxGeometry x="290" width="170" height="90" as="geometry" />
        </mxCell>
        <mxCell id="MlBWoHOVhUiWt70bIAHT-1" value="" style="verticalLabelPosition=bottom;html=1;verticalAlign=top;align=center;strokeColor=none;fillColor=#00BEF2;shape=mxgraph.azure.computer;pointerEvents=1;rounded=1;fontSize=14;fontColor=#004C99;opacity=50;" parent="1" vertex="1">
          <mxGeometry x="717.75" y="-17.5" width="50" height="45" as="geometry" />
        </mxCell>
        <mxCell id="MlBWoHOVhUiWt70bIAHT-2" value="" style="verticalLabelPosition=bottom;html=1;verticalAlign=top;align=center;strokeColor=none;fillColor=#A680B8;shape=mxgraph.azure.computer;pointerEvents=1;rounded=1;fontSize=14;fontColor=#004C99;opacity=50;" parent="1" vertex="1">
          <mxGeometry x="722.12" y="320" width="50" height="45" as="geometry" />
        </mxCell>
        <mxCell id="MlBWoHOVhUiWt70bIAHT-3" value="&lt;font color=&quot;#004c99&quot;&gt;Base/1.0.1&lt;/font&gt;" style="verticalLabelPosition=bottom;html=1;verticalAlign=top;align=center;strokeColor=#666666;fillColor=#f5f5f5;shape=mxgraph.azure.cloud_service_package_file;rounded=1;fontSize=14;opacity=50;fontColor=#333333;" parent="1" vertex="1">
          <mxGeometry x="38.5" y="127.5" width="42.5" height="50" as="geometry" />
        </mxCell>
        <mxCell id="MlBWoHOVhUiWt70bIAHT-9" style="edgeStyle=orthogonalEdgeStyle;shape=connector;rounded=0;orthogonalLoop=1;jettySize=auto;html=1;entryX=0;entryY=0.5;entryDx=0;entryDy=0;entryPerimeter=0;labelBackgroundColor=default;fontFamily=Helvetica;fontSize=14;fontColor=#004C99;endArrow=classic;strokeColor=#004C99;exitX=0.5;exitY=0;exitDx=0;exitDy=0;exitPerimeter=0;" parent="1" source="MlBWoHOVhUiWt70bIAHT-4" target="MlBWoHOVhUiWt70bIAHT-3" edge="1">
          <mxGeometry relative="1" as="geometry" />
        </mxCell>
        <mxCell id="MlBWoHOVhUiWt70bIAHT-4" value="MidB/1.1.0" style="verticalLabelPosition=bottom;html=1;verticalAlign=top;align=center;strokeColor=none;fillColor=#666666;shape=mxgraph.azure.cloud_service_package_file;rounded=1;fontSize=14;fontColor=#004C99;opacity=50;" parent="1" vertex="1">
          <mxGeometry x="-66.5" y="216" width="42.5" height="50" as="geometry" />
        </mxCell>
        <mxCell id="MlBWoHOVhUiWt70bIAHT-8" style="edgeStyle=orthogonalEdgeStyle;rounded=0;orthogonalLoop=1;jettySize=auto;html=1;entryX=1;entryY=0.5;entryDx=0;entryDy=0;entryPerimeter=0;fontSize=14;fontColor=#004C99;exitX=0.5;exitY=0;exitDx=0;exitDy=0;exitPerimeter=0;strokeColor=#004C99;" parent="1" source="MlBWoHOVhUiWt70bIAHT-5" target="MlBWoHOVhUiWt70bIAHT-3" edge="1">
          <mxGeometry relative="1" as="geometry" />
        </mxCell>
        <mxCell id="MlBWoHOVhUiWt70bIAHT-5" value="MidA/2.0.1" style="verticalLabelPosition=bottom;html=1;verticalAlign=top;align=center;strokeColor=none;fillColor=#666666;shape=mxgraph.azure.cloud_service_package_file;rounded=1;fontSize=14;fontColor=#004C99;opacity=50;" parent="1" vertex="1">
          <mxGeometry x="146" y="216" width="42.5" height="50" as="geometry" />
        </mxCell>
        <mxCell id="MlBWoHOVhUiWt70bIAHT-11" value="" style="edgeStyle=orthogonalEdgeStyle;shape=connector;rounded=0;orthogonalLoop=1;jettySize=auto;html=1;labelBackgroundColor=default;fontFamily=Helvetica;fontSize=14;fontColor=#004C99;endArrow=classic;strokeColor=#004C99;" parent="1" source="MlBWoHOVhUiWt70bIAHT-10" target="MlBWoHOVhUiWt70bIAHT-3" edge="1">
          <mxGeometry relative="1" as="geometry" />
        </mxCell>
        <mxCell id="MlBWoHOVhUiWt70bIAHT-10" value="MidC/1.0.5" style="verticalLabelPosition=bottom;html=1;verticalAlign=top;align=center;strokeColor=none;fillColor=#666666;shape=mxgraph.azure.cloud_service_package_file;rounded=1;fontFamily=Helvetica;fontSize=14;fontColor=#004C99;opacity=50;" parent="1" vertex="1">
          <mxGeometry x="38.5" y="216" width="42.5" height="50" as="geometry" />
        </mxCell>
        <mxCell id="MlBWoHOVhUiWt70bIAHT-14" style="edgeStyle=orthogonalEdgeStyle;shape=connector;rounded=0;orthogonalLoop=1;jettySize=auto;html=1;exitX=0;exitY=0.5;exitDx=0;exitDy=0;exitPerimeter=0;labelBackgroundColor=default;fontFamily=Helvetica;fontSize=14;fontColor=#004C99;endArrow=classic;strokeColor=#004C99;" parent="1" source="MlBWoHOVhUiWt70bIAHT-12" target="MlBWoHOVhUiWt70bIAHT-4" edge="1">
          <mxGeometry relative="1" as="geometry" />
        </mxCell>
        <mxCell id="MlBWoHOVhUiWt70bIAHT-15" style="edgeStyle=orthogonalEdgeStyle;shape=connector;rounded=0;orthogonalLoop=1;jettySize=auto;html=1;exitX=0.51;exitY=0;exitDx=0;exitDy=0;exitPerimeter=0;labelBackgroundColor=default;fontFamily=Helvetica;fontSize=14;fontColor=#004C99;endArrow=classic;strokeColor=#004C99;entryX=0;entryY=0.5;entryDx=0;entryDy=0;entryPerimeter=0;" parent="1" source="MlBWoHOVhUiWt70bIAHT-12" target="MlBWoHOVhUiWt70bIAHT-10" edge="1">
          <mxGeometry relative="1" as="geometry" />
        </mxCell>
        <mxCell id="MlBWoHOVhUiWt70bIAHT-12" value="AppA/2.0.1" style="verticalLabelPosition=bottom;html=1;verticalAlign=top;align=center;strokeColor=none;fillColor=#666666;shape=mxgraph.azure.media_service;pointerEvents=1;rounded=1;fontFamily=Helvetica;fontSize=14;fontColor=#004C99;opacity=50;" parent="1" vertex="1">
          <mxGeometry x="-14" y="317.5" width="45" height="50" as="geometry" />
        </mxCell>
        <mxCell id="MlBWoHOVhUiWt70bIAHT-16" value="" style="edgeStyle=orthogonalEdgeStyle;shape=connector;rounded=0;orthogonalLoop=1;jettySize=auto;html=1;labelBackgroundColor=default;fontFamily=Helvetica;fontSize=14;fontColor=#004C99;endArrow=classic;strokeColor=#004C99;entryX=1;entryY=0.5;entryDx=0;entryDy=0;entryPerimeter=0;exitX=0.51;exitY=0;exitDx=0;exitDy=0;exitPerimeter=0;" parent="1" source="MlBWoHOVhUiWt70bIAHT-13" target="MlBWoHOVhUiWt70bIAHT-10" edge="1">
          <mxGeometry relative="1" as="geometry" />
        </mxCell>
        <mxCell id="MlBWoHOVhUiWt70bIAHT-17" style="edgeStyle=orthogonalEdgeStyle;shape=connector;rounded=0;orthogonalLoop=1;jettySize=auto;html=1;exitX=1;exitY=0.5;exitDx=0;exitDy=0;exitPerimeter=0;labelBackgroundColor=default;fontFamily=Helvetica;fontSize=14;fontColor=#004C99;endArrow=classic;strokeColor=#004C99;" parent="1" source="MlBWoHOVhUiWt70bIAHT-13" target="MlBWoHOVhUiWt70bIAHT-5" edge="1">
          <mxGeometry relative="1" as="geometry" />
        </mxCell>
        <mxCell id="MlBWoHOVhUiWt70bIAHT-13" value="AppB/3.1.0" style="verticalLabelPosition=bottom;html=1;verticalAlign=top;align=center;strokeColor=none;fillColor=#666666;shape=mxgraph.azure.media_service;pointerEvents=1;rounded=1;fontFamily=Helvetica;fontSize=14;fontColor=#004C99;opacity=50;" parent="1" vertex="1">
          <mxGeometry x="86" y="317.5" width="45" height="50" as="geometry" />
        </mxCell>
        <mxCell id="MlBWoHOVhUiWt70bIAHT-18" value="&lt;font color=&quot;#004c99&quot;&gt;Base/1.0.1&lt;/font&gt;" style="verticalLabelPosition=bottom;html=1;verticalAlign=top;align=center;strokeColor=#82b366;fillColor=#d5e8d4;shape=mxgraph.azure.cloud_service_package_file;rounded=1;fontSize=14;opacity=50;" parent="1" vertex="1">
          <mxGeometry x="930.25" y="-17.5" width="42.5" height="50" as="geometry" />
        </mxCell>
        <mxCell id="MlBWoHOVhUiWt70bIAHT-19" style="edgeStyle=orthogonalEdgeStyle;shape=connector;rounded=0;orthogonalLoop=1;jettySize=auto;html=1;entryX=0;entryY=0.5;entryDx=0;entryDy=0;entryPerimeter=0;labelBackgroundColor=default;fontFamily=Helvetica;fontSize=14;fontColor=#004C99;endArrow=classic;strokeColor=#004C99;exitX=0.5;exitY=0;exitDx=0;exitDy=0;exitPerimeter=0;" parent="1" source="MlBWoHOVhUiWt70bIAHT-20" target="MlBWoHOVhUiWt70bIAHT-18" edge="1">
          <mxGeometry relative="1" as="geometry" />
        </mxCell>
        <mxCell id="MlBWoHOVhUiWt70bIAHT-20" value="MidB/1.1.0" style="verticalLabelPosition=bottom;html=1;verticalAlign=top;align=center;strokeColor=none;fillColor=#00BEF2;shape=mxgraph.azure.cloud_service_package_file;rounded=1;fontSize=14;fontColor=#004C99;opacity=50;" parent="1" vertex="1">
          <mxGeometry x="807.75" y="73" width="42.5" height="50" as="geometry" />
        </mxCell>
        <mxCell id="MlBWoHOVhUiWt70bIAHT-23" value="" style="edgeStyle=orthogonalEdgeStyle;shape=connector;rounded=0;orthogonalLoop=1;jettySize=auto;html=1;labelBackgroundColor=default;fontFamily=Helvetica;fontSize=14;fontColor=#004C99;endArrow=classic;strokeColor=#004C99;" parent="1" source="MlBWoHOVhUiWt70bIAHT-24" target="MlBWoHOVhUiWt70bIAHT-18" edge="1">
          <mxGeometry relative="1" as="geometry" />
        </mxCell>
        <mxCell id="MlBWoHOVhUiWt70bIAHT-24" value="MidC/1.0.5" style="verticalLabelPosition=bottom;html=1;verticalAlign=top;align=center;strokeColor=none;fillColor=#00BEF2;shape=mxgraph.azure.cloud_service_package_file;rounded=1;fontFamily=Helvetica;fontSize=14;fontColor=#004C99;opacity=50;" parent="1" vertex="1">
          <mxGeometry x="930.25" y="73" width="42.5" height="50" as="geometry" />
        </mxCell>
        <mxCell id="MlBWoHOVhUiWt70bIAHT-25" style="edgeStyle=orthogonalEdgeStyle;shape=connector;rounded=0;orthogonalLoop=1;jettySize=auto;html=1;exitX=0;exitY=0.5;exitDx=0;exitDy=0;exitPerimeter=0;labelBackgroundColor=default;fontFamily=Helvetica;fontSize=14;fontColor=#004C99;endArrow=classic;strokeColor=#004C99;" parent="1" source="MlBWoHOVhUiWt70bIAHT-27" target="MlBWoHOVhUiWt70bIAHT-20" edge="1">
          <mxGeometry relative="1" as="geometry" />
        </mxCell>
        <mxCell id="MlBWoHOVhUiWt70bIAHT-26" style="edgeStyle=orthogonalEdgeStyle;shape=connector;rounded=0;orthogonalLoop=1;jettySize=auto;html=1;exitX=0.51;exitY=0;exitDx=0;exitDy=0;exitPerimeter=0;labelBackgroundColor=default;fontFamily=Helvetica;fontSize=14;fontColor=#004C99;endArrow=classic;strokeColor=#004C99;entryX=0;entryY=0.5;entryDx=0;entryDy=0;entryPerimeter=0;" parent="1" source="MlBWoHOVhUiWt70bIAHT-27" target="MlBWoHOVhUiWt70bIAHT-24" edge="1">
          <mxGeometry relative="1" as="geometry" />
        </mxCell>
        <mxCell id="MlBWoHOVhUiWt70bIAHT-27" value="AppA/2.0.1" style="verticalLabelPosition=bottom;html=1;verticalAlign=top;align=center;strokeColor=none;fillColor=#00BEF2;shape=mxgraph.azure.media_service;pointerEvents=1;rounded=1;fontFamily=Helvetica;fontSize=14;fontColor=#004C99;opacity=50;" parent="1" vertex="1">
          <mxGeometry x="867.75" y="171" width="45" height="50" as="geometry" />
        </mxCell>
        <mxCell id="MlBWoHOVhUiWt70bIAHT-44" value="&lt;font color=&quot;#004c99&quot;&gt;Base/1.0.1&lt;/font&gt;" style="verticalLabelPosition=bottom;html=1;verticalAlign=top;align=center;strokeColor=#82b366;fillColor=#d5e8d4;shape=mxgraph.azure.cloud_service_package_file;rounded=1;fontSize=14;opacity=50;" parent="1" vertex="1">
          <mxGeometry x="822.12" y="320" width="42.5" height="50" as="geometry" />
        </mxCell>
        <mxCell id="MlBWoHOVhUiWt70bIAHT-47" style="edgeStyle=orthogonalEdgeStyle;rounded=0;orthogonalLoop=1;jettySize=auto;html=1;entryX=1;entryY=0.5;entryDx=0;entryDy=0;entryPerimeter=0;fontSize=14;fontColor=#004C99;exitX=0.5;exitY=0;exitDx=0;exitDy=0;exitPerimeter=0;strokeColor=#004C99;" parent="1" source="MlBWoHOVhUiWt70bIAHT-48" target="MlBWoHOVhUiWt70bIAHT-44" edge="1">
          <mxGeometry relative="1" as="geometry" />
        </mxCell>
        <mxCell id="MlBWoHOVhUiWt70bIAHT-48" value="MidA/2.0.1" style="verticalLabelPosition=bottom;html=1;verticalAlign=top;align=center;strokeColor=none;fillColor=#A680B8;shape=mxgraph.azure.cloud_service_package_file;rounded=1;fontSize=14;fontColor=#004C99;opacity=50;" parent="1" vertex="1">
          <mxGeometry x="949.62" y="414.5" width="42.5" height="50" as="geometry" />
        </mxCell>
        <mxCell id="MlBWoHOVhUiWt70bIAHT-49" value="" style="edgeStyle=orthogonalEdgeStyle;shape=connector;rounded=0;orthogonalLoop=1;jettySize=auto;html=1;labelBackgroundColor=default;fontFamily=Helvetica;fontSize=14;fontColor=#004C99;endArrow=classic;strokeColor=#004C99;" parent="1" source="MlBWoHOVhUiWt70bIAHT-50" target="MlBWoHOVhUiWt70bIAHT-44" edge="1">
          <mxGeometry relative="1" as="geometry" />
        </mxCell>
        <mxCell id="MlBWoHOVhUiWt70bIAHT-50" value="MidC/1.0.5" style="verticalLabelPosition=bottom;html=1;verticalAlign=top;align=center;strokeColor=none;fillColor=#A680B8;shape=mxgraph.azure.cloud_service_package_file;rounded=1;fontFamily=Helvetica;fontSize=14;fontColor=#004C99;opacity=50;" parent="1" vertex="1">
          <mxGeometry x="822.12" y="414.5" width="42.5" height="50" as="geometry" />
        </mxCell>
        <mxCell id="MlBWoHOVhUiWt70bIAHT-54" value="" style="edgeStyle=orthogonalEdgeStyle;shape=connector;rounded=0;orthogonalLoop=1;jettySize=auto;html=1;labelBackgroundColor=default;fontFamily=Helvetica;fontSize=14;fontColor=#004C99;endArrow=classic;strokeColor=#004C99;entryX=1;entryY=0.5;entryDx=0;entryDy=0;entryPerimeter=0;exitX=0.51;exitY=0;exitDx=0;exitDy=0;exitPerimeter=0;" parent="1" source="MlBWoHOVhUiWt70bIAHT-56" target="MlBWoHOVhUiWt70bIAHT-50" edge="1">
          <mxGeometry relative="1" as="geometry" />
        </mxCell>
        <mxCell id="MlBWoHOVhUiWt70bIAHT-55" style="edgeStyle=orthogonalEdgeStyle;shape=connector;rounded=0;orthogonalLoop=1;jettySize=auto;html=1;exitX=1;exitY=0.5;exitDx=0;exitDy=0;exitPerimeter=0;labelBackgroundColor=default;fontFamily=Helvetica;fontSize=14;fontColor=#004C99;endArrow=classic;strokeColor=#004C99;" parent="1" source="MlBWoHOVhUiWt70bIAHT-56" target="MlBWoHOVhUiWt70bIAHT-48" edge="1">
          <mxGeometry relative="1" as="geometry" />
        </mxCell>
        <mxCell id="MlBWoHOVhUiWt70bIAHT-56" value="AppB/3.1.0" style="verticalLabelPosition=bottom;html=1;verticalAlign=top;align=center;strokeColor=none;fillColor=#A680B8;shape=mxgraph.azure.media_service;pointerEvents=1;rounded=1;fontFamily=Helvetica;fontSize=14;fontColor=#004C99;opacity=50;" parent="1" vertex="1">
          <mxGeometry x="889.62" y="512.5" width="45" height="50" as="geometry" />
        </mxCell>
        <mxCell id="MlBWoHOVhUiWt70bIAHT-57" value="&lt;font color=&quot;#004c99&quot;&gt;Base/1.0.1&lt;/font&gt;" style="verticalLabelPosition=bottom;html=1;verticalAlign=top;align=center;strokeColor=#82b366;fillColor=#d5e8d4;shape=mxgraph.azure.cloud_service_package_file;rounded=1;fontSize=14;opacity=50;" parent="1" vertex="1">
          <mxGeometry x="310" y="10" width="42.5" height="50" as="geometry" />
        </mxCell>
        <mxCell id="MlBWoHOVhUiWt70bIAHT-59" value="MidA/2.0.1" style="verticalLabelPosition=bottom;html=1;verticalAlign=top;align=center;strokeColor=none;fillColor=#A680B8;shape=mxgraph.azure.cloud_service_package_file;rounded=1;fontSize=14;fontColor=#004C99;opacity=50;" parent="1" vertex="1">
          <mxGeometry x="310" y="108" width="42.5" height="50" as="geometry" />
        </mxCell>
        <mxCell id="MlBWoHOVhUiWt70bIAHT-60" value="MidB/1.1.0" style="verticalLabelPosition=bottom;html=1;verticalAlign=top;align=center;strokeColor=none;fillColor=#00BEF2;shape=mxgraph.azure.cloud_service_package_file;rounded=1;fontSize=14;fontColor=#004C99;opacity=50;" parent="1" vertex="1">
          <mxGeometry x="310" y="206" width="42.5" height="50" as="geometry" />
        </mxCell>
        <mxCell id="MlBWoHOVhUiWt70bIAHT-61" value="MidC/1.0.5" style="verticalLabelPosition=bottom;html=1;verticalAlign=top;align=center;strokeColor=none;fillColor=#00BEF2;shape=mxgraph.azure.cloud_service_package_file;rounded=1;fontFamily=Helvetica;fontSize=14;fontColor=#004C99;opacity=50;" parent="1" vertex="1">
          <mxGeometry x="310" y="304" width="42.5" height="50" as="geometry" />
        </mxCell>
        <mxCell id="MlBWoHOVhUiWt70bIAHT-62" value="MidC/1.0.5" style="verticalLabelPosition=bottom;html=1;verticalAlign=top;align=center;strokeColor=none;fillColor=#A680B8;shape=mxgraph.azure.cloud_service_package_file;rounded=1;fontFamily=Helvetica;fontSize=14;fontColor=#004C99;opacity=50;" parent="1" vertex="1">
          <mxGeometry x="400" y="304" width="42.5" height="50" as="geometry" />
        </mxCell>
        <mxCell id="MlBWoHOVhUiWt70bIAHT-63" value="AppA/2.0.1" style="verticalLabelPosition=bottom;html=1;verticalAlign=top;align=center;strokeColor=none;fillColor=#00BEF2;shape=mxgraph.azure.media_service;pointerEvents=1;rounded=1;fontFamily=Helvetica;fontSize=14;fontColor=#004C99;opacity=50;" parent="1" vertex="1">
          <mxGeometry x="310" y="402" width="45" height="50" as="geometry" />
        </mxCell>
        <mxCell id="MlBWoHOVhUiWt70bIAHT-64" value="AppB/3.1.0" style="verticalLabelPosition=bottom;html=1;verticalAlign=top;align=center;strokeColor=none;fillColor=#A680B8;shape=mxgraph.azure.media_service;pointerEvents=1;rounded=1;fontFamily=Helvetica;fontSize=14;fontColor=#004C99;opacity=50;" parent="1" vertex="1">
          <mxGeometry x="310" y="500" width="45" height="50" as="geometry" />
        </mxCell>
        <mxCell id="GNxFSSs-TtCFd1PmESh9-15" value="" style="shape=flexArrow;endArrow=classic;html=1;rounded=0;labelBackgroundColor=default;fontFamily=Helvetica;fontSize=14;fontColor=#004C99;strokeColor=#9673a6;entryX=-0.001;entryY=0.787;entryDx=0;entryDy=0;exitX=0.998;exitY=0.37;exitDx=0;exitDy=0;fillColor=#e1d5e7;opacity=50;endWidth=60;endSize=7.26;width=32;exitPerimeter=0;entryPerimeter=0;" parent="1" edge="1">
          <mxGeometry width="50" height="50" relative="1" as="geometry">
            <mxPoint x="490.87999999999994" y="463.71000000000004" as="sourcePoint" />
            <mxPoint x="690.0012500000001" y="463.49749999999995" as="targetPoint" />
          </mxGeometry>
        </mxCell>
        <mxCell id="GNxFSSs-TtCFd1PmESh9-20" value="" style="shape=image;verticalLabelPosition=bottom;labelBackgroundColor=#ffffff;verticalAlign=top;aspect=fixed;imageAspect=0;image=data:image/svg+xml,PHN2ZyB4bWxuczpjYz0iaHR0cDovL2NyZWF0aXZlY29tbW9ucy5vcmcvbnMjIiB4bWxuczpkYz0iaHR0cDovL3B1cmwub3JnL2RjL2VsZW1lbnRzLzEuMS8iIHhtbG5zOmlua3NjYXBlPSJodHRwOi8vd3d3Lmlua3NjYXBlLm9yZy9uYW1lc3BhY2VzL2lua3NjYXBlIiB4bWxuczpyZGY9Imh0dHA6Ly93d3cudzMub3JnLzE5OTkvMDIvMjItcmRmLXN5bnRheC1ucyMiIHhtbG5zOnNvZGlwb2RpPSJodHRwOi8vc29kaXBvZGkuc291cmNlZm9yZ2UubmV0L0RURC9zb2RpcG9kaS0wLmR0ZCIgeG1sbnM6c3ZnPSJodHRwOi8vd3d3LnczLm9yZy8yMDAwL3N2ZyIgeG1sbnM9Imh0dHA6Ly93d3cudzMub3JnLzIwMDAvc3ZnIiB4bWxuczp4bGluaz0iaHR0cDovL3d3dy53My5vcmcvMTk5OS94bGluayIgdmVyc2lvbj0iMS4xIiBpZD0ic3ZnNTM5MTEiIGlua3NjYXBlOnZlcnNpb249IjAuOTIuMyAoMjQwNTU0NiwgMjAxOC0wMy0xMSkiIHNvZGlwb2RpOmRvY25hbWU9InR4dF8xLnN2ZyIgeD0iMHB4IiB5PSIwcHgiIHZpZXdCb3g9IjAgMCAzMS44OCAzNi40NCIgc3R5bGU9ImVuYWJsZS1iYWNrZ3JvdW5kOm5ldyAwIDAgMzEuODggMzYuNDQ7IiB4bWw6c3BhY2U9InByZXNlcnZlIj4mI3hhOzxzb2RpcG9kaTpuYW1lZHZpZXcgYm9yZGVyY29sb3I9IiM2NjY2NjYiIGJvcmRlcm9wYWNpdHk9IjEiIGZpdC1tYXJnaW4tYm90dG9tPSIwIiBmaXQtbWFyZ2luLWxlZnQ9IjAiIGZpdC1tYXJnaW4tcmlnaHQ9IjAiIGZpdC1tYXJnaW4tdG9wPSIwIiBncmlkdG9sZXJhbmNlPSIxMCIgZ3VpZGV0b2xlcmFuY2U9IjEwIiBpZD0ibmFtZWR2aWV3NTM5MTMiIGlua3NjYXBlOmN1cnJlbnQtbGF5ZXI9InN2ZzUzOTExIiBpbmtzY2FwZTpjeD0iMTguMjE4MTc2IiBpbmtzY2FwZTpjeT0iMjEuNjAxMzQ4IiBpbmtzY2FwZTpwYWdlb3BhY2l0eT0iMCIgaW5rc2NhcGU6cGFnZXNoYWRvdz0iMiIgaW5rc2NhcGU6d2luZG93LWhlaWdodD0iMTAxNyIgaW5rc2NhcGU6d2luZG93LW1heGltaXplZD0iMSIgaW5rc2NhcGU6d2luZG93LXdpZHRoPSIxOTIwIiBpbmtzY2FwZTp3aW5kb3cteD0iLTgiIGlua3NjYXBlOndpbmRvdy15PSItOCIgaW5rc2NhcGU6em9vbT0iMTUuMTY4OTU5IiBvYmplY3R0b2xlcmFuY2U9IjEwIiBwYWdlY29sb3I9IiNmZmZmZmYiIHNob3dncmlkPSJmYWxzZSI+JiN4YTsJPC9zb2RpcG9kaTpuYW1lZHZpZXc+JiN4YTs8ZyBpZD0iZzUzOTA5IiB0cmFuc2Zvcm09InRyYW5zbGF0ZSgtMTAuOTI4NjI5LC0xLjE5NDYzKSI+JiN4YTsJPHRpdGxlIGlkPSJ0aXRsZTUzODYxIj5QYWdlLTE8L3RpdGxlPiYjeGE7CTxnIGlkPSJncm91cDQwNzgtMSIgdHJhbnNmb3JtPSJ0cmFuc2xhdGUoMTAuOTI4NiwtNS4yMzUzNykiPiYjeGE7CQk8dGl0bGUgaWQ9InRpdGxlNTM4NjMiPlRYVCAjMTwvdGl0bGU+JiN4YTsJCTxnIGlkPSJzaGFwZTQwNzktMiIgdHJhbnNmb3JtPSJ0cmFuc2xhdGUoNC41NTQ1NikiPiYjeGE7CQkJPHRpdGxlIGlkPSJ0aXRsZTUzODY1Ij5TaGVldC40MDc5PC90aXRsZT4mI3hhOwkJCTxwYXRoIGlkPSJwYXRoNTM4NjciIGlua3NjYXBlOmNvbm5lY3Rvci1jdXJ2YXR1cmU9IjAiIHN0eWxlPSJmaWxsOiNFMkU1RTc7IiBkPSJNMi4yOCw2LjQzQzEuMDIsNi40MywwLDcuNDYsMCw4LjcxdjMxLjg4ICAgICBjMCwxLjI1LDEuMDIsMi4yOCwyLjI4LDIuMjhoMjIuNzdjMS4yNSwwLDIuMjgtMS4wMywyLjI4LTIuMjhWMTUuNTRsLTkuMTEtOS4xMUgyLjI4eiIvPiYjeGE7CQk8L2c+JiN4YTsJCTxnIGlkPSJzaGFwZTQwODAtNCIgdHJhbnNmb3JtPSJ0cmFuc2xhdGUoMjIuNzcyOCwtMjcuMzI3NCkiPiYjeGE7CQkJPHRpdGxlIGlkPSJ0aXRsZTUzODcwIj5TaGVldC40MDgwPC90aXRsZT4mI3hhOwkJCTxwYXRoIGlkPSJwYXRoNTM4NzIiIGlua3NjYXBlOmNvbm5lY3Rvci1jdXJ2YXR1cmU9IjAiIHN0eWxlPSJmaWxsOiNCMEI3QkQ7IiBkPSJNMi4yOCw0Mi44N2g2LjgzTDAsMzMuNzZ2Ni44MyAgICAgQzAsNDEuODQsMS4wMiw0Mi44NywyLjI4LDQyLjg3eiIvPiYjeGE7CQk8L2c+JiN4YTsJCTxnIGlkPSJzaGFwZTQwODEtNiIgdHJhbnNmb3JtPSJ0cmFuc2xhdGUoMjUuMDUwMSwtMjAuNDk1NSkiPiYjeGE7CQkJPHRpdGxlIGlkPSJ0aXRsZTUzODc1Ij5TaGVldC40MDgxPC90aXRsZT4mI3hhOwkJCTxwYXRoIGlkPSJwYXRoNTM4NzciIGlua3NjYXBlOmNvbm5lY3Rvci1jdXJ2YXR1cmU9IjAiIHN0eWxlPSJmaWxsOiNDQUQxRDg7IiBkPSJNNi44Myw0Mi44N0wwLDM2LjA0aDYuODNWNDIuODd6Ii8+JiN4YTsJCTwvZz4mI3hhOwkJPGcgaWQ9InNoYXBlNDA4Mi04IiB0cmFuc2Zvcm09InRyYW5zbGF0ZSgwLC01LjY5MzIpIj4mI3hhOwkJCTx0aXRsZSBpZD0idGl0bGU1Mzg4MCI+U2hlZXQuNDA4MjwvdGl0bGU+JiN4YTsJCQk8cGF0aCBpZD0icGF0aDUzODgyIiBpbmtzY2FwZTpjb25uZWN0b3ItY3VydmF0dXJlPSIwIiBzdHlsZT0iZmlsbDojOTVBNUE1OyIgZD0iTTI3LjMzLDQxLjczYzAsMC42Mi0wLjUyLDEuMTQtMS4xNCwxLjE0SDEuMTQgICAgIEMwLjUxLDQyLjg3LDAsNDIuMzUsMCw0MS43M1YzMC4zNGMwLTAuNjIsMC41MS0xLjE0LDEuMTQtMS4xNGgyNS4wNWMwLjYyLDAsMS4xNCwwLjUyLDEuMTQsMS4xNEwyNy4zMyw0MS43M3oiLz4mI3hhOwkJPC9nPiYjeGE7CQk8ZyBpZD0ic2hhcGU0MDgzLTEwIiB0cmFuc2Zvcm09InRyYW5zbGF0ZSg0LjU1NDU2LC00LjU1NDU2KSI+JiN4YTsJCQk8dGl0bGUgaWQ9InRpdGxlNTM4ODUiPlNoZWV0LjQwODM8L3RpdGxlPiYjeGE7CQkJPHBhdGggaWQ9InBhdGg1Mzg4NyIgaW5rc2NhcGU6Y29ubmVjdG9yLWN1cnZhdHVyZT0iMCIgc3R5bGU9ImZpbGw6I0NBRDFEODsiIGQ9Ik0yMS42Myw0MS43M0gwdjEuMTRoMjEuNjMgICAgIGMwLjYzLDAsMS4xNC0wLjUyLDEuMTQtMS4xNHYtMS4xNEMyMi43Nyw0MS4yMiwyMi4yNiw0MS43MywyMS42Myw0MS43M3oiLz4mI3hhOwkJPC9nPiYjeGE7CQk8ZyBpZD0iZ3JvdXA0MDg0LTEyIiB0cmFuc2Zvcm09InRyYW5zbGF0ZSg1LjA5NzIxLC05LjI0Njc0KSI+JiN4YTsJCQk8dGl0bGUgaWQ9InRpdGxlNTM4OTAiPlNoZWV0LjQwODQ8L3RpdGxlPiYjeGE7CQkJPGcgaWQ9InNoYXBlNDA4NS0xMyI+JiN4YTsJCQkJPHRpdGxlIGlkPSJ0aXRsZTUzODkyIj5TaGVldC40MDg1PC90aXRsZT4mI3hhOwkJCQk8cGF0aCBpZD0icGF0aDUzODk0IiBpbmtzY2FwZTpjb25uZWN0b3ItY3VydmF0dXJlPSIwIiBzdHlsZT0iZmlsbDojRkZGRkZGOyIgZD0iTTQuOTksMzYuMzF2MC43M0gzLjAzdjUuODNIMS45NnYtNS44M0gwdi0wLjczICAgICAgSDQuOTl6Ii8+JiN4YTsJCQk8L2c+JiN4YTsJCQk8ZyBpZD0ic2hhcGU0MDg2LTE1IiB0cmFuc2Zvcm09InRyYW5zbGF0ZSg2LjEwMzExKSI+JiN4YTsJCQkJPHRpdGxlIGlkPSJ0aXRsZTUzODk3Ij5TaGVldC40MDg2PC90aXRsZT4mI3hhOwkJCQk8cGF0aCBpZD0icGF0aDUzODk5IiBpbmtzY2FwZTpjb25uZWN0b3ItY3VydmF0dXJlPSIwIiBzdHlsZT0iZmlsbDojRkZGRkZGOyIgZD0iTTMuMTcsMzkuNjhsMS42NiwzLjE5SDMuNTlsLTEuMDQtMi40OEgyLjQ2ICAgICAgbC0xLjEyLDIuNDhIMC4xMWwxLjY2LTMuMTlMMCwzNi4zMWgxLjIybDEuMTUsMi42N2gwLjA5bDEuMjYtMi42N2gxLjIyTDMuMTcsMzkuNjh6Ii8+JiN4YTsJCQk8L2c+JiN4YTsJCQk8ZyBpZD0ic2hhcGU0MDg3LTE3IiB0cmFuc2Zvcm09InRyYW5zbGF0ZSgxMi4xNDI1KSI+JiN4YTsJCQkJPHRpdGxlIGlkPSJ0aXRsZTUzOTAyIj5TaGVldC40MDg3PC90aXRsZT4mI3hhOwkJCQk8cGF0aCBpZD0icGF0aDUzOTA0IiBpbmtzY2FwZTpjb25uZWN0b3ItY3VydmF0dXJlPSIwIiBzdHlsZT0iZmlsbDojRkZGRkZGOyIgZD0iTTQuOTksMzYuMzF2MC43M0gzLjAzdjUuODNIMS45NnYtNS44M0gwdi0wLjczICAgICAgSDQuOTl6Ii8+JiN4YTsJCQk8L2c+JiN4YTsJCTwvZz4mI3hhOwk8L2c+JiN4YTs8L2c+JiN4YTs8L3N2Zz4=;rounded=1;shadow=0;glass=0;sketch=0;fontFamily=Helvetica;fontSize=14;fontColor=#004C99;strokeColor=#D4E1F5;strokeWidth=1;fillColor=#666666;opacity=50;" parent="1" vertex="1">
          <mxGeometry x="599.78" y="384" width="40.89" height="46" as="geometry" />
        </mxCell>
        <mxCell id="GNxFSSs-TtCFd1PmESh9-21" value="" style="shape=flexArrow;endArrow=classic;html=1;rounded=0;labelBackgroundColor=default;fontFamily=Helvetica;fontSize=14;fontColor=#004C99;strokeColor=#6c8ebf;entryX=-0.001;entryY=0.787;entryDx=0;entryDy=0;exitX=0.998;exitY=0.37;exitDx=0;exitDy=0;fillColor=#dae8fc;opacity=50;endWidth=60;endSize=7.26;width=32;exitPerimeter=0;entryPerimeter=0;" parent="1" edge="1">
          <mxGeometry width="50" height="50" relative="1" as="geometry">
            <mxPoint x="489.8800000000001" y="132.71000000000004" as="sourcePoint" />
            <mxPoint x="689.0012500000003" y="132.49749999999995" as="targetPoint" />
          </mxGeometry>
        </mxCell>
      </root>
    </mxGraphModel>
  </diagram>
  <diagram id="wXygL939kgF3VoQaGY8S" name="Page-3">
    <mxGraphModel dx="1410" dy="769" grid="1" gridSize="5" guides="1" tooltips="1" connect="1" arrows="1" fold="1" page="1" pageScale="1" pageWidth="850" pageHeight="1100" math="0" shadow="0">
      <root>
        <mxCell id="0" />
        <mxCell id="1" parent="0" />
        <mxCell id="DTWjMZg2UlmTl95M_Ohm-1" value="" style="rounded=0;whiteSpace=wrap;html=1;" vertex="1" parent="1">
          <mxGeometry x="79.31" y="50" width="640" height="30" as="geometry" />
        </mxCell>
        <mxCell id="DTWjMZg2UlmTl95M_Ohm-2" value="&lt;font style=&quot;font-size: 10px;&quot;&gt;Offset&lt;/font&gt;" style="rounded=0;whiteSpace=wrap;html=1;fontSize=10;" vertex="1" parent="1">
          <mxGeometry x="600" y="140" width="120" height="30" as="geometry" />
        </mxCell>
        <mxCell id="DTWjMZg2UlmTl95M_Ohm-3" value="&lt;font style=&quot;font-size: 10px;&quot;&gt;L1 Index&lt;/font&gt;" style="rounded=0;whiteSpace=wrap;html=1;fontSize=10;" vertex="1" parent="1">
          <mxGeometry x="510" y="140" width="90" height="30" as="geometry" />
        </mxCell>
        <mxCell id="DTWjMZg2UlmTl95M_Ohm-4" value="&lt;font style=&quot;font-size: 10px;&quot;&gt;L2 Index&lt;/font&gt;" style="rounded=0;whiteSpace=wrap;html=1;fontSize=10;" vertex="1" parent="1">
          <mxGeometry x="420" y="140" width="90" height="30" as="geometry" />
        </mxCell>
        <mxCell id="DTWjMZg2UlmTl95M_Ohm-5" value="&lt;font style=&quot;font-size: 10px;&quot;&gt;L3 Index&lt;/font&gt;" style="rounded=0;whiteSpace=wrap;html=1;fontSize=10;" vertex="1" parent="1">
          <mxGeometry x="330" y="140" width="90" height="30" as="geometry" />
        </mxCell>
        <mxCell id="DTWjMZg2UlmTl95M_Ohm-6" value="&lt;font style=&quot;font-size: 10px;&quot;&gt;L4 Index&lt;/font&gt;" style="rounded=0;whiteSpace=wrap;html=1;fontSize=10;" vertex="1" parent="1">
          <mxGeometry x="240" y="140" width="90" height="30" as="geometry" />
        </mxCell>
        <mxCell id="DTWjMZg2UlmTl95M_Ohm-8" value="" style="endArrow=none;html=1;rounded=0;exitX=0;exitY=0;exitDx=0;exitDy=0;" edge="1" parent="1" source="DTWjMZg2UlmTl95M_Ohm-1">
          <mxGeometry width="50" height="50" relative="1" as="geometry">
            <mxPoint x="59.31" y="260" as="sourcePoint" />
            <mxPoint x="79.31" y="30" as="targetPoint" />
          </mxGeometry>
        </mxCell>
        <mxCell id="DTWjMZg2UlmTl95M_Ohm-9" value="" style="endArrow=none;html=1;rounded=0;exitX=1;exitY=0;exitDx=0;exitDy=0;" edge="1" parent="1" source="DTWjMZg2UlmTl95M_Ohm-1">
          <mxGeometry width="50" height="50" relative="1" as="geometry">
            <mxPoint x="719.31" y="40" as="sourcePoint" />
            <mxPoint x="719.31" y="30" as="targetPoint" />
          </mxGeometry>
        </mxCell>
        <mxCell id="DTWjMZg2UlmTl95M_Ohm-10" value="" style="endArrow=classic;startArrow=classic;html=1;rounded=0;" edge="1" parent="1">
          <mxGeometry width="50" height="50" relative="1" as="geometry">
            <mxPoint x="79.31" y="40" as="sourcePoint" />
            <mxPoint x="719.31" y="40" as="targetPoint" />
          </mxGeometry>
        </mxCell>
        <mxCell id="DTWjMZg2UlmTl95M_Ohm-11" value="64bit" style="edgeLabel;html=1;align=center;verticalAlign=middle;resizable=0;points=[];" vertex="1" connectable="0" parent="DTWjMZg2UlmTl95M_Ohm-10">
          <mxGeometry x="0.0876" y="1" relative="1" as="geometry">
            <mxPoint x="-28" as="offset" />
          </mxGeometry>
        </mxCell>
        <mxCell id="DTWjMZg2UlmTl95M_Ohm-12" value="" style="endArrow=none;html=1;rounded=0;exitX=0;exitY=0;exitDx=0;exitDy=0;" edge="1" parent="1">
          <mxGeometry width="50" height="50" relative="1" as="geometry">
            <mxPoint x="240" y="120.00000000000011" as="sourcePoint" />
            <mxPoint x="240" y="100" as="targetPoint" />
          </mxGeometry>
        </mxCell>
        <mxCell id="DTWjMZg2UlmTl95M_Ohm-13" value="" style="endArrow=none;html=1;rounded=0;exitX=1;exitY=0;exitDx=0;exitDy=0;" edge="1" parent="1">
          <mxGeometry width="50" height="50" relative="1" as="geometry">
            <mxPoint x="720" y="120" as="sourcePoint" />
            <mxPoint x="720" y="100" as="targetPoint" />
          </mxGeometry>
        </mxCell>
        <mxCell id="DTWjMZg2UlmTl95M_Ohm-14" value="" style="endArrow=classic;startArrow=classic;html=1;rounded=0;" edge="1" parent="1">
          <mxGeometry width="50" height="50" relative="1" as="geometry">
            <mxPoint x="240" y="110" as="sourcePoint" />
            <mxPoint x="720" y="110" as="targetPoint" />
          </mxGeometry>
        </mxCell>
        <mxCell id="DTWjMZg2UlmTl95M_Ohm-15" value="48bit" style="edgeLabel;html=1;align=center;verticalAlign=middle;resizable=0;points=[];" vertex="1" connectable="0" parent="DTWjMZg2UlmTl95M_Ohm-14">
          <mxGeometry x="0.0876" y="1" relative="1" as="geometry">
            <mxPoint x="-21" as="offset" />
          </mxGeometry>
        </mxCell>
        <mxCell id="DTWjMZg2UlmTl95M_Ohm-16" value="" style="endArrow=none;html=1;rounded=0;exitX=0;exitY=0;exitDx=0;exitDy=0;" edge="1" parent="1">
          <mxGeometry width="50" height="50" relative="1" as="geometry">
            <mxPoint x="600" y="140.00000000000023" as="sourcePoint" />
            <mxPoint x="600" y="120" as="targetPoint" />
          </mxGeometry>
        </mxCell>
        <mxCell id="DTWjMZg2UlmTl95M_Ohm-17" value="" style="endArrow=none;html=1;rounded=0;exitX=1;exitY=0;exitDx=0;exitDy=0;" edge="1" parent="1">
          <mxGeometry width="50" height="50" relative="1" as="geometry">
            <mxPoint x="720" y="140" as="sourcePoint" />
            <mxPoint x="720" y="120" as="targetPoint" />
          </mxGeometry>
        </mxCell>
        <mxCell id="DTWjMZg2UlmTl95M_Ohm-18" value="" style="endArrow=classic;startArrow=classic;html=1;rounded=0;fontSize=11;" edge="1" parent="1">
          <mxGeometry width="50" height="50" relative="1" as="geometry">
            <mxPoint x="600" y="130" as="sourcePoint" />
            <mxPoint x="720" y="130" as="targetPoint" />
          </mxGeometry>
        </mxCell>
        <mxCell id="DTWjMZg2UlmTl95M_Ohm-19" value="12" style="edgeLabel;html=1;align=center;verticalAlign=middle;resizable=0;points=[];fontSize=10;" vertex="1" connectable="0" parent="DTWjMZg2UlmTl95M_Ohm-18">
          <mxGeometry x="0.0876" y="1" relative="1" as="geometry">
            <mxPoint x="-6" as="offset" />
          </mxGeometry>
        </mxCell>
        <mxCell id="DTWjMZg2UlmTl95M_Ohm-20" value="" style="endArrow=none;html=1;rounded=0;exitX=0;exitY=0;exitDx=0;exitDy=0;" edge="1" parent="1">
          <mxGeometry width="50" height="50" relative="1" as="geometry">
            <mxPoint x="510" y="140.00000000000023" as="sourcePoint" />
            <mxPoint x="510" y="120" as="targetPoint" />
          </mxGeometry>
        </mxCell>
        <mxCell id="DTWjMZg2UlmTl95M_Ohm-22" value="" style="endArrow=classic;startArrow=classic;html=1;rounded=0;fontSize=11;" edge="1" parent="1">
          <mxGeometry width="50" height="50" relative="1" as="geometry">
            <mxPoint x="510" y="130" as="sourcePoint" />
            <mxPoint x="599.31" y="130" as="targetPoint" />
          </mxGeometry>
        </mxCell>
        <mxCell id="DTWjMZg2UlmTl95M_Ohm-23" value="9" style="edgeLabel;html=1;align=center;verticalAlign=middle;resizable=0;points=[];fontSize=10;" vertex="1" connectable="0" parent="DTWjMZg2UlmTl95M_Ohm-22">
          <mxGeometry x="0.0876" y="1" relative="1" as="geometry">
            <mxPoint x="-3" as="offset" />
          </mxGeometry>
        </mxCell>
        <mxCell id="DTWjMZg2UlmTl95M_Ohm-29" value="" style="endArrow=none;html=1;rounded=0;exitX=0;exitY=0;exitDx=0;exitDy=0;" edge="1" parent="1">
          <mxGeometry width="50" height="50" relative="1" as="geometry">
            <mxPoint x="420" y="140.00000000000023" as="sourcePoint" />
            <mxPoint x="420" y="120" as="targetPoint" />
          </mxGeometry>
        </mxCell>
        <mxCell id="DTWjMZg2UlmTl95M_Ohm-30" value="" style="endArrow=classic;startArrow=classic;html=1;rounded=0;fontSize=11;" edge="1" parent="1">
          <mxGeometry width="50" height="50" relative="1" as="geometry">
            <mxPoint x="420" y="130" as="sourcePoint" />
            <mxPoint x="509.30999999999995" y="130" as="targetPoint" />
          </mxGeometry>
        </mxCell>
        <mxCell id="DTWjMZg2UlmTl95M_Ohm-31" value="9" style="edgeLabel;html=1;align=center;verticalAlign=middle;resizable=0;points=[];fontSize=10;" vertex="1" connectable="0" parent="DTWjMZg2UlmTl95M_Ohm-30">
          <mxGeometry x="0.0876" y="1" relative="1" as="geometry">
            <mxPoint x="-3" as="offset" />
          </mxGeometry>
        </mxCell>
        <mxCell id="DTWjMZg2UlmTl95M_Ohm-32" value="" style="endArrow=none;html=1;rounded=0;exitX=0;exitY=0;exitDx=0;exitDy=0;" edge="1" parent="1">
          <mxGeometry width="50" height="50" relative="1" as="geometry">
            <mxPoint x="330" y="140.00000000000023" as="sourcePoint" />
            <mxPoint x="330" y="120" as="targetPoint" />
          </mxGeometry>
        </mxCell>
        <mxCell id="DTWjMZg2UlmTl95M_Ohm-33" value="" style="endArrow=classic;startArrow=classic;html=1;rounded=0;fontSize=11;" edge="1" parent="1">
          <mxGeometry width="50" height="50" relative="1" as="geometry">
            <mxPoint x="330" y="130" as="sourcePoint" />
            <mxPoint x="419.30999999999995" y="130" as="targetPoint" />
          </mxGeometry>
        </mxCell>
        <mxCell id="DTWjMZg2UlmTl95M_Ohm-34" value="9" style="edgeLabel;html=1;align=center;verticalAlign=middle;resizable=0;points=[];fontSize=10;" vertex="1" connectable="0" parent="DTWjMZg2UlmTl95M_Ohm-33">
          <mxGeometry x="0.0876" y="1" relative="1" as="geometry">
            <mxPoint x="-3" as="offset" />
          </mxGeometry>
        </mxCell>
        <mxCell id="DTWjMZg2UlmTl95M_Ohm-35" value="" style="endArrow=none;html=1;rounded=0;exitX=0;exitY=0;exitDx=0;exitDy=0;" edge="1" parent="1">
          <mxGeometry width="50" height="50" relative="1" as="geometry">
            <mxPoint x="240" y="140.00000000000023" as="sourcePoint" />
            <mxPoint x="240" y="120" as="targetPoint" />
          </mxGeometry>
        </mxCell>
        <mxCell id="DTWjMZg2UlmTl95M_Ohm-36" value="" style="endArrow=classic;startArrow=classic;html=1;rounded=0;fontSize=11;" edge="1" parent="1">
          <mxGeometry width="50" height="50" relative="1" as="geometry">
            <mxPoint x="240" y="130" as="sourcePoint" />
            <mxPoint x="329.30999999999995" y="130" as="targetPoint" />
          </mxGeometry>
        </mxCell>
        <mxCell id="DTWjMZg2UlmTl95M_Ohm-37" value="9" style="edgeLabel;html=1;align=center;verticalAlign=middle;resizable=0;points=[];fontSize=10;" vertex="1" connectable="0" parent="DTWjMZg2UlmTl95M_Ohm-36">
          <mxGeometry x="0.0876" y="1" relative="1" as="geometry">
            <mxPoint x="-3" as="offset" />
          </mxGeometry>
        </mxCell>
        <mxCell id="DTWjMZg2UlmTl95M_Ohm-40" value="L4 Directory" style="rounded=0;whiteSpace=wrap;html=1;strokeColor=default;fontSize=10;spacingTop=-42;" vertex="1" parent="1">
          <mxGeometry x="300" y="240" width="50" height="70" as="geometry" />
        </mxCell>
        <mxCell id="DTWjMZg2UlmTl95M_Ohm-41" value="" style="endArrow=classic;html=1;rounded=0;exitX=0.5;exitY=1;exitDx=0;exitDy=0;entryX=0;entryY=0.5;entryDx=0;entryDy=0;" edge="1" parent="1" source="DTWjMZg2UlmTl95M_Ohm-6" target="DTWjMZg2UlmTl95M_Ohm-40">
          <mxGeometry width="50" height="50" relative="1" as="geometry">
            <mxPoint x="420" y="240" as="sourcePoint" />
            <mxPoint x="285" y="240" as="targetPoint" />
            <Array as="points">
              <mxPoint x="285" y="275" />
            </Array>
          </mxGeometry>
        </mxCell>
        <mxCell id="DTWjMZg2UlmTl95M_Ohm-42" value="L3 Directory" style="rounded=0;whiteSpace=wrap;html=1;strokeColor=default;fontSize=10;spacingTop=-42;" vertex="1" parent="1">
          <mxGeometry x="390" y="230" width="50" height="70" as="geometry" />
        </mxCell>
        <mxCell id="DTWjMZg2UlmTl95M_Ohm-44" value="" style="rounded=0;whiteSpace=wrap;html=1;strokeColor=default;" vertex="1" parent="1">
          <mxGeometry x="300" y="270" width="50" height="10" as="geometry" />
        </mxCell>
        <mxCell id="DTWjMZg2UlmTl95M_Ohm-45" value="" style="endArrow=classic;html=1;rounded=0;exitX=1;exitY=0.5;exitDx=0;exitDy=0;entryX=0;entryY=1;entryDx=0;entryDy=0;" edge="1" parent="1" source="DTWjMZg2UlmTl95M_Ohm-44" target="DTWjMZg2UlmTl95M_Ohm-42">
          <mxGeometry width="50" height="50" relative="1" as="geometry">
            <mxPoint x="420" y="240" as="sourcePoint" />
            <mxPoint x="470" y="190" as="targetPoint" />
            <Array as="points">
              <mxPoint x="360" y="275" />
              <mxPoint x="360" y="300" />
            </Array>
          </mxGeometry>
        </mxCell>
        <mxCell id="DTWjMZg2UlmTl95M_Ohm-46" value="" style="endArrow=classic;html=1;rounded=0;exitX=0.5;exitY=1;exitDx=0;exitDy=0;entryX=0;entryY=0.5;entryDx=0;entryDy=0;" edge="1" parent="1" source="DTWjMZg2UlmTl95M_Ohm-5" target="DTWjMZg2UlmTl95M_Ohm-42">
          <mxGeometry width="50" height="50" relative="1" as="geometry">
            <mxPoint x="370" y="360" as="sourcePoint" />
            <mxPoint x="420" y="310" as="targetPoint" />
            <Array as="points">
              <mxPoint x="375" y="265" />
            </Array>
          </mxGeometry>
        </mxCell>
        <mxCell id="DTWjMZg2UlmTl95M_Ohm-47" value="" style="rounded=0;whiteSpace=wrap;html=1;strokeColor=default;" vertex="1" parent="1">
          <mxGeometry x="390" y="260" width="50" height="10" as="geometry" />
        </mxCell>
        <mxCell id="DTWjMZg2UlmTl95M_Ohm-48" value="L2 Directory" style="rounded=0;whiteSpace=wrap;html=1;strokeColor=default;fontSize=10;spacingTop=-42;" vertex="1" parent="1">
          <mxGeometry x="480" y="220" width="50" height="70" as="geometry" />
        </mxCell>
        <mxCell id="DTWjMZg2UlmTl95M_Ohm-49" value="" style="endArrow=classic;html=1;rounded=0;exitX=1;exitY=0.5;exitDx=0;exitDy=0;entryX=0;entryY=1;entryDx=0;entryDy=0;" edge="1" parent="1" target="DTWjMZg2UlmTl95M_Ohm-48" source="DTWjMZg2UlmTl95M_Ohm-47">
          <mxGeometry width="50" height="50" relative="1" as="geometry">
            <mxPoint x="440" y="235" as="sourcePoint" />
            <mxPoint x="560" y="190" as="targetPoint" />
            <Array as="points">
              <mxPoint x="450" y="265" />
              <mxPoint x="450" y="290" />
            </Array>
          </mxGeometry>
        </mxCell>
        <mxCell id="DTWjMZg2UlmTl95M_Ohm-50" value="" style="endArrow=classic;html=1;rounded=0;exitX=0.5;exitY=1;exitDx=0;exitDy=0;entryX=0;entryY=0.5;entryDx=0;entryDy=0;" edge="1" parent="1" target="DTWjMZg2UlmTl95M_Ohm-48">
          <mxGeometry width="50" height="50" relative="1" as="geometry">
            <mxPoint x="465" y="170" as="sourcePoint" />
            <mxPoint x="510" y="310" as="targetPoint" />
            <Array as="points">
              <mxPoint x="465" y="255" />
            </Array>
          </mxGeometry>
        </mxCell>
        <mxCell id="DTWjMZg2UlmTl95M_Ohm-51" value="" style="rounded=0;whiteSpace=wrap;html=1;strokeColor=default;" vertex="1" parent="1">
          <mxGeometry x="480" y="250" width="50" height="10" as="geometry" />
        </mxCell>
        <mxCell id="DTWjMZg2UlmTl95M_Ohm-52" value="L1 Directory" style="rounded=0;whiteSpace=wrap;html=1;strokeColor=default;verticalAlign=middle;labelPosition=center;verticalLabelPosition=middle;align=center;spacingTop=-42;labelBackgroundColor=none;labelBorderColor=none;fontColor=default;spacingBottom=0;fontSize=10;" vertex="1" parent="1">
          <mxGeometry x="570" y="210" width="50" height="70" as="geometry" />
        </mxCell>
        <mxCell id="DTWjMZg2UlmTl95M_Ohm-53" value="" style="endArrow=classic;html=1;rounded=0;exitX=1;exitY=0.5;exitDx=0;exitDy=0;entryX=0;entryY=1;entryDx=0;entryDy=0;" edge="1" parent="1" target="DTWjMZg2UlmTl95M_Ohm-52" source="DTWjMZg2UlmTl95M_Ohm-48">
          <mxGeometry width="50" height="50" relative="1" as="geometry">
            <mxPoint x="530" y="235" as="sourcePoint" />
            <mxPoint x="650" y="190" as="targetPoint" />
            <Array as="points">
              <mxPoint x="540" y="255" />
              <mxPoint x="540" y="280" />
            </Array>
          </mxGeometry>
        </mxCell>
        <mxCell id="DTWjMZg2UlmTl95M_Ohm-54" value="" style="endArrow=classic;html=1;rounded=0;exitX=0.5;exitY=1;exitDx=0;exitDy=0;entryX=0;entryY=0.5;entryDx=0;entryDy=0;" edge="1" parent="1" target="DTWjMZg2UlmTl95M_Ohm-52">
          <mxGeometry width="50" height="50" relative="1" as="geometry">
            <mxPoint x="555" y="170" as="sourcePoint" />
            <mxPoint x="600" y="310" as="targetPoint" />
            <Array as="points">
              <mxPoint x="555" y="245" />
            </Array>
          </mxGeometry>
        </mxCell>
        <mxCell id="DTWjMZg2UlmTl95M_Ohm-55" value="" style="rounded=0;whiteSpace=wrap;html=1;strokeColor=default;" vertex="1" parent="1">
          <mxGeometry x="570" y="240" width="50" height="10" as="geometry" />
        </mxCell>
        <mxCell id="DTWjMZg2UlmTl95M_Ohm-56" value="" style="rounded=0;whiteSpace=wrap;html=1;strokeColor=default;" vertex="1" parent="1">
          <mxGeometry x="660" y="180" width="50" height="90" as="geometry" />
        </mxCell>
        <mxCell id="DTWjMZg2UlmTl95M_Ohm-57" value="" style="endArrow=classic;html=1;rounded=0;exitX=1;exitY=0.5;exitDx=0;exitDy=0;entryX=0;entryY=1;entryDx=0;entryDy=0;" edge="1" parent="1" target="DTWjMZg2UlmTl95M_Ohm-56" source="DTWjMZg2UlmTl95M_Ohm-55">
          <mxGeometry width="50" height="50" relative="1" as="geometry">
            <mxPoint x="620" y="235" as="sourcePoint" />
            <mxPoint x="740" y="190" as="targetPoint" />
            <Array as="points">
              <mxPoint x="630" y="245" />
              <mxPoint x="630" y="270" />
            </Array>
          </mxGeometry>
        </mxCell>
        <mxCell id="DTWjMZg2UlmTl95M_Ohm-58" value="" style="endArrow=classic;html=1;rounded=0;exitX=0.5;exitY=1;exitDx=0;exitDy=0;entryX=0;entryY=0.5;entryDx=0;entryDy=0;" edge="1" parent="1" target="DTWjMZg2UlmTl95M_Ohm-59">
          <mxGeometry width="50" height="50" relative="1" as="geometry">
            <mxPoint x="645" y="170" as="sourcePoint" />
            <mxPoint x="690" y="310" as="targetPoint" />
            <Array as="points">
              <mxPoint x="645" y="215" />
            </Array>
          </mxGeometry>
        </mxCell>
        <mxCell id="DTWjMZg2UlmTl95M_Ohm-59" value="" style="rounded=0;whiteSpace=wrap;html=1;strokeColor=default;" vertex="1" parent="1">
          <mxGeometry x="660" y="210" width="50" height="10" as="geometry" />
        </mxCell>
        <mxCell id="DTWjMZg2UlmTl95M_Ohm-60" value="CR3" style="rounded=0;whiteSpace=wrap;html=1;strokeColor=default;" vertex="1" parent="1">
          <mxGeometry x="240" y="300" width="40" height="20" as="geometry" />
        </mxCell>
        <mxCell id="DTWjMZg2UlmTl95M_Ohm-61" value="" style="endArrow=classic;html=1;rounded=0;exitX=1;exitY=0.5;exitDx=0;exitDy=0;entryX=0;entryY=1;entryDx=0;entryDy=0;" edge="1" parent="1" source="DTWjMZg2UlmTl95M_Ohm-60" target="DTWjMZg2UlmTl95M_Ohm-40">
          <mxGeometry width="50" height="50" relative="1" as="geometry">
            <mxPoint x="420" y="240" as="sourcePoint" />
            <mxPoint x="470" y="190" as="targetPoint" />
          </mxGeometry>
        </mxCell>
        <mxCell id="DTWjMZg2UlmTl95M_Ohm-84" value="&lt;font style=&quot;font-size: 10px;&quot;&gt;Offset&lt;/font&gt;" style="rounded=0;whiteSpace=wrap;html=1;fontSize=10;" vertex="1" parent="1">
          <mxGeometry x="599.31" y="330" width="120" height="30" as="geometry" />
        </mxCell>
        <mxCell id="DTWjMZg2UlmTl95M_Ohm-85" value="&lt;font style=&quot;font-size: 10px;&quot;&gt;L1 Index&lt;/font&gt;" style="rounded=0;whiteSpace=wrap;html=1;fontSize=10;" vertex="1" parent="1">
          <mxGeometry x="509.31" y="330" width="90" height="30" as="geometry" />
        </mxCell>
        <mxCell id="DTWjMZg2UlmTl95M_Ohm-86" value="&lt;font style=&quot;font-size: 10px;&quot;&gt;L2 Index&lt;/font&gt;" style="rounded=0;whiteSpace=wrap;html=1;fontSize=10;" vertex="1" parent="1">
          <mxGeometry x="419.31" y="330" width="90" height="30" as="geometry" />
        </mxCell>
        <mxCell id="DTWjMZg2UlmTl95M_Ohm-87" value="&lt;font style=&quot;font-size: 10px;&quot;&gt;L3 Index&lt;/font&gt;" style="rounded=0;whiteSpace=wrap;html=1;fontSize=10;" vertex="1" parent="1">
          <mxGeometry x="329.31" y="330" width="90" height="30" as="geometry" />
        </mxCell>
        <mxCell id="DTWjMZg2UlmTl95M_Ohm-88" value="&lt;font style=&quot;font-size: 10px;&quot;&gt;L4 Index&lt;/font&gt;" style="rounded=0;whiteSpace=wrap;html=1;fontSize=10;" vertex="1" parent="1">
          <mxGeometry x="239.31" y="330" width="90" height="30" as="geometry" />
        </mxCell>
        <mxCell id="DTWjMZg2UlmTl95M_Ohm-109" value="L4 Directory" style="rounded=0;whiteSpace=wrap;html=1;strokeColor=default;fontSize=10;spacingTop=-42;" vertex="1" parent="1">
          <mxGeometry x="299.31" y="430" width="50" height="70" as="geometry" />
        </mxCell>
        <mxCell id="DTWjMZg2UlmTl95M_Ohm-110" value="" style="endArrow=classic;html=1;rounded=0;exitX=0.5;exitY=1;exitDx=0;exitDy=0;entryX=0;entryY=0.5;entryDx=0;entryDy=0;" edge="1" parent="1" source="DTWjMZg2UlmTl95M_Ohm-88" target="DTWjMZg2UlmTl95M_Ohm-109">
          <mxGeometry width="50" height="50" relative="1" as="geometry">
            <mxPoint x="419.31" y="430" as="sourcePoint" />
            <mxPoint x="284.31" y="430" as="targetPoint" />
            <Array as="points">
              <mxPoint x="284.31" y="465" />
            </Array>
          </mxGeometry>
        </mxCell>
        <mxCell id="DTWjMZg2UlmTl95M_Ohm-111" value="L3 Directory" style="rounded=0;whiteSpace=wrap;html=1;strokeColor=default;fontSize=10;spacingTop=-42;" vertex="1" parent="1">
          <mxGeometry x="389.31" y="420" width="50" height="70" as="geometry" />
        </mxCell>
        <mxCell id="DTWjMZg2UlmTl95M_Ohm-112" value="" style="rounded=0;whiteSpace=wrap;html=1;strokeColor=default;" vertex="1" parent="1">
          <mxGeometry x="299.31" y="460" width="50" height="10" as="geometry" />
        </mxCell>
        <mxCell id="DTWjMZg2UlmTl95M_Ohm-113" value="" style="endArrow=classic;html=1;rounded=0;exitX=1;exitY=0.5;exitDx=0;exitDy=0;entryX=0;entryY=1;entryDx=0;entryDy=0;" edge="1" parent="1" source="DTWjMZg2UlmTl95M_Ohm-112" target="DTWjMZg2UlmTl95M_Ohm-111">
          <mxGeometry width="50" height="50" relative="1" as="geometry">
            <mxPoint x="419.31" y="430" as="sourcePoint" />
            <mxPoint x="469.31" y="380" as="targetPoint" />
            <Array as="points">
              <mxPoint x="359.31" y="465" />
              <mxPoint x="359.31" y="490" />
            </Array>
          </mxGeometry>
        </mxCell>
        <mxCell id="DTWjMZg2UlmTl95M_Ohm-114" value="" style="endArrow=classic;html=1;rounded=0;exitX=0.5;exitY=1;exitDx=0;exitDy=0;entryX=0;entryY=0.5;entryDx=0;entryDy=0;" edge="1" parent="1" source="DTWjMZg2UlmTl95M_Ohm-87" target="DTWjMZg2UlmTl95M_Ohm-111">
          <mxGeometry width="50" height="50" relative="1" as="geometry">
            <mxPoint x="369.31" y="550" as="sourcePoint" />
            <mxPoint x="419.31" y="500" as="targetPoint" />
            <Array as="points">
              <mxPoint x="374.31" y="455" />
            </Array>
          </mxGeometry>
        </mxCell>
        <mxCell id="DTWjMZg2UlmTl95M_Ohm-115" value="" style="rounded=0;whiteSpace=wrap;html=1;strokeColor=default;" vertex="1" parent="1">
          <mxGeometry x="389.31" y="450" width="50" height="10" as="geometry" />
        </mxCell>
        <mxCell id="DTWjMZg2UlmTl95M_Ohm-116" value="L2 Directory" style="rounded=0;whiteSpace=wrap;html=1;strokeColor=default;fontSize=10;spacingTop=-42;" vertex="1" parent="1">
          <mxGeometry x="479.31" y="410" width="50" height="70" as="geometry" />
        </mxCell>
        <mxCell id="DTWjMZg2UlmTl95M_Ohm-117" value="" style="endArrow=classic;html=1;rounded=0;exitX=1;exitY=0.5;exitDx=0;exitDy=0;entryX=0;entryY=1;entryDx=0;entryDy=0;" edge="1" parent="1" source="DTWjMZg2UlmTl95M_Ohm-115" target="DTWjMZg2UlmTl95M_Ohm-116">
          <mxGeometry width="50" height="50" relative="1" as="geometry">
            <mxPoint x="439.31" y="425" as="sourcePoint" />
            <mxPoint x="559.31" y="380" as="targetPoint" />
            <Array as="points">
              <mxPoint x="449.31" y="455" />
              <mxPoint x="449.31" y="480" />
            </Array>
          </mxGeometry>
        </mxCell>
        <mxCell id="DTWjMZg2UlmTl95M_Ohm-118" value="" style="endArrow=classic;html=1;rounded=0;exitX=0.5;exitY=1;exitDx=0;exitDy=0;entryX=0;entryY=0.5;entryDx=0;entryDy=0;" edge="1" parent="1" target="DTWjMZg2UlmTl95M_Ohm-116">
          <mxGeometry width="50" height="50" relative="1" as="geometry">
            <mxPoint x="464.31" y="360" as="sourcePoint" />
            <mxPoint x="509.31" y="500" as="targetPoint" />
            <Array as="points">
              <mxPoint x="464.31" y="445" />
            </Array>
          </mxGeometry>
        </mxCell>
        <mxCell id="DTWjMZg2UlmTl95M_Ohm-119" value="" style="rounded=0;whiteSpace=wrap;html=1;strokeColor=default;" vertex="1" parent="1">
          <mxGeometry x="479.31" y="440" width="50" height="10" as="geometry" />
        </mxCell>
        <mxCell id="DTWjMZg2UlmTl95M_Ohm-124" value="" style="rounded=0;whiteSpace=wrap;html=1;strokeColor=default;" vertex="1" parent="1">
          <mxGeometry x="659.31" y="370" width="50" height="75" as="geometry" />
        </mxCell>
        <mxCell id="DTWjMZg2UlmTl95M_Ohm-125" value="" style="endArrow=classic;html=1;rounded=0;entryX=0;entryY=1;entryDx=0;entryDy=0;" edge="1" parent="1" target="DTWjMZg2UlmTl95M_Ohm-124">
          <mxGeometry width="50" height="50" relative="1" as="geometry">
            <mxPoint x="530" y="445" as="sourcePoint" />
            <mxPoint x="739.31" y="380" as="targetPoint" />
            <Array as="points" />
          </mxGeometry>
        </mxCell>
        <mxCell id="DTWjMZg2UlmTl95M_Ohm-126" value="" style="endArrow=classic;html=1;rounded=0;exitX=0.5;exitY=1;exitDx=0;exitDy=0;entryX=0;entryY=0.5;entryDx=0;entryDy=0;" edge="1" parent="1" target="DTWjMZg2UlmTl95M_Ohm-127">
          <mxGeometry width="50" height="50" relative="1" as="geometry">
            <mxPoint x="644.31" y="360" as="sourcePoint" />
            <mxPoint x="689.31" y="500" as="targetPoint" />
            <Array as="points">
              <mxPoint x="644.31" y="405" />
            </Array>
          </mxGeometry>
        </mxCell>
        <mxCell id="DTWjMZg2UlmTl95M_Ohm-127" value="" style="rounded=0;whiteSpace=wrap;html=1;strokeColor=default;" vertex="1" parent="1">
          <mxGeometry x="659.31" y="400" width="50" height="10" as="geometry" />
        </mxCell>
        <mxCell id="DTWjMZg2UlmTl95M_Ohm-128" value="CR3" style="rounded=0;whiteSpace=wrap;html=1;strokeColor=default;" vertex="1" parent="1">
          <mxGeometry x="239.31" y="490" width="40" height="20" as="geometry" />
        </mxCell>
        <mxCell id="DTWjMZg2UlmTl95M_Ohm-129" value="" style="endArrow=classic;html=1;rounded=0;exitX=1;exitY=0.5;exitDx=0;exitDy=0;entryX=0;entryY=1;entryDx=0;entryDy=0;" edge="1" parent="1" source="DTWjMZg2UlmTl95M_Ohm-128" target="DTWjMZg2UlmTl95M_Ohm-109">
          <mxGeometry width="50" height="50" relative="1" as="geometry">
            <mxPoint x="419.31" y="430" as="sourcePoint" />
            <mxPoint x="469.31" y="380" as="targetPoint" />
          </mxGeometry>
        </mxCell>
        <mxCell id="DTWjMZg2UlmTl95M_Ohm-130" value="&lt;font style=&quot;font-size: 10px;&quot;&gt;Offset&lt;/font&gt;" style="rounded=0;whiteSpace=wrap;html=1;fontSize=10;" vertex="1" parent="1">
          <mxGeometry x="600" y="520" width="120" height="30" as="geometry" />
        </mxCell>
        <mxCell id="DTWjMZg2UlmTl95M_Ohm-131" value="&lt;font style=&quot;font-size: 10px;&quot;&gt;L1 Index&lt;/font&gt;" style="rounded=0;whiteSpace=wrap;html=1;fontSize=10;" vertex="1" parent="1">
          <mxGeometry x="510" y="520" width="90" height="30" as="geometry" />
        </mxCell>
        <mxCell id="DTWjMZg2UlmTl95M_Ohm-132" value="&lt;font style=&quot;font-size: 10px;&quot;&gt;L2 Index&lt;/font&gt;" style="rounded=0;whiteSpace=wrap;html=1;fontSize=10;" vertex="1" parent="1">
          <mxGeometry x="420" y="520" width="90" height="30" as="geometry" />
        </mxCell>
        <mxCell id="DTWjMZg2UlmTl95M_Ohm-133" value="&lt;font style=&quot;font-size: 10px;&quot;&gt;L3 Index&lt;/font&gt;" style="rounded=0;whiteSpace=wrap;html=1;fontSize=10;" vertex="1" parent="1">
          <mxGeometry x="330" y="520" width="90" height="30" as="geometry" />
        </mxCell>
        <mxCell id="DTWjMZg2UlmTl95M_Ohm-134" value="&lt;font style=&quot;font-size: 10px;&quot;&gt;L4 Index&lt;/font&gt;" style="rounded=0;whiteSpace=wrap;html=1;fontSize=10;" vertex="1" parent="1">
          <mxGeometry x="240" y="520" width="90" height="30" as="geometry" />
        </mxCell>
        <mxCell id="DTWjMZg2UlmTl95M_Ohm-155" value="L4 Directory" style="rounded=0;whiteSpace=wrap;html=1;strokeColor=default;fontSize=10;spacingTop=-42;" vertex="1" parent="1">
          <mxGeometry x="300" y="620" width="50" height="70" as="geometry" />
        </mxCell>
        <mxCell id="DTWjMZg2UlmTl95M_Ohm-156" value="" style="endArrow=classic;html=1;rounded=0;exitX=0.5;exitY=1;exitDx=0;exitDy=0;entryX=0;entryY=0.5;entryDx=0;entryDy=0;" edge="1" parent="1" source="DTWjMZg2UlmTl95M_Ohm-134" target="DTWjMZg2UlmTl95M_Ohm-155">
          <mxGeometry width="50" height="50" relative="1" as="geometry">
            <mxPoint x="420" y="620" as="sourcePoint" />
            <mxPoint x="285" y="620" as="targetPoint" />
            <Array as="points">
              <mxPoint x="285" y="655" />
            </Array>
          </mxGeometry>
        </mxCell>
        <mxCell id="DTWjMZg2UlmTl95M_Ohm-157" value="L3 Directory" style="rounded=0;whiteSpace=wrap;html=1;strokeColor=default;fontSize=10;spacingTop=-42;" vertex="1" parent="1">
          <mxGeometry x="390" y="610" width="50" height="70" as="geometry" />
        </mxCell>
        <mxCell id="DTWjMZg2UlmTl95M_Ohm-158" value="" style="rounded=0;whiteSpace=wrap;html=1;strokeColor=default;" vertex="1" parent="1">
          <mxGeometry x="300" y="650" width="50" height="10" as="geometry" />
        </mxCell>
        <mxCell id="DTWjMZg2UlmTl95M_Ohm-159" value="" style="endArrow=classic;html=1;rounded=0;exitX=1;exitY=0.5;exitDx=0;exitDy=0;entryX=0;entryY=1;entryDx=0;entryDy=0;" edge="1" parent="1" source="DTWjMZg2UlmTl95M_Ohm-158" target="DTWjMZg2UlmTl95M_Ohm-157">
          <mxGeometry width="50" height="50" relative="1" as="geometry">
            <mxPoint x="420" y="620" as="sourcePoint" />
            <mxPoint x="470" y="570" as="targetPoint" />
            <Array as="points">
              <mxPoint x="360" y="655" />
              <mxPoint x="360" y="680" />
            </Array>
          </mxGeometry>
        </mxCell>
        <mxCell id="DTWjMZg2UlmTl95M_Ohm-160" value="" style="endArrow=classic;html=1;rounded=0;exitX=0.5;exitY=1;exitDx=0;exitDy=0;entryX=0;entryY=0.5;entryDx=0;entryDy=0;" edge="1" parent="1" source="DTWjMZg2UlmTl95M_Ohm-133" target="DTWjMZg2UlmTl95M_Ohm-157">
          <mxGeometry width="50" height="50" relative="1" as="geometry">
            <mxPoint x="370" y="740" as="sourcePoint" />
            <mxPoint x="420" y="690" as="targetPoint" />
            <Array as="points">
              <mxPoint x="375" y="645" />
            </Array>
          </mxGeometry>
        </mxCell>
        <mxCell id="DTWjMZg2UlmTl95M_Ohm-161" value="" style="rounded=0;whiteSpace=wrap;html=1;strokeColor=default;" vertex="1" parent="1">
          <mxGeometry x="390" y="640" width="50" height="10" as="geometry" />
        </mxCell>
        <mxCell id="DTWjMZg2UlmTl95M_Ohm-163" value="" style="endArrow=classic;html=1;rounded=0;exitX=1;exitY=0.5;exitDx=0;exitDy=0;entryX=0;entryY=1;entryDx=0;entryDy=0;" edge="1" parent="1" source="DTWjMZg2UlmTl95M_Ohm-161" target="DTWjMZg2UlmTl95M_Ohm-166">
          <mxGeometry width="50" height="50" relative="1" as="geometry">
            <mxPoint x="440" y="615" as="sourcePoint" />
            <mxPoint x="480.00000000000006" y="670" as="targetPoint" />
            <Array as="points">
              <mxPoint x="550" y="645" />
            </Array>
          </mxGeometry>
        </mxCell>
        <mxCell id="DTWjMZg2UlmTl95M_Ohm-166" value="" style="rounded=0;whiteSpace=wrap;html=1;strokeColor=default;" vertex="1" parent="1">
          <mxGeometry x="660" y="560" width="50" height="85" as="geometry" />
        </mxCell>
        <mxCell id="DTWjMZg2UlmTl95M_Ohm-168" value="" style="endArrow=classic;html=1;rounded=0;exitX=0.5;exitY=1;exitDx=0;exitDy=0;entryX=0;entryY=0.5;entryDx=0;entryDy=0;" edge="1" parent="1" target="DTWjMZg2UlmTl95M_Ohm-169">
          <mxGeometry width="50" height="50" relative="1" as="geometry">
            <mxPoint x="644.9999999999999" y="550" as="sourcePoint" />
            <mxPoint x="690" y="690" as="targetPoint" />
            <Array as="points">
              <mxPoint x="645" y="595" />
            </Array>
          </mxGeometry>
        </mxCell>
        <mxCell id="DTWjMZg2UlmTl95M_Ohm-169" value="" style="rounded=0;whiteSpace=wrap;html=1;strokeColor=default;" vertex="1" parent="1">
          <mxGeometry x="660" y="590" width="50" height="10" as="geometry" />
        </mxCell>
        <mxCell id="DTWjMZg2UlmTl95M_Ohm-170" value="CR3" style="rounded=0;whiteSpace=wrap;html=1;strokeColor=default;" vertex="1" parent="1">
          <mxGeometry x="240" y="680" width="40" height="20" as="geometry" />
        </mxCell>
        <mxCell id="DTWjMZg2UlmTl95M_Ohm-171" value="" style="endArrow=classic;html=1;rounded=0;exitX=1;exitY=0.5;exitDx=0;exitDy=0;entryX=0;entryY=1;entryDx=0;entryDy=0;" edge="1" parent="1" source="DTWjMZg2UlmTl95M_Ohm-170" target="DTWjMZg2UlmTl95M_Ohm-155">
          <mxGeometry width="50" height="50" relative="1" as="geometry">
            <mxPoint x="420" y="620" as="sourcePoint" />
            <mxPoint x="470" y="570" as="targetPoint" />
          </mxGeometry>
        </mxCell>
        <mxCell id="DTWjMZg2UlmTl95M_Ohm-172" value="&lt;font style=&quot;font-size: 10px;&quot;&gt;Offset&lt;/font&gt;" style="rounded=0;whiteSpace=wrap;html=1;fontSize=10;fillColor=#80FF00;strokeColor=#36393d;fontColor=#000099;" vertex="1" parent="1">
          <mxGeometry x="600" y="800" width="120" height="20" as="geometry" />
        </mxCell>
        <mxCell id="DTWjMZg2UlmTl95M_Ohm-173" value="&lt;font style=&quot;font-size: 10px;&quot;&gt;L1 Index&lt;/font&gt;" style="rounded=0;whiteSpace=wrap;html=1;fontSize=10;fillColor=#99FF33;strokeColor=#36393d;fontColor=#000099;" vertex="1" parent="1">
          <mxGeometry x="510" y="800" width="90" height="20" as="geometry" />
        </mxCell>
        <mxCell id="DTWjMZg2UlmTl95M_Ohm-174" value="&lt;font style=&quot;font-size: 10px;&quot;&gt;L2 Index&lt;/font&gt;" style="rounded=0;whiteSpace=wrap;html=1;fontSize=10;fillColor=#B3FF66;strokeColor=#36393d;fontColor=#000099;" vertex="1" parent="1">
          <mxGeometry x="420" y="800" width="90" height="20" as="geometry" />
        </mxCell>
        <mxCell id="DTWjMZg2UlmTl95M_Ohm-175" value="&lt;font style=&quot;font-size: 10px;&quot;&gt;L3 Index&lt;/font&gt;" style="rounded=0;whiteSpace=wrap;html=1;fontSize=10;fillColor=#CCFF99;strokeColor=#36393d;fontColor=#000099;" vertex="1" parent="1">
          <mxGeometry x="330" y="800" width="90" height="20" as="geometry" />
        </mxCell>
        <mxCell id="DTWjMZg2UlmTl95M_Ohm-176" value="&lt;font style=&quot;font-size: 10px;&quot;&gt;L4 Index&lt;/font&gt;" style="rounded=0;whiteSpace=wrap;html=1;fontSize=10;fillColor=#E6FFCC;strokeColor=#36393d;fontColor=#000099;" vertex="1" parent="1">
          <mxGeometry x="240" y="800" width="90" height="20" as="geometry" />
        </mxCell>
        <mxCell id="DTWjMZg2UlmTl95M_Ohm-181" value="" style="endArrow=none;html=1;rounded=0;exitX=0;exitY=0;exitDx=0;exitDy=0;fontColor=#FF0000;strokeColor=#FF0000;strokeWidth=2;" edge="1" parent="1">
          <mxGeometry width="50" height="50" relative="1" as="geometry">
            <mxPoint x="700" y="720.0000000000002" as="sourcePoint" />
            <mxPoint x="700" y="700" as="targetPoint" />
          </mxGeometry>
        </mxCell>
        <mxCell id="DTWjMZg2UlmTl95M_Ohm-182" value="" style="endArrow=none;html=1;rounded=0;exitX=1;exitY=0;exitDx=0;exitDy=0;fontColor=#FF0000;strokeColor=#FF0000;strokeWidth=2;" edge="1" parent="1">
          <mxGeometry width="50" height="50" relative="1" as="geometry">
            <mxPoint x="820" y="720" as="sourcePoint" />
            <mxPoint x="820" y="700" as="targetPoint" />
          </mxGeometry>
        </mxCell>
        <mxCell id="DTWjMZg2UlmTl95M_Ohm-183" value="" style="endArrow=classic;startArrow=classic;html=1;rounded=0;fontSize=11;fontColor=#FF0000;strokeColor=#FF0000;strokeWidth=2;" edge="1" parent="1">
          <mxGeometry width="50" height="50" relative="1" as="geometry">
            <mxPoint x="700" y="710" as="sourcePoint" />
            <mxPoint x="820" y="710" as="targetPoint" />
          </mxGeometry>
        </mxCell>
        <mxCell id="DTWjMZg2UlmTl95M_Ohm-184" value="12" style="edgeLabel;html=1;align=center;verticalAlign=middle;resizable=0;points=[];fontSize=10;fontColor=#FF0000;fontStyle=1" vertex="1" connectable="0" parent="DTWjMZg2UlmTl95M_Ohm-183">
          <mxGeometry x="0.0876" y="1" relative="1" as="geometry">
            <mxPoint x="-6" as="offset" />
          </mxGeometry>
        </mxCell>
        <mxCell id="DTWjMZg2UlmTl95M_Ohm-185" value="" style="endArrow=none;html=1;rounded=0;exitX=0;exitY=0;exitDx=0;exitDy=0;fontColor=#000099;" edge="1" parent="1">
          <mxGeometry width="50" height="50" relative="1" as="geometry">
            <mxPoint x="610" y="720.0000000000002" as="sourcePoint" />
            <mxPoint x="610" y="700" as="targetPoint" />
          </mxGeometry>
        </mxCell>
        <mxCell id="DTWjMZg2UlmTl95M_Ohm-186" value="" style="endArrow=classic;startArrow=classic;html=1;rounded=0;fontSize=11;fontColor=#000099;" edge="1" parent="1">
          <mxGeometry width="50" height="50" relative="1" as="geometry">
            <mxPoint x="610" y="710" as="sourcePoint" />
            <mxPoint x="699.31" y="710" as="targetPoint" />
          </mxGeometry>
        </mxCell>
        <mxCell id="DTWjMZg2UlmTl95M_Ohm-187" value="9" style="edgeLabel;html=1;align=center;verticalAlign=middle;resizable=0;points=[];fontSize=10;fontColor=#000099;" vertex="1" connectable="0" parent="DTWjMZg2UlmTl95M_Ohm-186">
          <mxGeometry x="0.0876" y="1" relative="1" as="geometry">
            <mxPoint x="-3" as="offset" />
          </mxGeometry>
        </mxCell>
        <mxCell id="DTWjMZg2UlmTl95M_Ohm-188" value="" style="endArrow=none;html=1;rounded=0;exitX=0;exitY=0;exitDx=0;exitDy=0;fontColor=#000099;" edge="1" parent="1">
          <mxGeometry width="50" height="50" relative="1" as="geometry">
            <mxPoint x="520" y="720.0000000000002" as="sourcePoint" />
            <mxPoint x="520" y="700" as="targetPoint" />
          </mxGeometry>
        </mxCell>
        <mxCell id="DTWjMZg2UlmTl95M_Ohm-189" value="" style="endArrow=classic;startArrow=classic;html=1;rounded=0;fontSize=11;fontColor=#000099;" edge="1" parent="1">
          <mxGeometry width="50" height="50" relative="1" as="geometry">
            <mxPoint x="520" y="710" as="sourcePoint" />
            <mxPoint x="609.31" y="710" as="targetPoint" />
          </mxGeometry>
        </mxCell>
        <mxCell id="DTWjMZg2UlmTl95M_Ohm-190" value="9" style="edgeLabel;html=1;align=center;verticalAlign=middle;resizable=0;points=[];fontSize=10;fontColor=#000099;" vertex="1" connectable="0" parent="DTWjMZg2UlmTl95M_Ohm-189">
          <mxGeometry x="0.0876" y="1" relative="1" as="geometry">
            <mxPoint x="-3" as="offset" />
          </mxGeometry>
        </mxCell>
        <mxCell id="DTWjMZg2UlmTl95M_Ohm-191" value="" style="endArrow=none;html=1;rounded=0;exitX=0;exitY=0;exitDx=0;exitDy=0;fontColor=#000099;" edge="1" parent="1">
          <mxGeometry width="50" height="50" relative="1" as="geometry">
            <mxPoint x="430" y="720.0000000000002" as="sourcePoint" />
            <mxPoint x="430" y="700" as="targetPoint" />
          </mxGeometry>
        </mxCell>
        <mxCell id="DTWjMZg2UlmTl95M_Ohm-192" value="" style="endArrow=classic;startArrow=classic;html=1;rounded=0;fontSize=11;fontColor=#000099;" edge="1" parent="1">
          <mxGeometry width="50" height="50" relative="1" as="geometry">
            <mxPoint x="430" y="710" as="sourcePoint" />
            <mxPoint x="519.31" y="710" as="targetPoint" />
          </mxGeometry>
        </mxCell>
        <mxCell id="DTWjMZg2UlmTl95M_Ohm-193" value="9" style="edgeLabel;html=1;align=center;verticalAlign=middle;resizable=0;points=[];fontSize=10;fontColor=#000099;" vertex="1" connectable="0" parent="DTWjMZg2UlmTl95M_Ohm-192">
          <mxGeometry x="0.0876" y="1" relative="1" as="geometry">
            <mxPoint x="-3" as="offset" />
          </mxGeometry>
        </mxCell>
        <mxCell id="DTWjMZg2UlmTl95M_Ohm-194" value="" style="endArrow=none;html=1;rounded=0;exitX=0;exitY=0;exitDx=0;exitDy=0;fontColor=#000099;" edge="1" parent="1">
          <mxGeometry width="50" height="50" relative="1" as="geometry">
            <mxPoint x="340" y="720.0000000000002" as="sourcePoint" />
            <mxPoint x="340" y="700" as="targetPoint" />
          </mxGeometry>
        </mxCell>
        <mxCell id="DTWjMZg2UlmTl95M_Ohm-195" value="" style="endArrow=classic;startArrow=classic;html=1;rounded=0;fontSize=11;fontColor=#000099;" edge="1" parent="1">
          <mxGeometry width="50" height="50" relative="1" as="geometry">
            <mxPoint x="340" y="710" as="sourcePoint" />
            <mxPoint x="429.30999999999995" y="710" as="targetPoint" />
          </mxGeometry>
        </mxCell>
        <mxCell id="DTWjMZg2UlmTl95M_Ohm-196" value="9" style="edgeLabel;html=1;align=center;verticalAlign=middle;resizable=0;points=[];fontSize=10;fontColor=#000099;" vertex="1" connectable="0" parent="DTWjMZg2UlmTl95M_Ohm-195">
          <mxGeometry x="0.0876" y="1" relative="1" as="geometry">
            <mxPoint x="-3" as="offset" />
          </mxGeometry>
        </mxCell>
        <mxCell id="DTWjMZg2UlmTl95M_Ohm-197" value="L4 Directory" style="rounded=0;whiteSpace=wrap;html=1;strokeColor=#36393d;fontSize=10;spacingTop=-42;fillColor=#CCFFFF;shadow=1;sketch=0;fontColor=#000099;" vertex="1" parent="1">
          <mxGeometry x="300" y="840" width="50" height="70" as="geometry" />
        </mxCell>
        <mxCell id="DTWjMZg2UlmTl95M_Ohm-198" value="" style="endArrow=classic;html=1;rounded=0;entryX=0;entryY=0.5;entryDx=0;entryDy=0;fontColor=#000099;exitX=0.5;exitY=1;exitDx=0;exitDy=0;" edge="1" parent="1" source="DTWjMZg2UlmTl95M_Ohm-176" target="DTWjMZg2UlmTl95M_Ohm-200">
          <mxGeometry width="50" height="50" relative="1" as="geometry">
            <mxPoint x="280" y="860" as="sourcePoint" />
            <mxPoint x="283.48" y="900" as="targetPoint" />
            <Array as="points">
              <mxPoint x="285" y="875" />
            </Array>
          </mxGeometry>
        </mxCell>
        <mxCell id="DTWjMZg2UlmTl95M_Ohm-199" value="L3 Directory" style="rounded=0;whiteSpace=wrap;html=1;strokeColor=#36393d;fontSize=10;spacingTop=-42;fillColor=#99FFFF;shadow=1;sketch=0;fontColor=#000099;" vertex="1" parent="1">
          <mxGeometry x="390" y="840" width="50" height="70" as="geometry" />
        </mxCell>
        <mxCell id="DTWjMZg2UlmTl95M_Ohm-200" value="" style="rounded=0;whiteSpace=wrap;html=1;strokeColor=#666666;fontColor=#333333;fillColor=#A8A8A8;sketch=1;" vertex="1" parent="1">
          <mxGeometry x="300" y="870" width="50" height="10" as="geometry" />
        </mxCell>
        <mxCell id="DTWjMZg2UlmTl95M_Ohm-201" value="" style="endArrow=classic;html=1;rounded=0;exitX=1;exitY=0.5;exitDx=0;exitDy=0;entryX=0;entryY=1;entryDx=0;entryDy=0;fontColor=#000099;" edge="1" parent="1" source="DTWjMZg2UlmTl95M_Ohm-200" target="DTWjMZg2UlmTl95M_Ohm-199">
          <mxGeometry width="50" height="50" relative="1" as="geometry">
            <mxPoint x="418.48" y="890" as="sourcePoint" />
            <mxPoint x="468.48" y="840" as="targetPoint" />
            <Array as="points">
              <mxPoint x="360" y="875" />
              <mxPoint x="360" y="910" />
            </Array>
          </mxGeometry>
        </mxCell>
        <mxCell id="DTWjMZg2UlmTl95M_Ohm-202" value="" style="endArrow=classic;html=1;rounded=0;exitX=0.5;exitY=1;exitDx=0;exitDy=0;entryX=0;entryY=0.5;entryDx=0;entryDy=0;fontColor=#000099;" edge="1" parent="1" source="DTWjMZg2UlmTl95M_Ohm-175" target="DTWjMZg2UlmTl95M_Ohm-203">
          <mxGeometry width="50" height="50" relative="1" as="geometry">
            <mxPoint x="368.48" y="1020" as="sourcePoint" />
            <mxPoint x="418.48" y="970" as="targetPoint" />
            <Array as="points">
              <mxPoint x="375" y="875" />
            </Array>
          </mxGeometry>
        </mxCell>
        <mxCell id="DTWjMZg2UlmTl95M_Ohm-203" value="" style="rounded=0;whiteSpace=wrap;html=1;strokeColor=#666666;fontColor=#333333;fillColor=#A8A8A8;sketch=1;" vertex="1" parent="1">
          <mxGeometry x="390" y="870" width="50" height="10" as="geometry" />
        </mxCell>
        <mxCell id="DTWjMZg2UlmTl95M_Ohm-204" value="L2 Directory" style="rounded=0;whiteSpace=wrap;html=1;strokeColor=#36393d;fontSize=10;spacingTop=-42;fillColor=#66FFFF;shadow=1;sketch=0;fontColor=#000099;" vertex="1" parent="1">
          <mxGeometry x="480" y="840" width="50" height="70" as="geometry" />
        </mxCell>
        <mxCell id="DTWjMZg2UlmTl95M_Ohm-205" value="" style="endArrow=classic;html=1;rounded=0;exitX=1;exitY=0.5;exitDx=0;exitDy=0;entryX=0;entryY=1;entryDx=0;entryDy=0;fontColor=#000099;" edge="1" parent="1" source="DTWjMZg2UlmTl95M_Ohm-203" target="DTWjMZg2UlmTl95M_Ohm-204">
          <mxGeometry width="50" height="50" relative="1" as="geometry">
            <mxPoint x="438.48" y="885" as="sourcePoint" />
            <mxPoint x="558.48" y="840" as="targetPoint" />
            <Array as="points">
              <mxPoint x="450" y="875" />
              <mxPoint x="450" y="910" />
            </Array>
          </mxGeometry>
        </mxCell>
        <mxCell id="DTWjMZg2UlmTl95M_Ohm-206" value="" style="endArrow=classic;html=1;rounded=0;exitX=0.5;exitY=1;exitDx=0;exitDy=0;entryX=0;entryY=0.5;entryDx=0;entryDy=0;fontColor=#000099;" edge="1" parent="1" target="DTWjMZg2UlmTl95M_Ohm-207" source="DTWjMZg2UlmTl95M_Ohm-174">
          <mxGeometry width="50" height="50" relative="1" as="geometry">
            <mxPoint x="463.48" y="830" as="sourcePoint" />
            <mxPoint x="508.48" y="970" as="targetPoint" />
            <Array as="points">
              <mxPoint x="465" y="875" />
            </Array>
          </mxGeometry>
        </mxCell>
        <mxCell id="DTWjMZg2UlmTl95M_Ohm-207" value="" style="rounded=0;whiteSpace=wrap;html=1;strokeColor=#666666;fontColor=#333333;fillColor=#A8A8A8;sketch=1;" vertex="1" parent="1">
          <mxGeometry x="480" y="870" width="50" height="10" as="geometry" />
        </mxCell>
        <mxCell id="DTWjMZg2UlmTl95M_Ohm-208" value="L1 Directory" style="rounded=0;whiteSpace=wrap;html=1;strokeColor=#36393d;verticalAlign=middle;labelPosition=center;verticalLabelPosition=middle;align=center;spacingTop=-42;labelBackgroundColor=none;labelBorderColor=none;spacingBottom=0;fontSize=10;fillColor=#00FFFF;shadow=1;sketch=0;fontColor=#000099;" vertex="1" parent="1">
          <mxGeometry x="570" y="840" width="50" height="70" as="geometry" />
        </mxCell>
        <mxCell id="DTWjMZg2UlmTl95M_Ohm-209" value="" style="endArrow=classic;html=1;rounded=0;exitX=1;exitY=0.5;exitDx=0;exitDy=0;entryX=0;entryY=1;entryDx=0;entryDy=0;fontColor=#000099;" edge="1" parent="1" source="DTWjMZg2UlmTl95M_Ohm-204" target="DTWjMZg2UlmTl95M_Ohm-208">
          <mxGeometry width="50" height="50" relative="1" as="geometry">
            <mxPoint x="528.48" y="885" as="sourcePoint" />
            <mxPoint x="648.48" y="840" as="targetPoint" />
            <Array as="points">
              <mxPoint x="540" y="875" />
              <mxPoint x="540" y="910" />
            </Array>
          </mxGeometry>
        </mxCell>
        <mxCell id="DTWjMZg2UlmTl95M_Ohm-210" value="" style="endArrow=classic;html=1;rounded=0;exitX=0.5;exitY=1;exitDx=0;exitDy=0;entryX=0;entryY=0.5;entryDx=0;entryDy=0;fontColor=#000099;" edge="1" parent="1" target="DTWjMZg2UlmTl95M_Ohm-211" source="DTWjMZg2UlmTl95M_Ohm-173">
          <mxGeometry width="50" height="50" relative="1" as="geometry">
            <mxPoint x="553.48" y="830" as="sourcePoint" />
            <mxPoint x="598.48" y="970" as="targetPoint" />
            <Array as="points">
              <mxPoint x="555" y="875" />
            </Array>
          </mxGeometry>
        </mxCell>
        <mxCell id="DTWjMZg2UlmTl95M_Ohm-211" value="" style="rounded=0;whiteSpace=wrap;html=1;strokeColor=#666666;fontColor=#333333;fillColor=#A8A8A8;sketch=1;" vertex="1" parent="1">
          <mxGeometry x="570" y="870" width="50" height="10" as="geometry" />
        </mxCell>
        <mxCell id="DTWjMZg2UlmTl95M_Ohm-212" value="4K&lt;br&gt;Page" style="rounded=1;whiteSpace=wrap;html=1;strokeColor=#36393d;verticalAlign=bottom;fillColor=#FFFF00;glass=0;sketch=0;shadow=1;fontColor=#000099;" vertex="1" parent="1">
          <mxGeometry x="670" y="830" width="50" height="80" as="geometry" />
        </mxCell>
        <mxCell id="DTWjMZg2UlmTl95M_Ohm-213" value="" style="endArrow=classic;html=1;rounded=0;exitX=1;exitY=0.5;exitDx=0;exitDy=0;entryX=0;entryY=1;entryDx=0;entryDy=0;fontColor=#000099;" edge="1" parent="1" source="DTWjMZg2UlmTl95M_Ohm-211" target="DTWjMZg2UlmTl95M_Ohm-212">
          <mxGeometry width="50" height="50" relative="1" as="geometry">
            <mxPoint x="618.48" y="885" as="sourcePoint" />
            <mxPoint x="738.48" y="840" as="targetPoint" />
            <Array as="points">
              <mxPoint x="630" y="875" />
              <mxPoint x="630" y="910" />
            </Array>
          </mxGeometry>
        </mxCell>
        <mxCell id="DTWjMZg2UlmTl95M_Ohm-214" value="" style="endArrow=classic;html=1;rounded=0;exitX=0.5;exitY=1;exitDx=0;exitDy=0;entryX=0;entryY=1;entryDx=0;entryDy=0;fontColor=#000099;" edge="1" parent="1" target="DTWjMZg2UlmTl95M_Ohm-215" source="DTWjMZg2UlmTl95M_Ohm-172">
          <mxGeometry width="50" height="50" relative="1" as="geometry">
            <mxPoint x="643.48" y="830" as="sourcePoint" />
            <mxPoint x="688.48" y="970" as="targetPoint" />
            <Array as="points">
              <mxPoint x="660" y="870" />
            </Array>
          </mxGeometry>
        </mxCell>
        <mxCell id="DTWjMZg2UlmTl95M_Ohm-215" value="" style="rounded=0;whiteSpace=wrap;html=1;strokeColor=#666666;fontColor=#333333;fillColor=#A8A8A8;sketch=1;" vertex="1" parent="1">
          <mxGeometry x="670" y="860" width="50" height="10" as="geometry" />
        </mxCell>
        <mxCell id="DTWjMZg2UlmTl95M_Ohm-216" value="CR3" style="rounded=1;whiteSpace=wrap;html=1;strokeColor=#b85450;fillColor=#f8cecc;sketch=0;shadow=1;fontColor=#000099;" vertex="1" parent="1">
          <mxGeometry x="235.19" y="900" width="40" height="20" as="geometry" />
        </mxCell>
        <mxCell id="DTWjMZg2UlmTl95M_Ohm-217" value="" style="endArrow=classic;html=1;rounded=0;exitX=1;exitY=0.5;exitDx=0;exitDy=0;entryX=0;entryY=1;entryDx=0;entryDy=0;fontColor=#000099;" edge="1" parent="1" source="DTWjMZg2UlmTl95M_Ohm-216" target="DTWjMZg2UlmTl95M_Ohm-197">
          <mxGeometry width="50" height="50" relative="1" as="geometry">
            <mxPoint x="418.48" y="890" as="sourcePoint" />
            <mxPoint x="468.48" y="840" as="targetPoint" />
          </mxGeometry>
        </mxCell>
        <mxCell id="DTWjMZg2UlmTl95M_Ohm-218" value="&lt;font style=&quot;font-size: 10px;&quot;&gt;Offset&lt;/font&gt;" style="rounded=0;whiteSpace=wrap;html=1;fontSize=10;fillColor=#80FF00;strokeColor=#36393d;fontColor=#000099;" vertex="1" parent="1">
          <mxGeometry x="510" y="940" width="210" height="20" as="geometry" />
        </mxCell>
        <mxCell id="DTWjMZg2UlmTl95M_Ohm-219" value="&lt;font style=&quot;font-size: 10px;&quot;&gt;L1 Index&lt;/font&gt;" style="rounded=0;whiteSpace=wrap;html=1;fontSize=10;fillColor=#99FF33;strokeColor=#36393d;fontColor=#000099;" vertex="1" parent="1">
          <mxGeometry x="420" y="940" width="90" height="20" as="geometry" />
        </mxCell>
        <mxCell id="DTWjMZg2UlmTl95M_Ohm-220" value="&lt;font style=&quot;font-size: 10px;&quot;&gt;L2 Index&lt;/font&gt;" style="rounded=0;whiteSpace=wrap;html=1;fontSize=10;fillColor=#B3FF66;strokeColor=#36393d;fontColor=#000099;" vertex="1" parent="1">
          <mxGeometry x="330" y="940" width="90" height="20" as="geometry" />
        </mxCell>
        <mxCell id="DTWjMZg2UlmTl95M_Ohm-221" value="&lt;font style=&quot;font-size: 10px;&quot;&gt;L3 Index&lt;/font&gt;" style="rounded=0;whiteSpace=wrap;html=1;fontSize=10;fillColor=#CCFF99;strokeColor=#36393d;fontColor=#000099;" vertex="1" parent="1">
          <mxGeometry x="240" y="940" width="90" height="20" as="geometry" />
        </mxCell>
        <mxCell id="DTWjMZg2UlmTl95M_Ohm-233" value="L3&lt;br&gt;Directory" style="rounded=0;whiteSpace=wrap;html=1;strokeColor=#36393d;fontSize=10;spacingTop=-42;fillColor=#99FFFF;shadow=1;sketch=0;fontColor=#000099;" vertex="1" parent="1">
          <mxGeometry x="300" y="980" width="50" height="70" as="geometry" />
        </mxCell>
        <mxCell id="DTWjMZg2UlmTl95M_Ohm-234" value="" style="endArrow=classic;html=1;rounded=0;exitX=0.5;exitY=1;exitDx=0;exitDy=0;entryX=0;entryY=0.5;entryDx=0;entryDy=0;fontColor=#000099;" edge="1" parent="1" source="DTWjMZg2UlmTl95M_Ohm-221" target="DTWjMZg2UlmTl95M_Ohm-233">
          <mxGeometry width="50" height="50" relative="1" as="geometry">
            <mxPoint x="285" y="970" as="sourcePoint" />
            <mxPoint x="285" y="1040" as="targetPoint" />
            <Array as="points">
              <mxPoint x="285" y="1015" />
            </Array>
          </mxGeometry>
        </mxCell>
        <mxCell id="DTWjMZg2UlmTl95M_Ohm-235" value="L2 Directory" style="rounded=0;whiteSpace=wrap;html=1;strokeColor=#36393d;fontSize=10;spacingTop=-42;fillColor=#66FFFF;shadow=1;sketch=0;fontColor=#000099;" vertex="1" parent="1">
          <mxGeometry x="390" y="980" width="50" height="70" as="geometry" />
        </mxCell>
        <mxCell id="DTWjMZg2UlmTl95M_Ohm-236" value="" style="rounded=0;whiteSpace=wrap;html=1;strokeColor=#666666;fontColor=#333333;fillColor=#A8A8A8;sketch=1;" vertex="1" parent="1">
          <mxGeometry x="300" y="1010" width="50" height="10" as="geometry" />
        </mxCell>
        <mxCell id="DTWjMZg2UlmTl95M_Ohm-237" value="" style="endArrow=classic;html=1;rounded=0;exitX=1;exitY=0.5;exitDx=0;exitDy=0;entryX=0;entryY=1;entryDx=0;entryDy=0;fontColor=#000099;" edge="1" parent="1" source="DTWjMZg2UlmTl95M_Ohm-236" target="DTWjMZg2UlmTl95M_Ohm-235">
          <mxGeometry width="50" height="50" relative="1" as="geometry">
            <mxPoint x="420" y="1030" as="sourcePoint" />
            <mxPoint x="470" y="980" as="targetPoint" />
            <Array as="points">
              <mxPoint x="360" y="1015" />
              <mxPoint x="360" y="1050" />
            </Array>
          </mxGeometry>
        </mxCell>
        <mxCell id="DTWjMZg2UlmTl95M_Ohm-238" value="" style="endArrow=classic;html=1;rounded=0;entryX=0;entryY=0.5;entryDx=0;entryDy=0;exitX=0.5;exitY=1;exitDx=0;exitDy=0;fontColor=#000099;" edge="1" parent="1" source="DTWjMZg2UlmTl95M_Ohm-220" target="DTWjMZg2UlmTl95M_Ohm-235">
          <mxGeometry width="50" height="50" relative="1" as="geometry">
            <mxPoint x="360" y="990" as="sourcePoint" />
            <mxPoint x="420" y="1110" as="targetPoint" />
            <Array as="points">
              <mxPoint x="375" y="1015" />
            </Array>
          </mxGeometry>
        </mxCell>
        <mxCell id="DTWjMZg2UlmTl95M_Ohm-239" value="" style="rounded=0;whiteSpace=wrap;html=1;strokeColor=#666666;fontColor=#333333;fillColor=#A8A8A8;sketch=1;" vertex="1" parent="1">
          <mxGeometry x="390" y="1010" width="50" height="10" as="geometry" />
        </mxCell>
        <mxCell id="DTWjMZg2UlmTl95M_Ohm-240" value="L1 Directory" style="rounded=0;whiteSpace=wrap;html=1;strokeColor=#36393d;fontSize=10;spacingTop=-42;fillColor=#00FFFF;shadow=1;sketch=0;fontColor=#000099;" vertex="1" parent="1">
          <mxGeometry x="480" y="980" width="50" height="70" as="geometry" />
        </mxCell>
        <mxCell id="DTWjMZg2UlmTl95M_Ohm-241" value="" style="endArrow=classic;html=1;rounded=0;exitX=1;exitY=0.5;exitDx=0;exitDy=0;entryX=0;entryY=1;entryDx=0;entryDy=0;fontColor=#000099;" edge="1" parent="1" source="DTWjMZg2UlmTl95M_Ohm-239" target="DTWjMZg2UlmTl95M_Ohm-240">
          <mxGeometry width="50" height="50" relative="1" as="geometry">
            <mxPoint x="440" y="1025" as="sourcePoint" />
            <mxPoint x="560" y="980" as="targetPoint" />
            <Array as="points">
              <mxPoint x="450" y="1015" />
              <mxPoint x="450" y="1050" />
            </Array>
          </mxGeometry>
        </mxCell>
        <mxCell id="DTWjMZg2UlmTl95M_Ohm-242" value="" style="endArrow=classic;html=1;rounded=0;exitX=0.5;exitY=1;exitDx=0;exitDy=0;entryX=0;entryY=0.5;entryDx=0;entryDy=0;fontColor=#000099;" edge="1" parent="1" target="DTWjMZg2UlmTl95M_Ohm-240" source="DTWjMZg2UlmTl95M_Ohm-219">
          <mxGeometry width="50" height="50" relative="1" as="geometry">
            <mxPoint x="465" y="970" as="sourcePoint" />
            <mxPoint x="510" y="1110" as="targetPoint" />
            <Array as="points">
              <mxPoint x="465" y="1015" />
            </Array>
          </mxGeometry>
        </mxCell>
        <mxCell id="DTWjMZg2UlmTl95M_Ohm-243" value="" style="rounded=0;whiteSpace=wrap;html=1;strokeColor=#666666;fontColor=#333333;fillColor=#A8A8A8;sketch=1;" vertex="1" parent="1">
          <mxGeometry x="480" y="1010" width="50" height="10" as="geometry" />
        </mxCell>
        <mxCell id="DTWjMZg2UlmTl95M_Ohm-248" value="2M&lt;br&gt;Page" style="rounded=1;whiteSpace=wrap;html=1;strokeColor=#36393d;verticalAlign=bottom;fillColor=#FFFF00;glass=0;sketch=0;shadow=1;fontColor=#000099;" vertex="1" parent="1">
          <mxGeometry x="670" y="970" width="50" height="80" as="geometry" />
        </mxCell>
        <mxCell id="DTWjMZg2UlmTl95M_Ohm-249" value="" style="endArrow=classic;html=1;rounded=0;exitX=1;exitY=0.5;exitDx=0;exitDy=0;entryX=0;entryY=1;entryDx=0;entryDy=0;fontColor=#000099;" edge="1" parent="1" source="DTWjMZg2UlmTl95M_Ohm-243" target="DTWjMZg2UlmTl95M_Ohm-248">
          <mxGeometry width="50" height="50" relative="1" as="geometry">
            <mxPoint x="620" y="1025" as="sourcePoint" />
            <mxPoint x="740" y="980" as="targetPoint" />
            <Array as="points">
              <mxPoint x="540" y="1015" />
              <mxPoint x="540" y="1050" />
            </Array>
          </mxGeometry>
        </mxCell>
        <mxCell id="DTWjMZg2UlmTl95M_Ohm-250" value="" style="endArrow=classic;html=1;rounded=0;exitX=0.5;exitY=1;exitDx=0;exitDy=0;entryX=0;entryY=0.5;entryDx=0;entryDy=0;fontColor=#000099;" edge="1" parent="1" target="DTWjMZg2UlmTl95M_Ohm-251" source="DTWjMZg2UlmTl95M_Ohm-218">
          <mxGeometry width="50" height="50" relative="1" as="geometry">
            <mxPoint x="645" y="970" as="sourcePoint" />
            <mxPoint x="690" y="1110" as="targetPoint" />
            <Array as="points">
              <mxPoint x="615" y="1005" />
            </Array>
          </mxGeometry>
        </mxCell>
        <mxCell id="DTWjMZg2UlmTl95M_Ohm-251" value="" style="rounded=0;whiteSpace=wrap;html=1;strokeColor=#666666;fontColor=#333333;fillColor=#A8A8A8;sketch=1;" vertex="1" parent="1">
          <mxGeometry x="670" y="1000" width="50" height="10" as="geometry" />
        </mxCell>
        <mxCell id="DTWjMZg2UlmTl95M_Ohm-252" value="CR3" style="rounded=1;whiteSpace=wrap;html=1;strokeColor=#b85450;fillColor=#f8cecc;sketch=0;shadow=1;fontColor=#000099;" vertex="1" parent="1">
          <mxGeometry x="240" y="1040" width="40" height="20" as="geometry" />
        </mxCell>
        <mxCell id="DTWjMZg2UlmTl95M_Ohm-253" value="" style="endArrow=classic;html=1;rounded=0;exitX=1;exitY=0.5;exitDx=0;exitDy=0;entryX=0;entryY=1;entryDx=0;entryDy=0;fontColor=#000099;" edge="1" parent="1" source="DTWjMZg2UlmTl95M_Ohm-252" target="DTWjMZg2UlmTl95M_Ohm-233">
          <mxGeometry width="50" height="50" relative="1" as="geometry">
            <mxPoint x="420" y="1030" as="sourcePoint" />
            <mxPoint x="470" y="980" as="targetPoint" />
          </mxGeometry>
        </mxCell>
        <mxCell id="DTWjMZg2UlmTl95M_Ohm-254" value="&lt;font style=&quot;font-size: 10px;&quot;&gt;Offset&lt;/font&gt;" style="rounded=0;whiteSpace=wrap;html=1;fontSize=10;fillColor=#80FF00;strokeColor=#36393d;fontColor=#000099;" vertex="1" parent="1">
          <mxGeometry x="420" y="1080" width="300" height="20" as="geometry" />
        </mxCell>
        <mxCell id="DTWjMZg2UlmTl95M_Ohm-255" value="&lt;font style=&quot;font-size: 10px;&quot;&gt;L1 Index&lt;/font&gt;" style="rounded=0;whiteSpace=wrap;html=1;fontSize=10;fillColor=#99FF33;strokeColor=#36393d;fontColor=#000099;" vertex="1" parent="1">
          <mxGeometry x="330" y="1080" width="90" height="20" as="geometry" />
        </mxCell>
        <mxCell id="DTWjMZg2UlmTl95M_Ohm-256" value="&lt;font style=&quot;font-size: 10px;&quot;&gt;L2 Index&lt;/font&gt;" style="rounded=0;whiteSpace=wrap;html=1;fontSize=10;fillColor=#B3FF66;strokeColor=#36393d;fontColor=#000099;" vertex="1" parent="1">
          <mxGeometry x="240" y="1080" width="90" height="20" as="geometry" />
        </mxCell>
        <mxCell id="DTWjMZg2UlmTl95M_Ohm-259" value="L2&lt;br&gt;&amp;nbsp;Directory" style="rounded=0;whiteSpace=wrap;html=1;strokeColor=#36393d;fontSize=10;spacingTop=-42;fillColor=#66FFFF;shadow=1;sketch=0;fontColor=#000099;" vertex="1" parent="1">
          <mxGeometry x="300" y="1120" width="50" height="70" as="geometry" />
        </mxCell>
        <mxCell id="DTWjMZg2UlmTl95M_Ohm-260" value="" style="endArrow=classic;html=1;rounded=0;exitX=0.5;exitY=1;exitDx=0;exitDy=0;entryX=0;entryY=0.5;entryDx=0;entryDy=0;fontColor=#000099;" edge="1" parent="1" source="DTWjMZg2UlmTl95M_Ohm-256" target="DTWjMZg2UlmTl95M_Ohm-259">
          <mxGeometry width="50" height="50" relative="1" as="geometry">
            <mxPoint x="286.3299999999999" y="1110" as="sourcePoint" />
            <mxPoint x="286.33" y="1180" as="targetPoint" />
            <Array as="points">
              <mxPoint x="285" y="1155" />
            </Array>
          </mxGeometry>
        </mxCell>
        <mxCell id="DTWjMZg2UlmTl95M_Ohm-261" value="L1 Directory" style="rounded=0;whiteSpace=wrap;html=1;strokeColor=#36393d;fontSize=10;spacingTop=-42;fillColor=#00FFFF;shadow=1;sketch=0;fontColor=#000099;" vertex="1" parent="1">
          <mxGeometry x="390" y="1120" width="50" height="70" as="geometry" />
        </mxCell>
        <mxCell id="DTWjMZg2UlmTl95M_Ohm-262" value="" style="rounded=0;whiteSpace=wrap;html=1;strokeColor=#666666;fontColor=#333333;fillColor=#A8A8A8;sketch=1;" vertex="1" parent="1">
          <mxGeometry x="300" y="1150" width="50" height="10" as="geometry" />
        </mxCell>
        <mxCell id="DTWjMZg2UlmTl95M_Ohm-263" value="" style="endArrow=classic;html=1;rounded=0;exitX=1;exitY=0.5;exitDx=0;exitDy=0;entryX=0;entryY=1;entryDx=0;entryDy=0;fontColor=#000099;" edge="1" parent="1" source="DTWjMZg2UlmTl95M_Ohm-262" target="DTWjMZg2UlmTl95M_Ohm-261">
          <mxGeometry width="50" height="50" relative="1" as="geometry">
            <mxPoint x="422.33" y="1170" as="sourcePoint" />
            <mxPoint x="472.33" y="1120" as="targetPoint" />
            <Array as="points">
              <mxPoint x="360" y="1155" />
              <mxPoint x="360" y="1190" />
            </Array>
          </mxGeometry>
        </mxCell>
        <mxCell id="DTWjMZg2UlmTl95M_Ohm-264" value="" style="endArrow=classic;html=1;rounded=0;exitX=0.5;exitY=1;exitDx=0;exitDy=0;entryX=0;entryY=0.5;entryDx=0;entryDy=0;fontColor=#000099;" edge="1" parent="1" source="DTWjMZg2UlmTl95M_Ohm-255" target="DTWjMZg2UlmTl95M_Ohm-261">
          <mxGeometry width="50" height="50" relative="1" as="geometry">
            <mxPoint x="376.3299999999999" y="1110" as="sourcePoint" />
            <mxPoint x="421.33" y="1250" as="targetPoint" />
            <Array as="points">
              <mxPoint x="375" y="1155" />
            </Array>
          </mxGeometry>
        </mxCell>
        <mxCell id="DTWjMZg2UlmTl95M_Ohm-265" value="" style="rounded=0;whiteSpace=wrap;html=1;strokeColor=#666666;fontColor=#333333;fillColor=#A8A8A8;sketch=1;" vertex="1" parent="1">
          <mxGeometry x="390" y="1150" width="50" height="10" as="geometry" />
        </mxCell>
        <mxCell id="DTWjMZg2UlmTl95M_Ohm-274" value="1G&lt;br&gt;Page" style="rounded=1;whiteSpace=wrap;html=1;strokeColor=#36393d;verticalAlign=bottom;fillColor=#FFFF00;glass=0;sketch=0;shadow=1;fontColor=#000099;" vertex="1" parent="1">
          <mxGeometry x="670" y="1110" width="50" height="80" as="geometry" />
        </mxCell>
        <mxCell id="DTWjMZg2UlmTl95M_Ohm-275" value="" style="endArrow=classic;html=1;rounded=0;exitX=1;exitY=0.5;exitDx=0;exitDy=0;entryX=0;entryY=1;entryDx=0;entryDy=0;fontColor=#000099;" edge="1" parent="1" source="DTWjMZg2UlmTl95M_Ohm-265" target="DTWjMZg2UlmTl95M_Ohm-274">
          <mxGeometry width="50" height="50" relative="1" as="geometry">
            <mxPoint x="622.3300000000002" y="1165" as="sourcePoint" />
            <mxPoint x="742.33" y="1120" as="targetPoint" />
            <Array as="points">
              <mxPoint x="450" y="1155" />
              <mxPoint x="450" y="1190" />
            </Array>
          </mxGeometry>
        </mxCell>
        <mxCell id="DTWjMZg2UlmTl95M_Ohm-276" value="" style="endArrow=classic;html=1;rounded=0;exitX=0.75;exitY=1;exitDx=0;exitDy=0;entryX=0;entryY=0.5;entryDx=0;entryDy=0;fontColor=#000099;" edge="1" parent="1" target="DTWjMZg2UlmTl95M_Ohm-277" source="DTWjMZg2UlmTl95M_Ohm-254">
          <mxGeometry width="50" height="50" relative="1" as="geometry">
            <mxPoint x="646.33" y="1110" as="sourcePoint" />
            <mxPoint x="691.33" y="1250" as="targetPoint" />
            <Array as="points">
              <mxPoint x="645" y="1145" />
            </Array>
          </mxGeometry>
        </mxCell>
        <mxCell id="DTWjMZg2UlmTl95M_Ohm-277" value="" style="rounded=0;whiteSpace=wrap;html=1;strokeColor=#666666;fontColor=#333333;fillColor=#A8A8A8;sketch=1;" vertex="1" parent="1">
          <mxGeometry x="670" y="1140" width="50" height="10" as="geometry" />
        </mxCell>
        <mxCell id="DTWjMZg2UlmTl95M_Ohm-278" value="CR3" style="rounded=1;whiteSpace=wrap;html=1;strokeColor=#b85450;fillColor=#f8cecc;sketch=0;shadow=1;fontColor=#000099;" vertex="1" parent="1">
          <mxGeometry x="240" y="1180" width="40" height="20" as="geometry" />
        </mxCell>
        <mxCell id="DTWjMZg2UlmTl95M_Ohm-279" value="" style="endArrow=classic;html=1;rounded=0;exitX=1;exitY=0.5;exitDx=0;exitDy=0;entryX=0;entryY=1;entryDx=0;entryDy=0;fontColor=#000099;" edge="1" parent="1" source="DTWjMZg2UlmTl95M_Ohm-278" target="DTWjMZg2UlmTl95M_Ohm-259">
          <mxGeometry width="50" height="50" relative="1" as="geometry">
            <mxPoint x="422.33" y="1170" as="sourcePoint" />
            <mxPoint x="472.33" y="1120" as="targetPoint" />
          </mxGeometry>
        </mxCell>
        <mxCell id="DTWjMZg2UlmTl95M_Ohm-292" value="48bit" style="rounded=0;whiteSpace=wrap;html=1;shadow=0;glass=0;labelBackgroundColor=none;labelBorderColor=none;sketch=0;fontSize=10;fillColor=none;strokeColor=none;points=[[0,0.5,0,0,0],[1,0.5,0,0,0]];" vertex="1" parent="1">
          <mxGeometry x="425" y="1320" width="30" height="20" as="geometry" />
        </mxCell>
        <mxCell id="DTWjMZg2UlmTl95M_Ohm-294" value="" style="endArrow=none;html=1;rounded=0;fontSize=10;fontColor=#FF0000;strokeColor=#000000;strokeWidth=1;" edge="1" parent="1">
          <mxGeometry width="50" height="50" relative="1" as="geometry">
            <mxPoint x="320" y="1320" as="sourcePoint" />
            <mxPoint x="320" y="1340" as="targetPoint" />
          </mxGeometry>
        </mxCell>
        <mxCell id="DTWjMZg2UlmTl95M_Ohm-295" value="" style="endArrow=none;html=1;rounded=0;fontSize=10;fontColor=#FF0000;strokeColor=#000000;strokeWidth=1;" edge="1" parent="1">
          <mxGeometry width="50" height="50" relative="1" as="geometry">
            <mxPoint x="560" y="1320" as="sourcePoint" />
            <mxPoint x="560" y="1340" as="targetPoint" />
          </mxGeometry>
        </mxCell>
        <mxCell id="DTWjMZg2UlmTl95M_Ohm-296" value="" style="rounded=0;whiteSpace=wrap;html=1;shadow=0;glass=0;labelBackgroundColor=none;labelBorderColor=none;sketch=0;fontSize=10;fillColor=#000000;strokeColor=none;strokeWidth=0.5;points=[[0.5,0.5,0,0,0]];" vertex="1" parent="1">
          <mxGeometry x="239.5" y="760" width="1" height="20" as="geometry" />
        </mxCell>
        <mxCell id="DTWjMZg2UlmTl95M_Ohm-298" value="" style="endArrow=classic;html=1;rounded=0;fontSize=10;fontColor=#FF0000;strokeColor=#000000;strokeWidth=1;exitX=0;exitY=0.5;exitDx=0;exitDy=0;" edge="1" parent="1" source="DTWjMZg2UlmTl95M_Ohm-292">
          <mxGeometry width="50" height="50" relative="1" as="geometry">
            <mxPoint x="400" y="1190" as="sourcePoint" />
            <mxPoint x="320" y="1330" as="targetPoint" />
          </mxGeometry>
        </mxCell>
        <mxCell id="DTWjMZg2UlmTl95M_Ohm-299" value="" style="endArrow=classic;html=1;rounded=0;fontSize=10;fontColor=#FF0000;strokeColor=#000000;strokeWidth=1;exitX=1;exitY=0.5;exitDx=0;exitDy=0;sketch=0;" edge="1" parent="1" source="DTWjMZg2UlmTl95M_Ohm-292">
          <mxGeometry width="50" height="50" relative="1" as="geometry">
            <mxPoint x="400" y="1190" as="sourcePoint" />
            <mxPoint x="560" y="1330" as="targetPoint" />
          </mxGeometry>
        </mxCell>
        <mxCell id="DTWjMZg2UlmTl95M_Ohm-300" value="48bit" style="rounded=0;whiteSpace=wrap;html=1;shadow=0;glass=0;labelBackgroundColor=none;labelBorderColor=none;sketch=0;fontSize=10;fillColor=none;strokeColor=none;points=[[0,0.5,0,0,0],[1,0.5,0,0,0]];" vertex="1" parent="1">
          <mxGeometry x="464" y="760" width="30" height="20" as="geometry" />
        </mxCell>
        <mxCell id="DTWjMZg2UlmTl95M_Ohm-303" value="" style="endArrow=classic;html=1;rounded=0;fontSize=10;fontColor=#FF0000;strokeColor=#000000;strokeWidth=1;exitX=0;exitY=0.5;exitDx=0;exitDy=0;entryX=0.5;entryY=0.5;entryDx=0;entryDy=0;entryPerimeter=0;" edge="1" parent="1" source="DTWjMZg2UlmTl95M_Ohm-300" target="DTWjMZg2UlmTl95M_Ohm-296">
          <mxGeometry width="50" height="50" relative="1" as="geometry">
            <mxPoint x="557.65" y="630" as="sourcePoint" />
            <mxPoint x="220" y="770" as="targetPoint" />
          </mxGeometry>
        </mxCell>
        <mxCell id="DTWjMZg2UlmTl95M_Ohm-304" value="" style="endArrow=classic;html=1;rounded=0;fontSize=10;fontColor=#FF0000;strokeColor=#000000;strokeWidth=1;exitX=1;exitY=0.5;exitDx=0;exitDy=0;sketch=0;entryX=0;entryY=0.5;entryDx=0;entryDy=0;entryPerimeter=0;" edge="1" parent="1" source="DTWjMZg2UlmTl95M_Ohm-300" target="DTWjMZg2UlmTl95M_Ohm-305">
          <mxGeometry width="50" height="50" relative="1" as="geometry">
            <mxPoint x="557.65" y="630" as="sourcePoint" />
            <mxPoint x="720" y="770" as="targetPoint" />
          </mxGeometry>
        </mxCell>
        <mxCell id="DTWjMZg2UlmTl95M_Ohm-305" value="" style="rounded=0;whiteSpace=wrap;html=1;shadow=0;glass=0;labelBackgroundColor=none;labelBorderColor=none;sketch=0;fontSize=10;fillColor=#000000;strokeColor=none;strokeWidth=0.5;points=[[0,0.5,0,0,0]];" vertex="1" parent="1">
          <mxGeometry x="719.31" y="760" width="1" height="20" as="geometry" />
        </mxCell>
        <mxCell id="DTWjMZg2UlmTl95M_Ohm-306" value="" style="rounded=0;whiteSpace=wrap;html=1;shadow=0;glass=0;labelBackgroundColor=none;labelBorderColor=none;sketch=0;fontSize=10;fillColor=#FF0000;strokeColor=none;strokeWidth=0.5;points=[[0,0.5,0,0,0],[1,0.5,0,0,0]];fontStyle=1;fontColor=#FF0000;" vertex="1" parent="1">
          <mxGeometry x="599.31" y="780" width="2" height="20" as="geometry" />
        </mxCell>
        <mxCell id="DTWjMZg2UlmTl95M_Ohm-307" value="12" style="rounded=0;whiteSpace=wrap;html=1;shadow=0;glass=0;labelBackgroundColor=none;labelBorderColor=none;sketch=0;fontSize=10;fillColor=none;strokeColor=none;points=[[0,0.5,0,0,0],[1,0.5,0,0,0]];fontStyle=1;fontColor=#FF0000;" vertex="1" parent="1">
          <mxGeometry x="650" y="780" width="20" height="20" as="geometry" />
        </mxCell>
        <mxCell id="DTWjMZg2UlmTl95M_Ohm-308" value="" style="endArrow=classic;html=1;rounded=0;fontSize=10;fontColor=#FF0000;strokeColor=#FF0000;strokeWidth=2;exitX=0;exitY=0.5;exitDx=0;exitDy=0;fontStyle=1;entryX=1;entryY=0.5;entryDx=0;entryDy=0;entryPerimeter=0;" edge="1" parent="1" source="DTWjMZg2UlmTl95M_Ohm-307" target="DTWjMZg2UlmTl95M_Ohm-306">
          <mxGeometry width="50" height="50" relative="1" as="geometry">
            <mxPoint x="567.65" y="640" as="sourcePoint" />
            <mxPoint x="620" y="790" as="targetPoint" />
          </mxGeometry>
        </mxCell>
        <mxCell id="DTWjMZg2UlmTl95M_Ohm-309" value="" style="endArrow=classic;html=1;rounded=0;fontSize=10;fontColor=#FF0000;strokeColor=#FF0000;strokeWidth=2;exitX=1;exitY=0.5;exitDx=0;exitDy=0;sketch=0;fontStyle=1;entryX=0;entryY=0.5;entryDx=0;entryDy=0;entryPerimeter=0;" edge="1" parent="1" target="DTWjMZg2UlmTl95M_Ohm-310">
          <mxGeometry width="50" height="50" relative="1" as="geometry">
            <mxPoint x="670" y="789.89" as="sourcePoint" />
            <mxPoint x="710" y="790" as="targetPoint" />
          </mxGeometry>
        </mxCell>
        <mxCell id="DTWjMZg2UlmTl95M_Ohm-310" value="" style="rounded=0;whiteSpace=wrap;html=1;shadow=0;glass=0;labelBackgroundColor=none;labelBorderColor=none;sketch=0;fontSize=10;fillColor=#FF0000;strokeColor=none;strokeWidth=0.4;points=[[0,0.5,0,0,0]];fontStyle=1;fontColor=#FF0000;" vertex="1" parent="1">
          <mxGeometry x="718.5" y="780" width="2" height="20" as="geometry" />
        </mxCell>
        <mxCell id="DTWjMZg2UlmTl95M_Ohm-311" value="" style="rounded=0;whiteSpace=wrap;html=1;shadow=0;glass=0;labelBackgroundColor=none;labelBorderColor=none;sketch=0;fontSize=10;fillColor=#000000;strokeColor=none;strokeWidth=0.5;points=[[0.5,0.5,0,0,0]];" vertex="1" parent="1">
          <mxGeometry x="509.30999999999995" y="780" width="1" height="20" as="geometry" />
        </mxCell>
        <mxCell id="DTWjMZg2UlmTl95M_Ohm-312" value="9" style="rounded=0;whiteSpace=wrap;html=1;shadow=0;glass=0;labelBackgroundColor=none;labelBorderColor=none;sketch=0;fontSize=10;fillColor=none;strokeColor=none;points=[[0,0.5,0,0,0],[1,0.5,0,0,0]];" vertex="1" parent="1">
          <mxGeometry x="545" y="780" width="20" height="20" as="geometry" />
        </mxCell>
        <mxCell id="DTWjMZg2UlmTl95M_Ohm-313" value="" style="endArrow=classic;html=1;rounded=0;fontSize=10;fontColor=#FF0000;strokeColor=#000000;strokeWidth=1;exitX=0;exitY=0.5;exitDx=0;exitDy=0;entryX=0.5;entryY=0.5;entryDx=0;entryDy=0;entryPerimeter=0;" edge="1" parent="1" source="DTWjMZg2UlmTl95M_Ohm-312" target="DTWjMZg2UlmTl95M_Ohm-311">
          <mxGeometry width="50" height="50" relative="1" as="geometry">
            <mxPoint x="447.65" y="640" as="sourcePoint" />
            <mxPoint x="110" y="780" as="targetPoint" />
          </mxGeometry>
        </mxCell>
        <mxCell id="DTWjMZg2UlmTl95M_Ohm-314" value="" style="endArrow=classic;html=1;rounded=0;fontSize=10;fontColor=#FF0000;strokeColor=#000000;strokeWidth=1;exitX=1;exitY=0.5;exitDx=0;exitDy=0;sketch=0;entryX=0;entryY=0.5;entryDx=0;entryDy=0;entryPerimeter=0;" edge="1" parent="1" source="DTWjMZg2UlmTl95M_Ohm-312" target="DTWjMZg2UlmTl95M_Ohm-306">
          <mxGeometry width="50" height="50" relative="1" as="geometry">
            <mxPoint x="447.65" y="640" as="sourcePoint" />
            <mxPoint x="590" y="790" as="targetPoint" />
          </mxGeometry>
        </mxCell>
        <mxCell id="DTWjMZg2UlmTl95M_Ohm-316" value="" style="rounded=0;whiteSpace=wrap;html=1;shadow=0;glass=0;labelBackgroundColor=none;labelBorderColor=none;sketch=0;fontSize=10;fillColor=#000000;strokeColor=none;strokeWidth=0.5;points=[[0.5,0.5,0,0,0]];" vertex="1" parent="1">
          <mxGeometry x="239.49999999999994" y="780" width="1" height="20" as="geometry" />
        </mxCell>
        <mxCell id="DTWjMZg2UlmTl95M_Ohm-317" value="9" style="rounded=0;whiteSpace=wrap;html=1;shadow=0;glass=0;labelBackgroundColor=none;labelBorderColor=none;sketch=0;fontSize=10;fillColor=none;strokeColor=none;points=[[0,0.5,0,0,0],[1,0.5,0,0,0]];" vertex="1" parent="1">
          <mxGeometry x="275.19" y="780" width="20" height="20" as="geometry" />
        </mxCell>
        <mxCell id="DTWjMZg2UlmTl95M_Ohm-318" value="" style="endArrow=classic;html=1;rounded=0;fontSize=10;fontColor=#FF0000;strokeColor=#000000;strokeWidth=1;exitX=0;exitY=0.5;exitDx=0;exitDy=0;entryX=0.5;entryY=0.5;entryDx=0;entryDy=0;entryPerimeter=0;" edge="1" parent="1" source="DTWjMZg2UlmTl95M_Ohm-317" target="DTWjMZg2UlmTl95M_Ohm-316">
          <mxGeometry width="50" height="50" relative="1" as="geometry">
            <mxPoint x="176.83999999999997" y="640" as="sourcePoint" />
            <mxPoint x="-160.81" y="780" as="targetPoint" />
          </mxGeometry>
        </mxCell>
        <mxCell id="DTWjMZg2UlmTl95M_Ohm-319" value="" style="endArrow=classic;html=1;rounded=0;fontSize=10;fontColor=#FF0000;strokeColor=#000000;strokeWidth=1;exitX=1;exitY=0.5;exitDx=0;exitDy=0;sketch=0;entryX=0;entryY=0.5;entryDx=0;entryDy=0;entryPerimeter=0;" edge="1" parent="1" source="DTWjMZg2UlmTl95M_Ohm-317" target="DTWjMZg2UlmTl95M_Ohm-320">
          <mxGeometry width="50" height="50" relative="1" as="geometry">
            <mxPoint x="176.83999999999997" y="640" as="sourcePoint" />
            <mxPoint x="339.19" y="780" as="targetPoint" />
          </mxGeometry>
        </mxCell>
        <mxCell id="DTWjMZg2UlmTl95M_Ohm-320" value="" style="rounded=0;whiteSpace=wrap;html=1;shadow=0;glass=0;labelBackgroundColor=none;labelBorderColor=none;sketch=0;fontSize=10;fillColor=#000000;strokeColor=none;strokeWidth=0.4;points=[[0,0.5,0,0,0]];" vertex="1" parent="1">
          <mxGeometry x="329.49999999999994" y="780" width="1" height="20" as="geometry" />
        </mxCell>
        <mxCell id="DTWjMZg2UlmTl95M_Ohm-321" value="" style="rounded=0;whiteSpace=wrap;html=1;shadow=0;glass=0;labelBackgroundColor=none;labelBorderColor=none;sketch=0;fontSize=10;fillColor=#000000;strokeColor=none;strokeWidth=0.5;points=[[0.5,0.5,0,0,0]];" vertex="1" parent="1">
          <mxGeometry x="419.30999999999995" y="780" width="1" height="20" as="geometry" />
        </mxCell>
        <mxCell id="DTWjMZg2UlmTl95M_Ohm-322" value="9" style="rounded=0;whiteSpace=wrap;html=1;shadow=0;glass=0;labelBackgroundColor=none;labelBorderColor=none;sketch=0;fontSize=10;fillColor=none;strokeColor=none;points=[[0,0.5,0,0,0],[1,0.5,0,0,0]];" vertex="1" parent="1">
          <mxGeometry x="455" y="780" width="20" height="20" as="geometry" />
        </mxCell>
        <mxCell id="DTWjMZg2UlmTl95M_Ohm-323" value="" style="endArrow=classic;html=1;rounded=0;fontSize=10;fontColor=#FF0000;strokeColor=#000000;strokeWidth=1;exitX=0;exitY=0.5;exitDx=0;exitDy=0;entryX=0.5;entryY=0.5;entryDx=0;entryDy=0;entryPerimeter=0;" edge="1" parent="1" source="DTWjMZg2UlmTl95M_Ohm-322" target="DTWjMZg2UlmTl95M_Ohm-321">
          <mxGeometry width="50" height="50" relative="1" as="geometry">
            <mxPoint x="356.65" y="640" as="sourcePoint" />
            <mxPoint x="19" y="780" as="targetPoint" />
          </mxGeometry>
        </mxCell>
        <mxCell id="DTWjMZg2UlmTl95M_Ohm-324" value="" style="endArrow=classic;html=1;rounded=0;fontSize=10;fontColor=#FF0000;strokeColor=#000000;strokeWidth=1;exitX=1;exitY=0.5;exitDx=0;exitDy=0;sketch=0;entryX=0;entryY=0.5;entryDx=0;entryDy=0;entryPerimeter=0;" edge="1" parent="1" source="DTWjMZg2UlmTl95M_Ohm-322" target="DTWjMZg2UlmTl95M_Ohm-325">
          <mxGeometry width="50" height="50" relative="1" as="geometry">
            <mxPoint x="356.65" y="640" as="sourcePoint" />
            <mxPoint x="519" y="780" as="targetPoint" />
          </mxGeometry>
        </mxCell>
        <mxCell id="DTWjMZg2UlmTl95M_Ohm-325" value="" style="rounded=0;whiteSpace=wrap;html=1;shadow=0;glass=0;labelBackgroundColor=none;labelBorderColor=none;sketch=0;fontSize=10;fillColor=#000000;strokeColor=none;strokeWidth=0.4;points=[[0,0.5,0,0,0]];" vertex="1" parent="1">
          <mxGeometry x="509.30999999999995" y="780" width="1" height="20" as="geometry" />
        </mxCell>
        <mxCell id="DTWjMZg2UlmTl95M_Ohm-326" value="" style="rounded=0;whiteSpace=wrap;html=1;shadow=0;glass=0;labelBackgroundColor=none;labelBorderColor=none;sketch=0;fontSize=10;fillColor=#000000;strokeColor=none;strokeWidth=0.5;points=[[0.5,0.5,0,0,0]];" vertex="1" parent="1">
          <mxGeometry x="329.30999999999995" y="780" width="1" height="20" as="geometry" />
        </mxCell>
        <mxCell id="DTWjMZg2UlmTl95M_Ohm-327" value="9" style="rounded=0;whiteSpace=wrap;html=1;shadow=0;glass=0;labelBackgroundColor=none;labelBorderColor=none;sketch=0;fontSize=10;fillColor=none;strokeColor=none;points=[[0,0.5,0,0,0],[1,0.5,0,0,0]];" vertex="1" parent="1">
          <mxGeometry x="365" y="780" width="20" height="20" as="geometry" />
        </mxCell>
        <mxCell id="DTWjMZg2UlmTl95M_Ohm-328" value="" style="endArrow=classic;html=1;rounded=0;fontSize=10;fontColor=#FF0000;strokeColor=#000000;strokeWidth=1;exitX=0;exitY=0.5;exitDx=0;exitDy=0;entryX=0.5;entryY=0.5;entryDx=0;entryDy=0;entryPerimeter=0;" edge="1" parent="1" source="DTWjMZg2UlmTl95M_Ohm-327" target="DTWjMZg2UlmTl95M_Ohm-326">
          <mxGeometry width="50" height="50" relative="1" as="geometry">
            <mxPoint x="266.65" y="640" as="sourcePoint" />
            <mxPoint x="-71" y="780" as="targetPoint" />
          </mxGeometry>
        </mxCell>
        <mxCell id="DTWjMZg2UlmTl95M_Ohm-329" value="" style="endArrow=classic;html=1;rounded=0;fontSize=10;fontColor=#FF0000;strokeColor=#000000;strokeWidth=1;exitX=1;exitY=0.5;exitDx=0;exitDy=0;sketch=0;entryX=0;entryY=0.5;entryDx=0;entryDy=0;entryPerimeter=0;" edge="1" parent="1" source="DTWjMZg2UlmTl95M_Ohm-327" target="DTWjMZg2UlmTl95M_Ohm-330">
          <mxGeometry width="50" height="50" relative="1" as="geometry">
            <mxPoint x="266.65" y="640" as="sourcePoint" />
            <mxPoint x="429" y="780" as="targetPoint" />
          </mxGeometry>
        </mxCell>
        <mxCell id="DTWjMZg2UlmTl95M_Ohm-330" value="" style="rounded=0;whiteSpace=wrap;html=1;shadow=0;glass=0;labelBackgroundColor=none;labelBorderColor=none;sketch=0;fontSize=10;fillColor=#000000;strokeColor=none;strokeWidth=0.4;points=[[0,0.5,0,0,0]];" vertex="1" parent="1">
          <mxGeometry x="419.30999999999995" y="780" width="1" height="20" as="geometry" />
        </mxCell>
        <mxCell id="DTWjMZg2UlmTl95M_Ohm-341" value="" style="rounded=0;whiteSpace=wrap;html=1;shadow=0;glass=0;labelBackgroundColor=none;labelBorderColor=none;sketch=0;fontSize=10;fillColor=#FF0000;strokeColor=none;strokeWidth=0.5;points=[[0,0.5,0,0,0],[1,0.5,0,0,0]];fontStyle=1;fontColor=#FF0000;" vertex="1" parent="1">
          <mxGeometry x="508.80999999999995" y="920" width="2" height="20" as="geometry" />
        </mxCell>
        <mxCell id="DTWjMZg2UlmTl95M_Ohm-342" value="21" style="rounded=0;whiteSpace=wrap;html=1;shadow=0;glass=0;labelBackgroundColor=none;labelBorderColor=none;sketch=0;fontSize=10;fillColor=none;strokeColor=none;points=[[0,0.5,0,0,0],[1,0.5,0,0,0]];fontStyle=1;fontColor=#FF0000;" vertex="1" parent="1">
          <mxGeometry x="605" y="920" width="20" height="20" as="geometry" />
        </mxCell>
        <mxCell id="DTWjMZg2UlmTl95M_Ohm-343" value="" style="endArrow=classic;html=1;rounded=0;fontSize=10;fontColor=#FF0000;strokeColor=#FF0000;strokeWidth=2;exitX=0;exitY=0.5;exitDx=0;exitDy=0;fontStyle=1;entryX=1;entryY=0.5;entryDx=0;entryDy=0;entryPerimeter=0;" edge="1" parent="1" source="DTWjMZg2UlmTl95M_Ohm-342" target="DTWjMZg2UlmTl95M_Ohm-341">
          <mxGeometry width="50" height="50" relative="1" as="geometry">
            <mxPoint x="565.65" y="780" as="sourcePoint" />
            <mxPoint x="618" y="930" as="targetPoint" />
          </mxGeometry>
        </mxCell>
        <mxCell id="DTWjMZg2UlmTl95M_Ohm-344" value="" style="endArrow=classic;html=1;rounded=0;fontSize=10;fontColor=#FF0000;strokeColor=#FF0000;strokeWidth=2;exitX=1;exitY=0.5;exitDx=0;exitDy=0;sketch=0;entryX=0;entryY=0.5;entryDx=0;entryDy=0;entryPerimeter=0;fontStyle=1" edge="1" parent="1" source="DTWjMZg2UlmTl95M_Ohm-342" target="DTWjMZg2UlmTl95M_Ohm-345">
          <mxGeometry width="50" height="50" relative="1" as="geometry">
            <mxPoint x="565.65" y="780" as="sourcePoint" />
            <mxPoint x="728" y="920" as="targetPoint" />
          </mxGeometry>
        </mxCell>
        <mxCell id="DTWjMZg2UlmTl95M_Ohm-345" value="" style="rounded=0;whiteSpace=wrap;html=1;shadow=0;glass=0;labelBackgroundColor=none;labelBorderColor=none;sketch=0;fontSize=10;fillColor=#FF0000;strokeColor=none;strokeWidth=0.4;points=[[0,0.5,0,0,0]];fontStyle=1;fontColor=#FF0000;" vertex="1" parent="1">
          <mxGeometry x="718.5" y="920" width="2" height="20" as="geometry" />
        </mxCell>
        <mxCell id="DTWjMZg2UlmTl95M_Ohm-346" value="" style="rounded=0;whiteSpace=wrap;html=1;shadow=0;glass=0;labelBackgroundColor=none;labelBorderColor=none;sketch=0;fontSize=10;fillColor=#FF0000;strokeColor=none;strokeWidth=0.5;points=[[0,0.5,0,0,0],[1,0.5,0,0,0]];fontStyle=1;fontColor=#FF0000;" vertex="1" parent="1">
          <mxGeometry x="419.31" y="1060" width="2" height="20" as="geometry" />
        </mxCell>
        <mxCell id="DTWjMZg2UlmTl95M_Ohm-347" value="30" style="rounded=0;whiteSpace=wrap;html=1;shadow=0;glass=0;labelBackgroundColor=none;labelBorderColor=none;sketch=0;fontSize=10;fillColor=none;strokeColor=none;points=[[0,0.5,0,0,0],[1,0.5,0,0,0]];fontStyle=1;fontColor=#FF0000;" vertex="1" parent="1">
          <mxGeometry x="560" y="1060" width="20" height="20" as="geometry" />
        </mxCell>
        <mxCell id="DTWjMZg2UlmTl95M_Ohm-348" value="" style="endArrow=classic;html=1;rounded=0;fontSize=10;fontColor=#FF0000;strokeColor=#FF0000;strokeWidth=2;exitX=0;exitY=0.5;exitDx=0;exitDy=0;fontStyle=1;entryX=1;entryY=0.5;entryDx=0;entryDy=0;entryPerimeter=0;" edge="1" parent="1">
          <mxGeometry width="50" height="50" relative="1" as="geometry">
            <mxPoint x="560.5" y="1070" as="sourcePoint" />
            <mxPoint x="421.30999999999995" y="1070" as="targetPoint" />
          </mxGeometry>
        </mxCell>
        <mxCell id="DTWjMZg2UlmTl95M_Ohm-349" value="" style="endArrow=classic;html=1;rounded=0;fontSize=10;fontColor=#FF0000;strokeColor=#FF0000;strokeWidth=2;exitX=1;exitY=0.5;exitDx=0;exitDy=0;sketch=0;entryX=0;entryY=0.5;entryDx=0;entryDy=0;entryPerimeter=0;fontStyle=1" edge="1" parent="1">
          <mxGeometry width="50" height="50" relative="1" as="geometry">
            <mxPoint x="580.5" y="1070" as="sourcePoint" />
            <mxPoint x="719" y="1070" as="targetPoint" />
          </mxGeometry>
        </mxCell>
        <mxCell id="DTWjMZg2UlmTl95M_Ohm-350" value="" style="rounded=0;whiteSpace=wrap;html=1;shadow=0;glass=0;labelBackgroundColor=none;labelBorderColor=none;sketch=0;fontSize=10;fillColor=#FF0000;strokeColor=none;strokeWidth=0.4;points=[[0,0.5,0,0,0]];fontStyle=1;fontColor=#FF0000;" vertex="1" parent="1">
          <mxGeometry x="718.5" y="1060" width="2" height="20" as="geometry" />
        </mxCell>
      </root>
    </mxGraphModel>
  </diagram>
</mxfile>
